<?xml version="1.0" encoding="UTF-8" standalone="no"?>
<svg
   width="1024"
   height="500"
   viewBox="0 0 1024 500"
   fill="none"
   version="1.1"
   id="svg903"
   sodipodi:docname="banner.svg"
   inkscape:version="1.1.2 (b8e25be8, 2022-02-05)"
   xmlns:inkscape="http://www.inkscape.org/namespaces/inkscape"
   xmlns:sodipodi="http://sodipodi.sourceforge.net/DTD/sodipodi-0.dtd"
   xmlns="http://www.w3.org/2000/svg"
   xmlns:svg="http://www.w3.org/2000/svg">
  <sodipodi:namedview
     id="namedview905"
     pagecolor="#ffffff"
     bordercolor="#666666"
     borderopacity="1.0"
     inkscape:pageshadow="2"
     inkscape:pageopacity="0.0"
     inkscape:pagecheckerboard="0"
     showgrid="false"
     inkscape:zoom="0.92927823"
     inkscape:cx="283.5534"
     inkscape:cy="728.52239"
     inkscape:window-width="1440"
     inkscape:window-height="900"
     inkscape:window-x="0"
     inkscape:window-y="0"
     inkscape:window-maximized="0"
     inkscape:current-layer="svg903" />
  <g
     id="g1160"
     transform="translate(0.010071,-21.253517)"
     inkscape:export-filename="/Users/ivan/Documents/projects/nw_mobile/trash/banner.png"
     inkscape:export-xdpi="96"
     inkscape:export-ydpi="96">
    <rect
       width="575.23987"
       height="1024"
       transform="rotate(-90)"
       fill="#6a9745"
       id="rect824"
       x="-575.23993"
       y="0"
       style="stroke-width:1.21615" />
    <g
       opacity="0.1"
       id="g858"
       transform="scale(1.216152)">
      <path
         d="m 824.831,381.545 c 3.925,-10.918 1.364,-20.265 -0.891,-28.515 -2.192,-8.016 -4.086,-14.942 -0.715,-23.142 19.747,-52.315 23.64,-94.345 12.185,-132.013 0.337,-0.497 0.642,-0.994 0.923,-1.483 7.232,-12.545 1.614,-25.059 -13.397,-58.511 -1.605,-3.584 -3.331,-7.416 -5.161,-11.528 -1.71,-3.832 -3.596,-7.912 -5.932,-12.818 -2.191,-5.916 -5.041,-11.768 -8.693,-17.8683 -4.27,-8.6737 -8.669,-17.6277 -12.723,-26.5428 l -0.545,-1.1944 C 783.027,52.8347 776.549,38.5814 763.016,35.735 c -0.418,-0.0882 -1.509,-0.5291 -4.319,-2.0041 -4.744,-8.0404 -10.483,-15.9926 -19.69,-20.77 -4.142,-2.2527 -8.3,-4.15238 -12.329,-5.98826 C 715.28,1.76997 704.516,-3.13597 696.496,-15.2011 691.8,-24.1954 684.584,-30.2477 677.6,-36.0923 c -6.494,-5.4429 -12.626,-10.5814 -16.014,-17.716 -10.049,-19.4716 -22.579,-24.4906 -35.855,-29.8037 -6.117,-2.445 -12.434,-4.9782 -19.016,-9.1065 -9.897,-6.2608 -19.618,-13.1065 -29.017,-19.7285 -15.886,-11.19 -32.318,-22.758 -50.218,-31.968 -30.221,-18.31 -58.186,-18.117 -85.23,-17.941 -22.684,0.168 -44.117,0.297 -67.257,-9.604 -20.613,-11.23 -41.211,-4.545 -61.117,1.924 -18.711,6.077 -36.386,11.816 -54.606,4.249 l -0.249,-0.096 c -9.817,-3.399 -19.963,-6.91 -31.025,-5.684 -19.313,2.084 -38.546,8.41 -57.151,14.534 -3.596,1.186 -7.184,2.365 -10.756,3.511 -38.626,7.239 -78.6241,16.97 -109.6797,38.815 -30.5583,21.5065 -51.78952,53.7256 -66.7923,101.4058 l -0.1365,0.5371 c -3.0262,16.50568 -12.5701,32.9559 -21.8003,48.8664 -9.8491,16.9785 -20.0272,34.5258 -22.7394,52.7306 l -0.0321,0.2806 c -1.0114,11.7755 -9.0705,23.5035 -16.8726,34.8455 -5.7232,8.321 -11.6311,16.923 -14.7375,25.597 l -0.4093,1.155 0.2327,1.202 c 2.9059,15.183 -2.9619,28.033 -9.175,41.645 -6.317,13.828 -12.843,28.121 -10.932,45.917 0.257,8.866 -3.339,16.995 -7.152,25.597 -5.282,11.928 -10.74,24.248 -6.631,39.673 1.622,16.625 -4.471,33.267 -10.362,49.373 -9.954,27.199 -20.244,55.329 4.374,84.956 9.207,11.086 17.354,23.848 25.245,36.186 9.5034,14.87 19.3202,30.245 31.2318,43.159 l 0.3693,0.361 c 11.8237,10.205 18.8473,23.087 25.6307,35.543 7.8823,14.47 16.0378,29.437 31.6351,39.802 18.70277,11.945 40.7115,33.307 47.8399,54.19 4.2623,19.015 15.5562,25.837 26.4814,32.435 4.0375,2.437 8.2116,4.962 12.0565,8.056 5.0328,4.313 9.5279,9.315 13.8865,14.149 3.532,3.92 7.1761,7.976 11.1334,11.704 12.8994,13.667 27.1864,15.848 41.0094,17.956 7.248,1.106 14.738,2.253 21.938,5.114 l 0.474,0.161 c 19.505,5.315 40.222,10.485 59.639,12.297 13.437,3.287 26.722,8.762 39.573,14.061 20.941,8.633 42.575,17.563 65.933,17.555 0.337,0 0.675,0 1.012,-0.008 10.539,2.052 20.292,1.267 29.732,0.505 8.685,-0.705 16.889,-1.362 25.405,0.129 20.123,4.793 42.061,6.693 63.284,8.521 3.139,0.272 6.253,0.545 9.336,0.818 l 2.56,0.232 1.493,-2.092 c 4.816,-6.734 11.976,-9.668 21.311,-8.738 l 0.249,0.016 c 16.616,0.762 31.434,-7.327 45.785,-15.127 11.262,-6.124 21.897,-11.912 32.862,-13.563 19.016,-1.892 29.732,-14.67 39.179,-25.942 8.147,-9.716 15.837,-18.886 28.166,-21.581 9.271,-2.244 14.079,-10.637 19.168,-19.519 5.611,-9.796 11.977,-20.9 25.59,-26.783 l 0.273,-0.128 c 17.426,-8.979 23.535,-16.755 28.44,-22.999 6.285,-8.008 10.443,-13.299 39.371,-17.508 l 1.301,-0.192 0.995,-0.858 c 10.339,-8.93 16.905,-19.455 23.253,-29.629 6.663,-10.678 12.948,-20.754 23.303,-29.067 l 0.297,-0.257 c 16.816,-16.088 26.721,-35.785 29.45,-58.575 1.879,-16.81 8.212,-31.624 14.914,-47.321 3.067,-7.183 6.237,-14.606 8.958,-22.254 7.225,-17.058 -0.738,-25.941 -6.549,-32.426 -5.226,-5.796 -7.843,-9.147 -5.627,-15.921 z m -53.469,156.431 c -21.352,44.37 -48.434,59.449 -79.787,76.901 -18.149,10.101 -36.916,20.546 -56.534,37.565 l -0.466,0.465 C 561.698,737.791 486.904,764.254 404.612,764.254 344.443,764.246 280.258,750.097 209.927,734.288 208.475,733.959 199.163,730.697 198.465,730.521 94.0025,704.491 58.0748,654.888 -1.18834,573.049 c -3.23482,-4.473 -6.54195,-9.034 -9.99356,-13.772 -10.4912,-13.708 -23.8244,-28.338 -37.9354,-43.824 -23.7442,-26.053 -48.2981,-52.995 -60.8677,-77.525 -21.143,-37.485 -16.64,-53.133 -3.259,-99.611 5.105,-17.732 11.446,-39.761 18.0443,-68.883 5.4745,-10.958 7.6498,-22.734 6.4697,-35.008 l -0.0321,-0.241 C -94.1643,198.313 -73.4869,163.94 -53.492,130.694 -43.2656,113.692 -32.6862,96.1049 -25.8639,78.6758 -19.5708,63.3888 -14.1044,46.6989 -8.1485,24.5333 30.2841,-122.117 182.089,-149.308 302.592,-146.335 c 18.727,0.97 37.646,1.01 55.941,1.05 52.85,0.113 102.761,0.225 152.271,20.506 l 0.289,0.104 c 33.368,11.039 64.785,37.7418 95.175,63.5705 20.179,17.1549 41.05,34.887 62.45,47.986 26.072,15.33527 47.696,30.4932 66.038,46.295 2.135,8.0564 13.758,21.3077 17.9,24.546 8.107,8.858 15.717,18.3413 22.637,28.1846 14.392,20.4899 29.282,41.6779 35.406,70.0389 2.223,10.301 10.122,22.902 10.025,49.043 1.132,42.086 -7.738,78.768 -21.367,120.565 -4.149,12.481 -1.404,25.075 2.208,36.906 20.035,61.775 10.017,120.582 -29.772,174.804 z"
         fill="#ffffff"
         id="path826" />
      <path
         d="M 636.315,-14.648 C 525.671,-90.1291 494.607,-132.375 351.116,-127.093 232.101,-134.267 70.4793,-115.565 30.9226,17.7537 24.0274,41.089 16.1691,64.0631 0.565712,83.1586 -27.2802,124.017 -70.9939,169.904 -70.8665,221.167 c 5.7151,52.218 -18.5421,98.786 -28.6329,148.535 -7.3686,58.23 66.4635,107.162 87.4686,160.27 34.8202,65.253 85.1651,124.101 153.9898,154.835 114.03,54.463 242.58,91.553 365.75,38.263 35.583,-15.905 73.631,-42.197 101.179,-71.098 15.018,-15.375 30.006,-30.694 49.213,-41.099 18.863,-10.213 38.57,-18.894 56.733,-30.349 75.91,-45.364 83.881,-144.149 64.119,-222.292 -11.39,-41.308 15.46,-79.61 16.656,-120.869 C 811.912,123.677 730.037,35.9134 636.307,-14.6439 Z m 132.822,322.992 c -11.342,41.636 11.527,82.903 8.741,125.127 0.907,43.818 -20.853,82.352 -45.986,117.575 -2.986,4.185 -20.092,18.902 -25.728,22.502 -38.738,21.675 -79.033,39.441 -108.186,74.071 -67.322,69.686 -166.125,99.266 -261.32,87.916 C 263.565,727.286 194.87,698.483 129.607,666.097 64.2035,632.068 20.7939,570.343 -12.7502,506.75 c -23.921,-50.135 -92.6468,-90.632 -72.435,-152.799 6.2611,-23.352 14.4646,-46.127 20.6126,-69.534 10.0657,-34.975 -3.3632,-73.605 15.3154,-106.072 C -24.7835,125.3 23.2661,85.5802 37.7634,27.9182 77.6324,-110.292 245.842,-124.232 366.32,-116.046 c 48.323,0.417 98.475,1.892 141.467,26.6537 32.517,16.9544 60.579,40.3067 90.214,61.3333 136.618,79.1216 228.936,168.014 171.126,336.413 z"
         fill="#ffffff"
         id="path828" />
      <path
         d="M 586.381,82.4813 C 527.336,43.6419 475.707,-9.40888 405.285,-27.4619 310.559,-49.4591 182.371,-43.2059 129.21,50.7773 92.6231,125.216 28.2309,188.954 23.4554,275.388 c -2.8736,31.527 -6.3975,62.952 -15.46783,93.509 -5.74733,22.028 14.81763,40.74 23.26143,59.64 43.1692,103.588 139.459,167.22 243.546,200.537 57.617,17.532 120.645,39.656 180.372,19.415 62.208,-23.142 97.061,-82.961 147.704,-122.457 27.628,-22.935 50.955,-49.388 69.007,-80.573 44.742,-65.021 9.079,-119.058 20.509,-188.367 C 704.957,181.074 646.674,119.533 586.392,82.4893 Z M 659.418,449.082 C 639.23,482.261 611.44,508.123 582.36,532.964 540.941,567.755 510.551,615.628 459.041,637.168 372.8,669.288 246.442,614.208 169.918,571.978 116.355,541.596 73.4982,497.099 47.9333,441.031 37.7632,415.01 9.52527,391.658 18.2421,361.99 27.5855,330.484 29.8409,297.834 33.3809,265.424 38.751,201.84 80.2736,151.874 111.997,99.3112 c 9.945,-17.4755 17.78,-36.1059 29.619,-52.5541 82.251,-111.5152 274.76,-90.9134 370.95,-7.9362 53.813,45.2689 129.337,75.9061 159.43,142.8911 12.394,26.653 15.019,52.931 11.519,79.281 -9.905,74.063 24.949,116.597 -24.098,188.086 z"
         fill="#ffffff"
         id="path830" />
      <path
         d="M 391.865,6.48967 C 306.642,-16.7656 205.383,6.52975 153.025,81.0493 119.616,130.511 78.1977,177.35 64.9046,237.006 c -5.9962,40.227 -12.0325,80.051 -22.4765,119.418 -9.5359,33.389 16.9128,58.744 34.1626,84.195 58.4043,111.948 188.8813,156.718 305.8293,179.325 95.818,16.818 144.87,-83.866 211.552,-132.991 32.22,-27.641 51.588,-61.789 55.578,-104.341 1.999,-60.315 30.503,-123.676 1.943,-181.328 C 621.031,136.431 462.122,23.8039 391.878,6.48763 Z M 653.596,272.513 C 640.392,344.124 650.94,429.609 587.704,479.742 518.407,530.878 472.589,630.656 373.071,608.684 273.472,585.966 161.951,552.048 102.339,463.299 84.5267,429.519 45.2023,400.844 51.7923,359.304 82.7287,210.921 66.2166,213.823 161.953,85.4204 212.242,16.2231 306.928,-5.07639 387.293,15.4946 466.92,37.5309 529.98,94.9835 593.624,144.806 c 37.245,31.152 66.848,77.591 59.979,127.701 z"
         fill="#ffffff"
         id="path832" />
      <path
         d="M 272.558,48.7027 C 223.771,74.4904 178.146,109.057 142.089,151.102 108.23,189.164 99.0405,236.709 96.5993,285.936 87.6895,342.603 107.452,395.358 128.21,447.04 c 19.979,69.799 98.425,91.57 159.381,113.84 122.523,40.073 192.663,-4.585 273.527,-93.597 C 637.945,391.36 639.036,265.472 586.7,175.853 519.868,78.2869 391.518,-3.67081 272.548,48.6986 Z M 537.947,478.962 C 450.935,578.884 358.537,587.101 240.727,534.69 198.9,517.383 152.4,494.849 137.646,448.491 104.27,375.142 96.0096,316.511 110.234,236.871 126.464,152.563 204.919,95.1106 276.47,56.936 c 92.943,-41.6776 191.241,4.6815 258.937,71.186 102.071,86.671 107.247,264.135 2.545,350.84 z"
         fill="#ffffff"
         id="path834" />
      <path
         d="m 318.094,132.575 c -30.525,15.472 -61.02,36.385 -83.497,63.024 -39.717,30.102 -50.513,56.17 -52.96,105.472 -6.173,39.36 14.673,74.176 37.269,104.589 44.053,60.178 124.603,91.978 195.464,61.965 46.708,-16.754 70.059,-62.006 98.281,-99.064 37.165,-45.669 5.25,-134.746 -27.788,-175.902 -41.443,-42.183 -105.57,-87.281 -166.767,-60.082 z m 186.465,105.8 c 15.701,40.483 31.923,94.11 -0.104,130.738 -23.118,30.126 -41.524,65.926 -76.313,84.668 -82.565,46.687 -177.933,-1.266 -221.497,-77.847 -23.278,-34.597 -20.966,-71.465 -14.055,-109.366 3.66,-34.543 30.343,-50.312 52.295,-73.261 29.749,-29.042 71.167,-63.73 114.737,-62.663 60.675,9.162 121.905,49.605 144.942,107.731 z"
         fill="#ffffff"
         id="path836" />
      <path
         d="m 297.669,179.878 c -41.628,25.122 -83.072,65.324 -85.648,116.06 -10.235,64.178 44.307,124.021 100.987,145.832 37.036,8.666 78.288,1.667 112.064,-14.341 29.964,-22.591 53.066,-51.161 71.327,-83.579 25.413,-41.949 -14.416,-89.342 -25.951,-127.933 -15.636,-37.107 -59.271,-49.812 -94.934,-59.425 -29.572,-8.753 -55.081,6.141 -77.845,23.385 z M 491.102,280.13 c 11.221,24.058 9.712,47.049 -4.351,69.038 -17.057,26.678 -36.595,51.439 -61.823,71.128 -62.675,34.101 -139.854,23.978 -180.453,-38.343 -17.338,-22.013 -31.892,-48.218 -27.268,-77.069 2.624,-18.574 2.504,-41.148 15.074,-56.018 16.712,-17.861 28.633,-40.404 50.955,-52.877 16.03,-8.962 29.498,-21.86 46.268,-29.629 37.375,-15.592 78.031,4.882 110.691,23.07 31.915,19.833 33.818,60.388 50.906,90.696 z"
         fill="#ffffff"
         id="path838" />
      <path
         d="m 251.803,250.041 c -6.534,5.708 -9.921,13.147 -10.676,21.772 -3.018,29.861 -17.707,62.31 6.205,87.49 23.158,24.747 47.519,54.518 80.574,65.446 28.608,3.88 57.874,-2.493 84.195,-18.157 30.438,-27.905 86.499,-68.011 66.495,-114.938 -8.453,-17.347 -6.847,-38.446 -18.944,-54.286 -4.021,-5.403 -7.81,-11.031 -11.093,-16.883 -13.943,-21.58 -43.073,-26.157 -65.163,-36.217 -38.899,-15.255 -73.15,10.895 -102.697,33.348 -11.583,9.163 -17.884,22.798 -28.896,32.427 z m 154.076,-48.482 c 35.013,6.829 53.54,41.636 60.821,73.831 1.926,9.523 6.838,18.437 8.99,27.936 6.028,37.436 -40.728,77.605 -67.939,98.231 -69.386,42.431 -110.564,6.053 -156.565,-47.136 -20.228,-25.892 -6.405,-54.559 -3.628,-83.025 0.891,-6.99 3.404,-13.01 8.718,-17.572 20.075,-24.008 42.647,-47.241 71.736,-60.161 25.791,-14.542 52.689,-4.658 77.87,7.896 z"
         fill="#ffffff"
         id="path840" />
      <path
         d="m 260.023,302.125 c -8.412,21.107 -5.611,36.018 11.495,51.426 20.011,14.101 34.466,37.99 56.117,48.298 37.629,8.096 77.5,-5.163 100.657,-35.61 16.543,-17.275 45.633,-39.832 31.698,-66.519 -8.845,-14.172 -7.625,-31.872 -15.724,-46.397 -4.054,-6.662 -9.167,-12.818 -12.322,-19.857 -7.641,-17.058 -27.989,-18.213 -42.984,-25.525 -49.806,-21.589 -88.65,20.041 -119.247,53.79 -0.811,0.898 -1.654,1.771 -2.649,2.461 -8.918,6.188 3.371,21.338 -7.04,37.932 z m 11.92,-37.476 c 1.027,-0.554 1.926,-1.315 2.737,-2.157 9.648,-10.068 17.443,-22.502 28.664,-31.456 38.474,-35.88 74.537,-28.402 117.61,-5.803 7.585,3.479 7.786,12.658 12.682,18.493 15.364,18.342 14.794,43.129 25.623,63.529 3.981,7.504 0.032,16.522 -4.712,24.169 -15.556,21.636 -35.046,40.571 -55.803,57.364 -26.738,11.52 -67.331,22.71 -88.601,-3.535 -18.807,-24.129 -64.497,-42.831 -48.066,-79.899 4.206,-9.395 7.152,-18.855 5.017,-29.525 -0.827,-4.088 0.161,-8.674 4.848,-11.183 z"
         fill="#ffffff"
         id="path842" />
      <path
         d="m 344.54,383.761 c 55.466,7.319 44.959,-23.937 84.21,-43.656 6.117,-2.806 15.637,-24.858 11.591,-31.624 -6.646,-11.656 -3.749,-25.693 -9.512,-37.645 -10.098,-17.804 -18.976,-41.885 -40.407,-46.695 -63.992,-12.778 -28.697,8.505 -74.192,20.024 -15.701,3.231 -26.778,12.353 -30.719,28.772 -3.339,19.432 -14.336,37.918 -4.07,57.516 8.653,17.5 43.474,50.157 63.1,53.31 z m -60.498,-89.727 c 4.608,-22.599 12.089,-45.3 37.566,-48.025 18.952,-0.097 22.46,-26.767 41.219,-21.283 17.354,3.206 40.424,0.986 48.779,20.593 7.529,13.355 18.285,25.172 19.465,41.085 5.386,20.585 11.88,44.996 -13.1,56.531 -15.716,6.052 -24.537,29.988 -38.874,34.671 -30.719,13.099 -58.78,-7.663 -78.945,-29.483 -18.165,-14.037 -22.739,-32.394 -16.11,-54.085 z"
         fill="#ffffff"
         id="path844" />
      <path
         d="m 399.9,282.384 c -11.984,-6.678 -29.05,-5.876 -38.828,-15.896 -5.955,-6.061 -8.901,-5.932 -17.386,-1.299 -18.542,4.225 -46.403,15.111 -41.202,35.704 -1.71,13.627 -4.672,13.844 8.741,21.059 10.041,5.002 11.96,14.518 16.937,22.863 5.265,7.84 15.219,6.63 23.678,8.209 28.553,5.756 48.931,-20.626 54.767,-42.301 4.72,-11.392 -2.97,-19.312 -6.71,-28.339 z m -30.109,66.103 c -9.584,5.499 -36.507,-2.101 -40.335,-10.526 -3.669,-8.345 -7.706,-15.944 -17.651,-20.297 -3.556,-1.555 -9.199,-5.483 -4.776,-11.76 0.698,-0.986 0.867,-2.654 0.433,-3.68 -5.458,-15.255 14.553,-28.946 30.727,-31.271 1.646,-0.232 3.805,0.008 4.864,-0.817 13.606,-11.175 17.459,8.585 40.93,10.389 15.419,2.076 21.656,18.862 17.258,31.85 -4.231,15.295 -15.131,27.688 -31.451,36.114 z"
         fill="#ffffff"
         id="path846" />
      <path
         d="m 362.767,326.382 c 5.788,-2.974 12.017,-4.136 17.748,-3.623 18.181,1.098 15.315,-33.725 2.697,-33.637 -13.228,-2.189 -25.75,-6.357 -40.938,-2.148 -18.526,5.13 -25.854,4.729 -15.676,31.849 1.404,3.752 1.356,10.55 6.164,9.724 10.13,-1.723 19.723,3.11 30.006,-2.164 z m -5.048,-2.789 c -17.692,9.892 -42.319,-13.363 -26.192,-29.147 15.227,-6.469 65.98,-11.985 55.996,15.287 0.762,10.597 -22.292,7.327 -29.804,13.86 z"
         fill="#ffffff"
         id="path848" />
      <path
         d="m 347.417,307.687 c -6.429,3.054 -1.894,10.229 3.974,10.173 7.834,-0.329 23.551,-13.243 18.863,-21.245 -7.931,-2.38 -16.752,6.445 -22.836,11.071 z"
         fill="#ffffff"
         id="path850" />
      <path
         d="m 324.485,365.107 c 3.355,2.292 7.208,5.355 11.599,5.884 0.465,0.176 2.464,0.785 3.042,0.881 18.253,2.966 40.592,-3.222 51.933,-18.421 7.04,-17.396 37.502,-17.267 32.478,-38.495 -2.93,-27.216 -2.031,-63.457 -36.386,-69.476 -0.835,-0.73 -2.039,-0.866 -3.107,-1.074 -9.102,-6.614 -28.487,-15.328 -31.826,1.707 -6.638,19.456 -38.137,8.57 -48.964,24.971 -25.156,37.436 -10.507,67.256 21.231,94.022 z m -18.253,-94.673 c 15.122,-11.247 38.408,-6.293 50.497,-22.045 4.487,-12.169 5.37,-11.134 17.137,-6.573 8.003,4.401 16.431,7.784 25.253,10.509 13.324,9.019 17.426,21.837 16.952,37.99 -3.138,14.125 13.686,35.103 -4.567,42.382 -18.647,5.643 -23.021,27.119 -40.833,32.882 -28.31,9.242 -39.965,4.777 -58.708,-17.404 -24.603,-19.84 -23.037,-54.302 -5.731,-77.742 z"
         fill="#ffffff"
         id="path852" />
      <path
         d="M 774.095,235.266 C 780.076,149.965 720.171,79.1733 651.476,36.0694 646.892,33.0954 641.932,30.0972 636.787,27.0352 620.596,-4.23587 591.9,-20.6943 560.482,-33.0546 485.39,-113.851 417.377,-111.542 305.491,-109.545 228.818,-109.625 143.925,-82.3704 91.8022,-21.6629 50.7845,28.9355 26.5347,90.6136 -10.741,144.058 c -39.5814,61.574 -35.2373,136.454 -55.3938,204.553 -8.7814,29.933 -11.4544,57.83 10.5073,82.608 14.7134,19.889 28.4644,40.483 43.0562,60.467 29.498,50.687 60.4673,100.684 111.0361,133.4 139.4282,95.481 346.7012,149.696 483.6192,21.484 29.94,-29.307 61.061,-56.9 95.713,-80.901 64.864,-43.801 87.501,-126.065 83.695,-201.601 2.682,-16.41 1.79,-32.418 -2.64,-48.185 3.186,-26.839 15.901,-52.885 15.243,-80.612 z M 635.591,39.7162 c 4.456,10.2448 9.055,20.8418 16.086,29.227 13.606,16.2411 24.065,33.8448 32.581,52.2028 C 650.079,85.8983 602.808,65.6331 566.245,32.7511 468.108,-76.4944 430.542,-64.1731 290.581,-63.4692 c -10.643,0.5291 -20.653,1.4509 -30.116,2.7335 32.163,-12.1688 65.146,-18.1891 99.276,-18.1971 58.837,0 122.186,17.0988 201.54,54.8403 7.577,7.7277 15.018,15.53558 22.54,23.08697 15.781,13.57163 32.966,25.42843 50.217,37.16283 0.522,1.1864 1.044,2.3727 1.557,3.5593 z M 750.442,344.382 c 1.276,11.447 1.894,23.095 1.854,34.774 -5.009,13.379 -12.089,25.933 -18.631,36.49 l -0.128,0.192 c -9.103,12.658 -18.687,25.219 -28.68,37.717 20.26,-60.843 -0.161,-125.728 17.265,-187.926 1.566,-4.713 2.842,-9.419 3.894,-14.108 6.381,20.954 13.79,41.708 23.631,61.284 -1.638,10.333 -1.935,20.794 0.794,31.576 z m -38.947,-79.53 c -19.264,61.805 5.21,126.473 -18.968,187.71 -4.591,16.474 -12.602,30.214 -22.651,42.318 -2.833,3.167 -5.675,6.333 -8.572,9.5 -26.617,27.174 -63.02,46.485 -90.449,72.893 -22.819,25.012 -59.031,55.841 -87.542,66.936 C 329.188,703.49 123.809,631.992 50.3879,483.979 34.1736,453.574 16.4822,423.936 -8.85876,399.719 -17.0142,391.935 -19.0128,383.309 -14.1084,373.192 20.0295,294.216 -4.74096,220.032 54.6422,143.308 82.8723,97.9751 103.133,59.345 126.259,28.6342 c 3.717,-3.3187 7.505,-6.5653 11.407,-9.6838 10.9,-10.15661 23.07,-18.012526 34.082,-26.56537 13.726,-10.66163 26.321,-21.58883 40.272,-29.78113 26.048,-9.4111 58.075,-14.75 99.333,-15.6479 88.272,0.2485 162.417,-6.6775 223.532,68.9243 17.876,18.1329 35.165,37.0439 57.263,50.383 40.8,22.1163 84.563,55.5047 108.332,96.7417 5.45,16.658 10.09,33.541 14.665,50.231 1.06,3.872 2.128,7.76 3.203,11.656 0.105,12.874 -2.023,26.22 -6.839,39.953 z m -153.018,339.43 c -0.297,0.24 -21.383,18.862 -31.008,24.915 -10.523,6.614 -30.782,21.01 -42.774,24.298 -3.46,0.946 -14.89,3.767 -15.236,3.912 2.882,-1.78 44.509,-22.511 89.018,-53.125 z m -121.094,65.277 c -45.296,13.844 -86.836,20.875 -124.04,20.875 -64.77,0 -115.082,-21.556 -149.534,-64.059 -3.901,-5.002 -8.076,-9.932 -12.498,-14.806 82.637,54.871 189.862,77.671 286.061,57.991 z M -5.11806,197.251 C -9.5971,174.862 -0.318008,156.473 19.7256,147.919 36.0524,131.654 51.223,113.079 65.897,95.1167 71.9012,87.7658 77.9615,80.3507 84.1662,73.0004 69.782,97.1853 55.0607,123.494 37.3537,151.038 c -24.258,37.998 -37.783311,79.723 -41.14512,124.678 -0.54581,34.046 -6.28508,67.667 -21.85788,98.328 -4.2542,10.229 -4.2222,19.664 4.1499,27.528 28.56708,26.822 47.4556,60.266 65.6928,94 8.2116,15.64 17.868,30.405 28.7275,44.265 C 38.9678,510.698 5.2943,480.349 -15.9204,445.934 -42.7614,402.397 -45.5725,358.14 -24.5093,310.618 -9.4025,276.87 3.39208,239.785 -5.1162,197.251 Z M 133.258,16.0587 c 14.256,-21.89259 31.779,-39.4572 78.592,-57.2516 -10.796,7.0544 -32.445,22.9351 -43.426,31.35932 -11.398,8.76176 -24.162,16.26514 -35.166,25.89228 z M 601.014,-4.19852 c 12.305,5.66748 19.907,14.91832 25.733,25.31562 -18.189,-10.7259 -37.333,-22.32561 -50.386,-35.9685 -0.907,-1.1062 -1.814,-2.1884 -2.721,-3.2707 8.918,4.3929 18.037,9.02626 27.371,13.92439 z M 81.3519,599.49 C 27.041,555.28 2.43163,487.862 -41.3869,434.706 -47.1823,426.561 -52.3919,417.992 -57.7217,409.534 -74.1288,377.1 -45.2318,321.845 -42.1254,285.554 -36.7153,230.73 -24.0568,176.452 8.13929,130.648 53.6367,64.6581 78.1331,-19.0645 152.946,-59.4759 c 51.588,-31.5358 112.632,-41.6611 172.29,-40.6021 58.291,1.8596 121.537,-2.95 174.288,25.6992 17.755,9.5554 33.207,22.4529 47.768,36.3933 -6.871,-2.461 -13.807,-4.8017 -20.709,-7.1266 -18.069,-6.0925 -36.748,-12.4013 -53.508,-20.569 -35.134,-15.215 -70.692,-22.9268 -105.691,-22.9268 -40.391,0 -80.887,10.0123 -122.387,30.3824 C 167.648,-43.4835 130.5,-1.56702 95.4702,54.4122 63.2824,85.9808 33.0857,119.279 5.06313,150.199 l -0.86691,0.954 -0.38529,0.425 -0.5057,0.273 c -18.29323,9.916 -16.44713,28.074 -13.88653,53.196 2.75313,26.99 6.17268,60.572 -15.813,95.812 -16.656,41.869 -21.3196,75.754 -14.6732,106.6 6.8068,31.585 25.4457,60.25 58.6693,90.2 33.4474,23.591 63.2845,54.454 92.1332,84.307 37.043,38.335 75.324,77.87 120.91,101.23 C 176.157,663.243 124.705,633.985 81.3527,599.49 Z M 668.044,561.188 c -21.753,16.153 -45.127,30.366 -63.677,50.413 -93.682,110.859 -235.799,118.891 -363.243,75.321 26.087,5.227 52.761,7.905 79.37,7.905 58.821,0 117.507,-13.075 169.706,-37.806 53.314,-25.26 99.952,-62.831 134.932,-108.66 27.46,-19.576 54.471,-39.449 69.386,-70.439 18.454,-19.969 35.736,-41.156 48.281,-63.344 3.412,-6.037 6.382,-12.009 8.926,-17.917 -4.021,64.018 -29.274,127.108 -83.689,164.527 z m 92.976,-296.58 c -2.103,11.479 -5.643,22.734 -8.436,34.029 -1.06,-2.349 -2.192,-4.698 -3.412,-7.047 -9.616,-15.439 -16.246,-32.009 -21.441,-48.954 5.33,-34.077 -2.897,-67.242 -24.161,-97.511 -0.578,-0.882 -1.18,-1.74 -1.766,-2.606 -3.797,-11.094 -8.34,-21.925 -14.087,-32.225 -5.563,-9.13 -11.752,-18.1969 -17.748,-26.9675 -8.733,-12.7861 -17.683,-25.9333 -25.051,-39.7691 32.229,22.0055 63.685,44.7395 85.535,78.6396 30.55,43.336 39.468,90.96 30.567,142.41 z"
         fill="#ffffff"
         id="path854" />
      <path
         d="m 589.689,327.101 c -4.374,-7.672 -7.344,-15.712 -9.495,-23.912 -0.659,-18.093 -3.653,-36.266 -8.702,-53.685 -1.862,-10.421 -4.503,-20.707 -9.15,-30.35 -4.76,-8.369 -9.392,-17.179 -14.288,-26.502 C 523.596,146.109 498.295,97.9877 448.126,86.7417 394.434,76.0318 365.497,73.7474 348.022,76.6411 c -34.82,0.3127 -69.385,11.744 -100.424,38.3739 -22.395,16.529 -47.039,34.478 -66.84,55.698 -7.658,6.966 -14.103,15.095 -19.265,24.402 -10.812,16.778 -17.964,35.513 -18.959,56.868 -0.803,4.513 -1.501,8.962 -2.135,13.371 -0.354,1.267 -0.715,2.541 -1.068,3.808 -11.35,40.29 -22.065,78.352 -0.995,118.569 5.442,10.99 14.914,24.466 26.923,38.798 15.893,26.438 38.192,48.058 66.237,64.765 30.365,24.617 62.072,43.969 85.96,47.809 75.197,9.908 107.554,-5.251 133.014,-29.773 32.71,-20.361 60.395,-51.881 84.82,-82.384 6.726,-4.329 14.063,-8.538 22.123,-12.586 9.375,-4.297 23.261,-27.729 30.398,-51.2 5.016,-16.529 5.699,-29.66 1.878,-36.056 z m -21.866,31.72 c -7.69,24.891 -21.463,46.952 -38.063,67.168 -0.433,0.208 -0.858,0.417 -1.3,0.625 -22.226,8.554 -39.742,30.054 -56.678,50.847 -6.903,8.473 -13.654,16.738 -20.596,24.08 -62.506,40.851 -153.427,24.458 -219.442,-19.023 -14.328,-11.904 -28.785,-25.707 -43.354,-41.443 -4.905,-3.792 -9.472,-7.712 -13.726,-11.752 -3.757,-5.171 -7.193,-10.462 -10.243,-15.873 -29.409,-50.543 -21.143,-107.954 -14.866,-163.228 15.003,-53.902 41.026,-98.992 101.604,-105.477 7.345,-0.04 13.839,-1.547 19.755,-4.024 -7.81,5.371 -15.412,11.014 -22.814,16.593 -68.791,59.097 -80.79,76.549 -81.85,167.757 9.102,111.267 142.285,210.102 249.71,159.259 50.779,-18.806 82.646,-65.614 110.009,-109.664 34.226,-48.683 14.995,-113.928 -7.642,-163.749 -25.774,-55.168 -83.071,-86.263 -140.727,-99.058 -32.292,-8.313 -61.606,1.531 -88.481,17.219 6.052,-5.195 14.087,-11.343 19.553,-17.243 11.149,-12.0248 20.067,-24.1216 35.19,-28.4824 8.348,-0.5451 16.728,-0.481 25.051,0.2004 0.402,0.1122 0.795,0.2004 1.204,0.3206 6.904,1.2666 14.176,2.2285 21.745,3.1263 23.8,5.2507 46.509,15.5671 66.149,30.6701 53.853,33.019 93.666,82.928 108.869,140.502 0.152,1.363 0.329,2.717 0.433,4.104 l 0.12,0.457 c 1.004,3.832 2.023,7.728 3.035,11.664 4.824,27.015 4.31,55.441 -2.649,84.42 z M 303.543,128.034 c 60.531,-30.2228 132.091,3.278 179.265,44.146 42.23,43.512 76.087,139.347 39.203,197.105 -84.973,162.963 -257.642,162.194 -340.351,-1.379 -15.573,-32.65 -7.096,-70.568 -4.03,-105.174 5.996,-55.265 80.79,-107.794 125.91,-134.698 z m 207.771,15.992 c 3.821,6.766 7.995,13.468 12.201,20.065 -28.882,-31.936 -65.773,-58.776 -105.369,-73.9995 37.526,4.8419 76.064,14.0045 93.169,53.9335 z M 286.611,97.4992 c 13.253,-5.964 27.114,-10.0363 41.203,-12.321 -4.022,3.3428 -7.176,7.3589 -10.644,11.776 -11.615,14.8298 -26.079,33.2838 -80.599,47.0788 -11.117,2.285 -21.198,5.596 -30.31,9.852 24.803,-21.829 53.925,-39.896 80.351,-56.3874 z M 137.029,301.401 c -1.597,39.802 4.463,74.632 17.515,104.364 C 134.445,376.144 128.56,341.234 137.029,301.401 Z M 416.824,525.95 c -18.39,7.84 -37.173,11.752 -56.286,11.752 -29.627,0 -60.065,-9.419 -91.161,-28.184 28.672,11.038 61.55,18.277 98.226,21.628 21.432,1.675 41.13,-2.157 59.368,-9.716 -3.275,1.827 -6.639,3.374 -10.146,4.521 z m 60.05,-45.909 c 11.583,-13.475 24.473,-27.776 41.981,-41.444 -13.244,14.606 -27.694,28.29 -41.981,41.444 z m 63.862,-59.979 c 4.238,-5.363 8.388,-10.67 12.449,-15.84 16.849,-24.089 25.286,-53.028 26.874,-82.97 4.768,38.134 -0.802,75.217 -39.324,98.808 z"
         fill="#ffffff"
         id="path856" />
    </g>
  </g>
  <g
     id="g1140"
     transform="translate(0.608078,-37.011879)">
    <rect
       x="254.17577"
       y="164.18053"
       width="514.43231"
       height="245.6627"
       rx="28.482645"
       fill="#ffffff"
       id="rect860"
       style="stroke-width:1.21615" />
    <path
       d="m 454.80801,296.72285 c 0.53024,-1.4752 0.18486,-2.73756 -0.11918,-3.85156 -0.29674,-1.08359 -0.55213,-2.01881 -0.0973,-3.12672 2.66337,-7.06585 3.18875,-12.74285 1.64423,-17.83001 0.045,-0.0669 0.0863,-0.13378 0.12405,-0.20066 0.97536,-1.6941 0.21769,-3.38456 -1.8072,-7.90256 -0.21648,-0.48403 -0.44876,-1.00211 -0.69564,-1.55667 -0.23107,-0.51809 -0.48524,-1.069 -0.80023,-1.7318 -0.29552,-0.79902 -0.67983,-1.58952 -1.17237,-2.41285 -0.57645,-1.17237 -1.16994,-2.38123 -1.71599,-3.58522 l -0.0742,-0.16174 c -0.92428,-2.03828 -1.79869,-3.96344 -3.62414,-4.34896 -0.0559,-0.011 -0.20309,-0.0705 -0.58253,-0.26999 -0.6397,-1.08602 -1.41439,-2.15989 -2.65608,-2.80566 -0.55821,-0.30404 -1.11886,-0.56065 -1.66248,-0.80874 -1.53721,-0.70294 -2.9893,-1.36574 -4.07168,-2.99539 -0.63361,-1.21372 -1.60653,-2.03219 -2.54905,-2.82147 -0.87563,-0.73455 -1.70261,-1.42898 -2.15989,-2.39217 -1.35479,-2.63054 -3.04524,-3.30793 -4.83663,-4.02546 -0.82455,-0.3308 -1.67708,-0.67253 -2.56487,-1.23075 -1.33533,-0.84522 -2.64634,-1.7695 -3.91357,-2.66459 -2.14286,-1.51167 -4.35991,-3.07321 -6.77397,-4.31734 -4.07654,-2.47365 -7.84905,-2.4469 -11.49629,-2.42379 -3.05983,0.0231 -5.95184,0.0401 -9.07249,-1.29642 -2.78012,-1.51775 -5.55903,-0.61415 -8.24429,0.25904 -2.52352,0.82091 -4.90839,1.59681 -7.36624,0.57403 l -0.0328,-0.0134 c -1.32439,-0.45849 -2.69256,-0.93279 -4.18478,-0.76739 -2.605,0.28215 -5.19905,1.13588 -7.70919,1.96287 -0.48524,0.16053 -0.96927,0.31985 -1.45087,0.4743 -5.20999,0.97778 -10.60606,2.29244 -14.79449,5.24283 -4.12154,2.90539 -6.98558,7.25678 -9.00925,13.6963 l -0.0182,0.073 c -0.40863,2.22921 -1.69654,4.45112 -2.94066,6.60006 -1.32925,2.29366 -2.70229,4.66394 -3.06835,7.123 l -0.004,0.0377 c -0.13621,1.59073 -1.22345,3.17416 -2.27664,4.70651 -0.77104,1.12372 -1.56883,2.28515 -1.98719,3.45752 l -0.0559,0.15567 0.0316,0.16175 c 0.39282,2.05164 -0.3989,3.78709 -1.23683,5.6247 -0.85252,1.86801 -1.73301,3.79926 -1.47519,6.20237 0.0353,1.19791 -0.44998,2.2961 -0.96441,3.45752 -0.71266,1.6114 -1.44844,3.2751 -0.89509,5.35837 0.21891,2.24623 -0.60321,4.49368 -1.39736,6.66938 -1.34263,3.67278 -2.73026,7.47203 0.58984,11.47439 1.24169,1.49708 2.34109,3.22037 3.40522,4.88772 1.28183,2.00786 2.60622,4.08505 4.21275,5.82901 l 0.0499,0.0487 c 1.59559,1.3779 2.54297,3.11821 3.45752,4.80137 1.06291,1.95435 2.16353,3.9756 4.26747,5.37539 2.5223,1.61383 5.49093,4.49854 6.45291,7.3188 0.57524,2.56851 2.09786,3.49036 3.57183,4.3818 0.54484,0.32836 1.10792,0.6701 1.626,1.08724 0.67983,0.58253 1.28547,1.25871 1.87409,1.91179 0.47552,0.52902 0.96806,1.07751 1.50073,1.581 1.74032,1.84611 3.66792,2.14042 5.53228,2.425 0.97778,0.14959 1.98841,0.30404 2.9589,0.69078 l 0.0645,0.0219 c 2.63054,0.71753 5.42526,1.4156 8.04485,1.66004 1.81206,0.4439 3.60345,1.18454 5.33769,1.89963 2.82512,1.16629 5.74267,2.37272 8.89372,2.3715 0.045,0 0.0912,0 0.13621,-10e-4 1.42168,0.27729 2.73755,0.17148 4.01087,0.0681 1.17115,-0.0949 2.27785,-0.18364 3.4259,0.017 2.71445,0.6482 5.67456,0.90481 8.53738,1.15169 0.42322,0.0365 0.8428,0.073 1.25872,0.10945 l 0.34539,0.0316 0.20188,-0.28214 c 0.64942,-0.90968 1.61505,-1.30615 2.87377,-1.18089 l 0.0341,0.002 c 2.24137,0.10337 4.2395,-0.98874 6.17562,-2.04314 1.51897,-0.82698 2.95403,-1.60897 4.43287,-1.83152 2.56487,-0.2554 4.01087,-1.98112 5.2854,-3.50374 1.09818,-1.31223 2.13556,-2.55148 3.79926,-2.91511 1.2502,-0.30283 1.89841,-1.43628 2.58554,-2.63662 0.75644,-1.32318 1.61505,-2.82269 3.45144,-3.61684 l 0.0365,-0.0182 c 2.35082,-1.2125 3.17416,-2.26204 3.83696,-3.10605 0.84766,-1.08116 1.4083,-1.79626 5.30972,-2.3642 l 0.17634,-0.0268 0.13378,-0.11553 c 1.39492,-1.20642 2.28028,-2.62811 3.13645,-4.00236 0.89874,-1.44235 1.7464,-2.80323 3.14376,-3.92574 l 0.0401,-0.0341 c 2.26812,-2.17326 3.60467,-4.8342 3.97195,-7.91228 0.25418,-2.27056 1.10792,-4.27113 2.01152,-6.39088 0.41349,-0.97049 0.84158,-1.9726 1.20885,-3.00633 0.97414,-2.30339 -0.0997,-3.50373 -0.88414,-4.37936 -0.70415,-0.78321 -1.05684,-1.23561 -0.75888,-2.15016 z m -7.21178,21.1282 c -2.87985,5.9932 -6.53317,8.03026 -10.76294,10.38716 -2.44812,1.36452 -4.97893,2.77526 -7.62528,5.07378 l -0.0632,0.062 c -9.83015,11.46588 -19.91935,15.04015 -31.01917,15.04015 -8.1166,-10e-4 -16.77439,-1.91301 -26.26037,-4.04735 -0.1958,-0.045 -1.45209,-0.48525 -1.54695,-0.50957 -14.09033,-3.5159 -18.9367,-10.21568 -26.93047,-21.26928 -0.43659,-0.60443 -0.88292,-1.2198 -1.34749,-1.8595 -1.4156,-1.8522 -3.21429,-3.82845 -5.11757,-5.91901 -3.20334,-3.51955 -6.51493,-7.15827 -8.21024,-10.47107 -2.85188,-5.06406 -2.24502,-7.17651 -0.44025,-13.45429 0.68956,-2.39582 1.54451,-5.37053 2.43474,-9.30478 0.7382,-1.48006 1.03129,-3.06957 0.87198,-4.7284 l -0.004,-0.0316 c -0.72848,-4.84515 2.06016,-9.48842 4.75759,-13.97845 1.37911,-2.29731 2.80566,-4.67245 3.72629,-7.02571 0.84887,-2.06503 1.58586,-4.31977 2.38973,-7.31394 5.18446,-19.80746 25.66081,-23.48024 41.9159,-23.0777 2.52595,0.13013 5.07743,0.13621 7.54501,0.14108 7.12908,0.0158 13.8617,0.0304 20.53959,2.77039 l 0.0389,0.0134 c 4.50098,1.491 8.73927,5.09811 12.83892,8.58603 2.72175,2.31799 5.53714,4.71259 8.42307,6.48209 3.51711,2.07111 6.43344,4.11789 8.90831,6.25224 0.28823,1.08845 1.85585,2.87863 2.41407,3.31523 1.09332,1.19669 2.11975,2.4773 3.05375,3.80777 1.94098,2.76675 3.95006,5.62835 4.77583,9.45923 0.30039,1.39128 1.36574,3.09389 1.35236,6.62438 0.15202,5.6843 -1.04346,10.6389 -2.88228,16.28428 -0.55943,1.68558 -0.18972,3.38698 0.29796,4.985 2.70229,8.34402 1.35114,16.28671 -4.01573,23.61038 z"
       fill="#6a9745"
       id="path862"
       style="stroke-width:1.21615" />
    <path
       d="m 429.37949,243.20973 c -14.92462,-10.19501 -19.11426,-15.90119 -38.46932,-15.18731 -16.05442,-0.96927 -37.85516,1.55667 -43.19042,19.56302 -0.93036,3.15227 -1.99084,6.25589 -4.096,8.83413 -3.75548,5.5189 -9.6526,11.71641 -9.63436,18.64118 0.77104,7.05246 -2.50162,13.3424 -3.8625,20.06164 -0.99359,7.86485 8.96548,14.47464 11.79789,21.64751 4.69678,8.81345 11.48778,16.76222 20.77188,20.91295 15.38189,7.3565 32.72179,12.36583 49.33564,5.16864 4.80015,-2.14894 9.93231,-5.7001 13.64766,-9.60274 2.0261,-2.07718 4.04735,-4.14586 6.63897,-5.55173 2.54419,-1.37912 5.2027,-2.55149 7.65203,-4.09965 10.24,-6.12697 11.31508,-19.46937 8.64927,-30.02436 -1.536,-5.57849 2.0857,-10.752 2.24623,-16.32441 2.19881,-15.35635 -8.84507,-27.21018 -21.48819,-34.03887 z m 17.91635,43.6258 c -1.52992,5.62349 1.55546,11.19711 1.17967,16.90086 0.12161,5.9178 -2.81296,11.12293 -6.20359,15.88052 -0.40255,0.56429 -2.70959,2.5527 -3.46968,3.03916 -5.22581,2.92728 -10.66079,5.32675 -14.59383,10.00407 -9.08101,9.41301 -22.40882,13.40807 -35.24895,11.87451 -9.85934,-1.114 -19.1252,-5.00447 -27.92893,-9.37897 -8.82197,-4.59584 -14.67774,-12.93256 -19.20182,-21.52224 -3.22767,-6.77154 -12.49718,-12.24179 -9.77178,-20.6381 0.84522,-3.1547 1.95192,-6.23035 2.78134,-9.39234 1.35722,-4.72354 -0.45363,-9.94083 2.06502,-14.32627 3.30185,-7.16435 9.78273,-12.53002 11.7383,-20.31825 5.37782,-18.66672 28.06757,-20.55054 44.31901,-19.44506 6.51858,0.0572 13.28281,0.25661 19.08264,3.60103 4.38545,2.29001 8.17133,5.44349 12.16882,8.28321 18.42835,10.68754 30.88053,22.6934 23.08256,45.43909 z"
       fill="#6a9745"
       id="path864"
       style="stroke-width:1.21615" />
    <path
       d="m 422.64444,256.32836 c -7.96458,-5.24527 -14.92948,-12.41083 -24.42763,-14.84922 -12.77811,-2.97106 -30.06936,-2.12705 -37.23979,10.56715 -4.93514,10.05392 -13.6209,18.66306 -14.26546,30.33812 -0.38674,4.25775 -0.86225,8.50212 -2.0857,12.62974 -0.77591,2.97471 1.99813,5.50309 3.13767,8.05579 5.82293,13.99062 18.81144,22.58516 32.8507,27.08614 7.77242,2.36785 16.27454,5.35593 24.33033,2.62202 8.39145,-3.12551 13.0931,-11.20562 19.92422,-16.53966 3.72629,-3.09876 6.87369,-6.6706 9.30843,-10.88335 6.03455,-8.78183 1.22466,-16.08118 2.76553,-25.4419 1.69653,-10.26797 -6.16589,-18.58037 -14.29708,-23.58362 z m 9.85205,49.51563 c -2.72297,4.48152 -6.47236,7.97552 -10.39445,11.32967 -5.58701,4.69921 -9.68665,11.16549 -16.63453,14.07452 -11.63249,4.33924 -28.67687,-3.09997 -38.99956,-8.80494 -7.22516,-4.10329 -13.00553,-10.11352 -16.45454,-17.68649 -1.37182,-3.51468 -5.18081,-6.66817 -4.00479,-10.67539 1.25994,-4.25531 1.56519,-8.66508 2.04192,-13.04323 0.72483,-8.58846 6.32521,-15.33689 10.60485,-22.43678 1.34141,-2.35934 2.39825,-4.87677 3.99506,-7.09747 11.09495,-15.06204 37.06223,-12.27948 50.03735,-1.07264 7.258,6.11481 17.4457,10.25216 21.50522,19.30033 1.67099,3.59981 2.02611,7.14976 1.55303,10.70822 -1.33534,10.00406 3.3663,15.74795 -3.24956,25.4042 z"
       fill="#6a9745"
       id="path866"
       style="stroke-width:1.21615" />
    <path
       d="m 396.40596,246.06403 c -11.49507,-3.1401 -25.15367,0.006 -32.21708,10.07096 -4.50585,6.68032 -10.09285,13.00674 -11.88546,21.06497 -0.80874,5.43376 -1.62356,10.81159 -3.03186,16.12982 -1.28669,4.50949 2.2815,7.93418 4.608,11.37102 7.87823,15.12042 25.47717,21.16834 41.25309,24.22089 12.92405,2.27177 19.54113,-11.32724 28.53579,-17.96257 4.34653,-3.73359 6.95882,-8.34523 7.49636,-14.09277 0.26999,-8.147 4.11424,-16.70506 0.26269,-24.49087 -4.10938,-8.75994 -25.54406,-23.97279 -35.0191,-26.31145 z m 35.30489,35.93121 c -1.78166,9.67206 -0.35876,21.21943 -8.88764,27.98974 -9.34734,6.90775 -15.52782,20.38393 -28.95171,17.41652 -13.43483,-3.06836 -28.47863,-7.6496 -36.51861,-19.63721 -2.40312,-4.56179 -7.70797,-8.43523 -6.81897,-14.04656 4.17384,-20.04096 1.94585,-19.64936 14.86016,-36.99169 6.78248,-9.34735 19.55451,-12.22355 30.39529,-9.44585 10.74106,2.97714 19.24682,10.7374 27.83164,17.46637 5.02392,4.20789 9.01777,10.47958 8.09106,17.24868 z"
       fill="#6a9745"
       id="path868"
       style="stroke-width:1.21615" />
    <path
       d="m 380.31262,251.76657 c -6.5806,3.48306 -12.73433,8.15187 -17.59893,13.83008 -4.56666,5.14068 -5.80591,11.56317 -6.13549,18.21188 -1.20156,7.65446 1.46425,14.77989 4.26383,21.76061 2.69499,9.42639 13.27673,12.36705 21.49913,15.37581 16.52629,5.41187 25.98795,-0.61903 36.89562,-12.6419 10.36283,-10.2546 10.50999,-27.25884 3.45023,-39.3632 -9.01412,-13.17822 -26.32726,-24.24764 -42.37561,-17.1745 z m 35.79865,58.11382 c -11.73708,13.49564 -24.20021,14.60599 -40.09167,7.52677 -5.64172,-2.33745 -11.91464,-5.38147 -13.90426,-11.64222 -4.5022,-9.90799 -5.61619,-17.82636 -3.69832,-28.58322 2.18907,-11.38684 12.77203,-19.1471 22.42341,-24.30359 12.53731,-5.62956 25.79702,0.6324 34.92789,9.6149 13.76805,11.70668 14.46612,35.67582 0.34295,47.38736 z"
       fill="#6a9745"
       id="path870"
       style="stroke-width:1.21615" />
    <path
       d="m 386.4554,263.09503 c -4.11789,2.08935 -8.23091,4.91447 -11.26278,8.51184 -5.35715,4.0656 -6.8141,7.58758 -7.14368,14.24601 -0.83306,5.3158 1.97868,10.01866 5.02758,14.12682 5.94212,8.12754 16.80722,12.42299 26.36496,8.36956 6.30088,-2.26326 9.45071,-8.37564 13.25727,-13.38011 5.01298,-6.16953 0.7078,-18.19971 -3.74818,-23.75874 -5.59065,-5.69767 -14.23993,-11.78938 -22.49517,-8.11538 z m 25.15246,14.28978 c 2.11732,5.46782 4.30518,12.71122 -0.0146,17.65853 -3.11822,4.06924 -5.60038,8.90466 -10.29351,11.43548 -11.13752,6.30575 -24.00076,-0.17026 -29.87721,-10.51485 -3.1401,-4.67246 -2.82877,-9.6526 -1.89598,-14.77139 0.49376,-4.66515 4.09235,-6.79585 7.05368,-9.89461 4.0133,-3.9233 9.6003,-8.60792 15.47675,-8.46442 8.1847,1.23805 16.44359,6.69979 19.55086,14.55126 z"
       fill="#6a9745"
       id="path872"
       style="stroke-width:1.21615" />
    <path
       d="m 383.6996,269.48347 c -5.61497,3.39307 -11.2044,8.82319 -11.55222,15.6762 -1.38034,8.66873 5.97617,16.75128 13.62212,19.6968 4.99595,1.17115 10.55984,0.22499 15.11555,-1.93733 4.04249,-3.05011 7.15827,-6.91018 9.62219,-11.28832 3.42712,-5.66605 -1.94462,-12.06666 -3.5013,-17.27909 -2.10881,-5.01176 -7.99498,-6.72897 -12.80486,-8.0266 -3.98898,-1.1821 -7.43069,0.82941 -10.50148,3.15834 z m 26.09255,13.54064 c 1.5141,3.24956 1.30979,6.35561 -0.58741,9.32545 -2.29974,3.60346 -4.93636,6.94788 -8.33915,9.60639 -8.45347,4.60678 -18.86373,3.23861 -24.34007,-5.17838 -2.33866,-2.97349 -4.30274,-6.51249 -3.67886,-10.41026 0.3539,-2.5077 0.33809,-5.55781 2.03341,-7.56568 2.25475,-2.41285 3.8625,-5.45687 6.87369,-7.14246 2.16232,-1.21007 3.97925,-2.9516 6.24129,-4.00114 5.04095,-2.10638 10.52458,0.65915 14.9307,3.11578 4.30518,2.67918 4.56179,8.15673 6.8664,12.2503 z"
       fill="#6a9745"
       id="path874"
       style="stroke-width:1.21615" />
    <path
       d="m 377.51304,278.96095 c -0.88049,0.76982 -1.33777,1.77558 -1.43992,2.94065 -0.40742,4.03276 -2.38853,8.41577 0.83671,11.81613 3.12429,3.34321 6.41034,7.3638 10.86875,8.84021 3.85885,0.52416 7.80648,-0.33687 11.35764,-2.45298 4.10573,-3.76885 11.66776,-9.18559 8.96912,-15.52418 -1.14075,-2.3423 -0.92306,-5.19296 -2.55513,-7.33218 -0.54241,-0.72969 -1.05319,-1.48978 -1.49709,-2.28028 -1.88017,-2.91512 -5.80955,-3.53292 -8.78913,-4.89136 -5.24769,-2.06017 -9.86664,1.47154 -13.85318,4.50341 -1.56154,1.23804 -2.41163,3.07929 -3.89777,4.38058 z m 20.78404,-6.54898 c 4.72232,0.92306 7.22151,5.62348 8.20294,9.97244 0.26026,1.28669 0.92306,2.49068 1.21372,3.77251 0.81239,5.05676 -5.49457,10.48201 -9.16492,13.26822 -9.35951,5.73172 -14.91367,0.81725 -21.11848,-6.36656 -2.72904,-3.49644 -0.86347,-7.36867 -0.48889,-11.21414 0.11918,-0.94373 0.45849,-1.75734 1.1748,-2.37271 2.70837,-3.24348 5.75362,-6.38115 9.67692,-8.12633 3.47941,-1.96408 7.10719,-0.62875 10.50391,1.06657 z"
       fill="#6a9745"
       id="path876"
       style="stroke-width:1.21615" />
    <path
       d="m 378.62217,285.99517 c -1.13467,2.85066 -0.75645,4.86461 1.55059,6.94544 2.69864,1.90571 4.64935,5.13216 7.56933,6.52466 5.07622,1.09332 10.45405,-0.69807 13.57712,-4.80988 2.23164,-2.3338 6.15617,-5.38026 4.276,-8.98493 -1.19305,-1.91423 -1.02887,-4.30518 -2.12097,-6.26683 -0.54606,-0.89996 -1.23683,-1.73181 -1.66127,-2.68162 -1.03129,-2.30461 -3.77615,-2.46028 -5.79861,-3.44779 -6.71802,-2.91633 -11.95842,2.70715 -16.08483,7.26529 -0.10945,0.12162 -0.22377,0.23958 -0.35755,0.33201 -1.20277,0.8355 0.45485,2.88228 -0.94981,5.12365 z m 1.60775,-5.06163 c 0.13864,-0.0754 0.26026,-0.17755 0.36971,-0.29187 1.30129,-1.35966 2.35204,-3.03917 3.86615,-4.24802 5.18932,-4.84637 10.05393,-3.83574 15.8647,-0.78442 1.02279,0.47065 1.04954,1.70991 1.70991,2.49798 2.07233,2.4773 1.99571,5.82537 3.45631,8.58117 0.53754,1.01305 0.005,2.23163 -0.63605,3.26415 -2.09786,2.92241 -4.72718,5.47998 -7.52677,7.7481 -3.60589,1.55546 -9.08222,3.06714 -11.95112,-0.47795 -2.53689,-3.25807 -8.70035,-5.78401 -6.48331,-10.79091 0.56673,-1.26967 0.96441,-2.54662 0.67618,-3.98776 -0.11067,-0.55214 0.0219,-1.17238 0.65429,-1.51047 z"
       fill="#6a9745"
       id="path878"
       style="stroke-width:1.21615" />
    <path
       d="m 390.02238,297.02202 c 7.48177,0.98751 6.06495,-3.23375 11.35886,-5.89712 0.82577,-0.37823 2.11002,-3.3578 1.56397,-4.27113 -0.8963,-1.57491 -0.50592,-3.4709 -1.28304,-5.08473 -1.36209,-2.40433 -2.56,-5.65754 -5.45079,-6.30696 -8.63103,-1.72572 -3.87102,1.14926 -10.00772,2.70472 -2.11732,0.4366 -3.61197,1.66856 -4.14343,3.8856 -0.44997,2.62446 -1.93368,5.12244 -0.54848,7.76878 1.16629,2.3642 5.86307,6.77519 8.51063,7.20084 z M 381.862,284.90185 c 0.62145,-3.05133 1.63086,-6.11846 5.0677,-6.48574 2.55636,-0.0134 3.02944,-3.61562 5.56025,-2.87498 2.33988,0.43295 5.45201,0.13256 6.57938,2.78134 1.01549,1.80355 2.46636,3.40036 2.62568,5.5493 0.72604,2.78012 1.60167,6.07711 -1.76707,7.635 -2.11976,0.81847 -3.31037,4.051 -5.24405,4.6834 -4.14343,1.7695 -7.9281,-1.03494 -10.64863,-3.98168 -2.45054,-1.89598 -3.06713,-4.37572 -2.17326,-7.30543 z"
       fill="#6a9745"
       id="path880"
       style="stroke-width:1.21615" />
    <path
       d="m 397.48955,283.32936 c -1.61626,-0.90238 -3.91844,-0.79414 -5.23675,-2.14772 -0.80388,-0.81847 -1.20034,-0.80144 -2.34596,-0.17513 -2.5004,0.57038 -6.25831,2.04071 -5.55659,4.82205 -0.23107,1.84125 -0.63119,1.87044 1.17845,2.84458 1.35479,0.67618 1.61383,1.96043 2.28515,3.08781 0.71023,1.05926 2.05286,0.8963 3.19361,1.10913 3.85156,0.77712 6.60006,-2.78621 7.38691,-5.71349 0.63726,-1.53843 -0.40011,-2.60864 -0.90482,-3.82723 z m -4.06073,8.92778 c -1.29277,0.74306 -4.9242,-0.28337 -5.44106,-1.42169 -0.49498,-1.12737 -1.03981,-2.1538 -2.38123,-2.7412 -0.47916,-0.2104 -1.24047,-0.74064 -0.64334,-1.5883 0.0936,-0.13377 0.11675,-0.35876 0.0584,-0.4974 -0.73699,-2.06016 1.96287,-3.90993 4.14465,-4.2237 0.22134,-0.0316 0.51321,10e-4 0.6555,-0.11067 1.83518,-1.50924 2.35569,1.16021 5.52133,1.40344 2.07962,0.28093 2.9212,2.54784 2.32772,4.30153 -0.57038,2.06624 -2.0407,3.73967 -4.24194,4.87799 z"
       fill="#6a9745"
       id="path882"
       style="stroke-width:1.21615" />
    <path
       d="m 392.48144,289.27148 c 0.78077,-0.40133 1.62113,-0.55821 2.39339,-0.48889 2.45297,0.14837 2.06624,-4.55571 0.36362,-4.54354 -1.78409,-0.29553 -3.47333,-0.85861 -5.52133,-0.29066 -2.49919,0.6932 -3.48792,0.63969 -2.11488,4.30274 0.18972,0.50592 0.18364,1.42411 0.83184,1.31345 1.36574,-0.23351 2.65973,0.41957 4.04736,-0.2931 z m -0.68105,-0.377 c -2.38609,1.33655 -5.70861,-1.80477 -3.53292,-3.93669 2.05408,-0.8732 8.8998,-1.6187 7.55352,2.06503 0.10216,1.43141 -3.00754,0.98995 -4.0206,1.87166 z"
       fill="#6a9745"
       id="path884"
       style="stroke-width:1.21615" />
    <path
       d="m 390.41033,286.74675 c -0.86712,0.41228 -0.25539,1.38155 0.53632,1.37425 1.05684,-0.045 3.17659,-1.78896 2.54419,-2.87012 -1.06899,-0.32106 -2.25961,0.87077 -3.08051,1.49587 z"
       fill="#6a9745"
       id="path886"
       style="stroke-width:1.21615" />
    <path
       d="m 387.31766,294.50215 c 0.45241,0.31012 0.9717,0.72361 1.56397,0.79415 0.0632,0.0243 0.33322,0.10702 0.41106,0.11918 2.46149,0.40133 5.47511,-0.43538 7.00503,-2.48824 0.94982,-2.34961 5.05798,-2.33137 4.38058,-5.19905 -0.39525,-3.67522 -0.27363,-8.57023 -4.90839,-9.38383 -0.11188,-0.0985 -0.27485,-0.11675 -0.41835,-0.14473 -1.22832,-0.89387 -3.84304,-2.0711 -4.29302,0.22986 -0.89509,2.6281 -5.14432,1.15777 -6.60492,3.3736 -3.39307,5.05555 -1.41682,9.08344 2.86404,12.69906 z m -2.46271,-12.78784 c 2.0407,-1.51897 5.18081,-0.84887 6.81167,-2.97714 0.60564,-1.64302 0.72482,-1.50316 2.3119,-0.88779 1.07994,0.5947 2.21583,1.05197 3.40644,1.41925 1.79748,1.21859 2.35082,2.95039 2.28637,5.13216 -0.42322,1.90693 1.84612,4.74056 -0.61537,5.72321 -2.51622,0.76253 -3.10606,3.66305 -5.50796,4.44139 -3.81871,1.24899 -5.3912,0.64578 -7.91958,-2.3496 -3.31888,-2.6804 -3.10727,-7.33462 -0.77347,-10.50148 z"
       fill="#6a9745"
       id="path888"
       style="stroke-width:1.21615" />
    <path
       d="m 447.96472,276.96524 c 0.80631,-11.52182 -7.2738,-21.08321 -16.53966,-26.90493 -0.61902,-0.40255 -1.28791,-0.80753 -1.98111,-1.22102 -2.18421,-4.22369 -6.05523,-6.44682 -10.29351,-8.11538 -10.12812,-10.91375 -19.30277,-10.6012 -34.39522,-10.33243 -10.34215,-0.0109 -21.79344,3.67035 -28.82401,11.87086 -5.5335,6.83356 -8.80373,15.1642 -13.83252,22.38328 -5.3389,8.31605 -4.75272,18.43078 -7.47203,27.62854 -1.18454,4.04249 -1.54452,7.81135 1.41803,11.15698 1.98476,2.68648 3.83939,5.46904 5.80712,8.16768 3.97925,6.84572 8.15674,13.59901 14.97813,18.01851 18.80779,12.89607 46.76591,20.21852 65.2344,2.90173 4.03884,-3.95857 8.23699,-7.68608 12.91067,-10.92712 8.75021,-5.91658 11.80275,-17.02735 11.28953,-27.22965 0.36242,-2.21704 0.24202,-4.37936 -0.35633,-6.50884 0.43052,-3.62535 2.14529,-7.14246 2.05651,-10.88821 z M 429.2822,250.55285 c 0.60078,1.38277 1.22101,2.81418 2.16961,3.94763 1.83518,2.19272 3.24591,4.5703 4.39518,7.05003 -4.61044,-4.76002 -10.98672,-7.49757 -15.91943,-11.93896 -13.2366,-14.75557 -18.30431,-13.09188 -37.18385,-12.9958 -1.43506,0.0705 -2.78499,0.1958 -4.06195,0.36849 4.33802,-1.64302 8.78792,-2.45662 13.39105,-2.45784 7.93661,0 16.48129,2.30947 27.18586,7.40758 1.02157,1.04346 2.02611,2.09786 3.04038,3.11822 2.12827,1.83274 4.44625,3.43441 6.77397,5.01905 0.0705,0.16054 0.13986,0.32107 0.20918,0.4816 z m 15.49256,41.14972 c 0.17148,1.54695 0.25539,3.11943 0.24931,4.69678 -0.67497,1.8072 -1.63086,3.50252 -2.51257,4.92906 l -0.017,0.0255 c -1.22831,1.70991 -2.52108,3.40644 -3.86858,5.09446 2.7327,-8.21754 -0.0219,-16.98234 2.32893,-25.38231 0.2104,-0.63726 0.38309,-1.27209 0.52417,-1.90571 0.86103,2.82999 1.86071,5.63322 3.18753,8.27714 -0.22012,1.39614 -0.26026,2.80931 0.10824,4.26504 z m -5.25378,-10.74227 c -2.59892,8.34888 0.70294,17.08329 -2.55878,25.35434 -0.61902,2.22434 -1.70018,4.08019 -3.05498,5.71591 -0.38308,0.42687 -0.76617,0.85496 -1.15656,1.28304 -3.59008,3.67035 -8.5009,6.27778 -12.20043,9.84475 -3.07808,3.37847 -7.96337,7.54258 -11.80884,9.04088 -20.79012,8.00714 -48.49284,-1.65032 -58.39719,-21.64143 -2.18664,-4.10694 -4.57273,-8.1093 -7.99133,-11.38075 -1.0994,-1.05197 -1.36939,-2.21704 -0.7078,-3.58278 4.60435,-10.66687 1.26358,-20.68675 9.27316,-31.04958 3.80777,-6.12333 6.54168,-11.34062 9.66111,-15.48891 0.50105,-0.44876 1.01184,-0.88658 1.53843,-1.30858 1.47033,-1.37182 3.11213,-2.43231 4.59706,-3.58765 1.85098,-1.43992 3.54994,-2.91633 5.43255,-4.02303 3.51346,-1.27088 7.83323,-1.99206 13.39834,-2.11246 11.90735,0.0328 21.90898,-0.90238 30.15206,9.30843 2.41163,2.44933 4.74421,5.00325 7.725,6.80559 5.50309,2.98687 11.40629,7.49636 14.61206,13.06633 0.73578,2.24989 1.36088,4.53017 1.97868,6.78492 0.14229,0.52294 0.28701,1.04832 0.43174,1.5737 0.0134,1.73909 -0.27242,3.54265 -0.92306,5.39728 z m -20.64053,45.8465 c -0.0401,0.0328 -2.88471,2.54784 -4.18235,3.36509 -1.42046,0.89387 -4.15316,2.8385 -5.77064,3.28239 -0.46578,0.1277 -2.00787,0.50836 -2.05408,0.52781 0.38795,-0.24079 6.00293,-3.04038 12.00707,-7.17529 z m -16.33414,8.8171 c -6.10995,1.86923 -11.71397,2.81904 -16.73182,2.81904 -8.73683,0 -15.52296,-2.91147 -20.17109,-8.65171 -0.52538,-0.67618 -1.08846,-1.34141 -1.68559,-2.00057 11.14725,7.41123 25.61094,10.49175 38.58729,7.83324 z m -59.68874,-63.79325 c -0.60443,-3.02457 0.64699,-5.50796 3.35172,-6.6633 2.20123,-2.19759 4.24802,-4.70651 6.22791,-7.13273 0.80996,-0.99238 1.62721,-1.99449 2.46393,-2.98687 -1.93977,3.26658 -3.92574,6.82018 -6.31427,10.54039 -3.27266,5.13216 -5.09689,10.76781 -5.55051,16.84006 -0.073,4.59827 -0.84766,9.13938 -2.94796,13.28037 -0.57402,1.38277 -0.56916,2.65608 0.55943,3.719 3.85399,3.62291 6.40183,8.1397 8.86089,12.69662 1.10791,2.11124 2.41041,4.10573 3.87587,5.97861 -4.58002,-3.93669 -9.12235,-8.03512 -11.98396,-12.68325 -3.62048,-5.88131 -3.99992,-11.8587 -1.15899,-18.27755 2.03827,-4.55814 3.76399,-9.56747 2.61594,-15.31135 z m 18.6655,-24.47385 c 1.92274,-2.95646 4.28694,-5.32917 10.6012,-7.73229 -1.45573,0.95225 -4.37693,3.09754 -5.8582,4.23586 -1.53722,1.18331 -3.25808,2.19637 -4.743,3.49643 z m 63.09518,-2.73634 c 1.66005,0.76618 2.68527,2.01517 3.4709,3.41982 -2.45298,-1.44844 -5.03608,-3.01606 -6.79585,-4.85853 -0.12284,-0.14958 -0.24567,-0.29552 -0.36728,-0.44146 1.20277,0.59348 2.4323,1.21859 3.69223,1.88017 z m -70.09656,81.53934 c -7.3261,-5.9713 -10.6462,-15.07785 -16.5567,-22.25679 -0.78077,-1.10062 -1.4837,-2.2584 -2.20245,-3.40036 -2.2134,-4.38058 1.68437,-11.84411 2.10273,-16.7452 0.72969,-7.40515 2.43838,-14.73611 6.78126,-20.92268 6.1367,-8.91318 9.44099,-20.22218 19.53262,-25.68027 6.9576,-4.25896 15.19217,-5.62713 23.23945,-5.48362 7.86242,0.25052 16.39373,-0.3989 23.50943,3.47089 2.3946,1.29034 4.47909,3.03309 6.44317,4.91569 -0.9267,-0.33201 -1.86192,-0.64821 -2.7935,-0.96319 -2.43716,-0.82212 -4.95582,-1.67464 -7.21664,-2.77769 -4.73935,-2.0553 -9.53585,-3.09633 -14.25695,-3.09633 -5.44836,0 -10.91132,1.35236 -16.50927,4.1033 -10.43336,1.99084 -15.44391,7.65324 -20.16866,15.21406 -4.34166,4.26383 -8.41577,8.76116 -12.19557,12.93743 l -0.11675,0.12891 -0.0523,0.0572 -0.0681,0.0365 c -2.46757,1.3402 -2.21826,3.79196 -1.87288,7.18503 0.37093,3.64602 0.83307,8.18227 -2.13313,12.94107 -2.24623,5.65511 -2.87498,10.2327 -1.97868,14.39924 0.9182,4.26505 3.43198,8.13727 7.9135,12.1822 4.51193,3.18631 8.53618,7.35528 12.42786,11.38804 4.99717,5.17716 10.15974,10.51729 16.30982,13.67198 -7.35043,-2.69499 -14.29101,-6.64627 -20.13826,-11.30535 z m 79.13744,-5.17351 c -2.93336,2.18178 -6.08684,4.10087 -8.58847,6.80924 -12.63703,14.97326 -31.80724,16.05807 -48.99754,10.17311 3.51832,0.70659 7.11692,1.06778 10.70578,1.06778 7.93418,0 15.85011,-1.76585 22.89163,-5.10662 7.19111,-3.41131 13.48226,-8.48631 18.20093,-14.67652 3.7044,-2.64392 7.34799,-5.32796 9.35951,-9.51396 2.48946,-2.69621 4.81961,-5.55903 6.51249,-8.55563 0.45971,-0.81482 0.86104,-1.62235 1.20399,-2.42014 -0.5424,8.64684 -3.94884,17.16842 -11.28832,22.22274 z m 12.54217,-40.05883 c -0.28336,1.5506 -0.76131,3.07079 -1.13831,4.59706 -0.14229,-0.31742 -0.29553,-0.63483 -0.45971,-0.95225 -1.29763,-2.0857 -2.19151,-4.32342 -2.89201,-6.61222 0.71875,-4.60192 -0.3916,-9.08222 -3.25929,-13.17092 -0.0778,-0.11919 -0.15931,-0.23472 -0.23836,-0.35147 -0.512,-1.4983 -1.12494,-2.96133 -1.90085,-4.35261 -0.75036,-1.23318 -1.58464,-2.45784 -2.39338,-3.64237 -1.17846,-1.72694 -2.38488,-3.50252 -3.37969,-5.37175 4.34774,2.97228 8.5909,6.04306 11.53885,10.62187 4.12032,5.85334 5.3231,12.28557 4.12275,19.23466 z"
       fill="#6a9745"
       id="path890"
       style="stroke-width:1.21615" />
    <path
       d="m 423.09077,289.36877 c -0.58984,-1.03616 -0.99117,-2.12218 -1.28061,-3.2301 -0.0888,-2.44324 -0.49376,-4.89866 -1.1748,-7.25069 -0.25053,-1.40831 -0.60686,-2.79715 -1.23318,-4.09965 -0.64213,-1.12981 -1.26723,-2.32042 -1.9276,-3.57914 -3.29942,-6.28629 -6.71195,-12.78662 -13.47983,-14.30559 -7.24219,-1.44601 -11.14482,-1.75491 -13.50294,-1.36331 -4.69678,0.0413 -9.35829,1.58586 -13.5455,5.18202 -3.02092,2.23286 -6.34466,4.65787 -9.01655,7.52312 -1.03251,0.9413 -1.90206,2.03949 -2.5977,3.29577 -1.45938,2.26691 -2.42379,4.79772 -2.55757,7.68122 -0.10823,0.60929 -0.20309,1.21129 -0.28822,1.80598 -0.0474,0.17148 -0.0961,0.34296 -0.14351,0.51444 -1.53114,5.44228 -2.97714,10.58295 -0.13499,16.0155 0.73455,1.48371 2.01151,3.30429 3.63143,5.2404 2.14407,3.57062 5.15162,6.4906 8.93506,8.74657 4.096,3.32496 8.37321,5.93968 11.5948,6.45776 10.14392,1.33899 14.50748,-0.70901 17.94189,-4.0206 4.4122,-2.75093 8.147,-7.00746 11.44156,-11.12779 0.90725,-0.58497 1.89719,-1.15291 2.98443,-1.70018 1.2648,-0.5801 3.13768,-3.74574 4.09965,-6.91504 0.6774,-2.23285 0.76861,-4.006 0.25418,-4.87069 z m -2.94917,4.28451 c -1.03738,3.36144 -2.89566,6.34101 -5.13459,9.07249 -0.0584,0.028 -0.11554,0.0559 -0.17513,0.0839 -2.99903,1.15534 -5.3608,4.05951 -7.64595,6.86761 -0.93157,1.1444 -1.84125,2.26082 -2.77769,3.25199 -8.43158,5.51768 -20.69526,3.30428 -29.60114,-2.56852 -1.93246,-1.60775 -3.88196,-3.47211 -5.84726,-5.59794 -0.66158,-0.512 -1.27817,-1.04103 -1.8522,-1.58708 -0.50592,-0.69807 -0.96927,-1.41317 -1.38155,-2.14408 -3.96708,-6.82626 -2.85187,-14.58166 -2.00421,-22.0464 2.02367,-7.2811 5.53349,-13.37159 13.70481,-14.24722 0.99117,-0.005 1.8668,-0.20918 2.66459,-0.54362 -1.05319,0.72604 -2.0784,1.48857 -3.07686,2.24137 -9.27924,7.98282 -10.89794,10.33972 -11.04145,22.65934 1.22832,15.02799 19.19331,28.37769 33.68376,21.51008 6.84937,-2.54054 11.14725,-8.8621 14.83828,-14.81151 4.61651,-6.57574 2.02246,-15.38798 -1.03009,-22.11816 -3.47697,-7.45136 -11.20562,-11.65074 -18.98291,-13.37889 -4.35626,-1.12251 -8.30997,0.20675 -11.93532,2.32528 0.81604,-0.70172 1.90085,-1.53235 2.63784,-2.32893 1.50438,-1.62356 2.70715,-3.25807 4.74664,-3.84669 1.12615,-0.0742 2.25596,-0.0657 3.37968,0.0268 0.0535,0.0158 0.10703,0.0267 0.16175,0.0438 0.93157,0.17026 1.91179,0.30039 2.93336,0.42201 3.21064,0.70901 6.27291,2.10272 8.92291,4.14221 7.26407,4.45963 12.6346,11.20076 14.68503,18.97805 0.0207,0.18364 0.0438,0.36606 0.0584,0.55335 l 0.0158,0.062 c 0.13621,0.51808 0.27363,1.04346 0.40984,1.57614 0.65064,3.64845 0.58132,7.48784 -0.35755,11.40142 z m -35.64906,-31.17241 c 8.16524,-4.08141 17.81784,0.44268 24.18075,5.96279 5.69645,5.87767 10.2631,18.82117 5.28782,26.62279 -11.46223,22.01113 -34.75275,21.90654 -45.90973,-0.18607 -2.1003,-4.40977 -0.95711,-9.5322 -0.54362,-14.20588 0.80995,-7.46474 10.89793,-14.55977 16.98478,-18.19363 z m 28.02622,2.15989 c 0.51565,0.91454 1.07873,1.81936 1.64545,2.7108 -3.89533,-4.31369 -8.87183,-7.93904 -14.21317,-9.99555 5.06163,0.65429 10.26068,1.89233 12.56772,7.28475 z M 382.2086,258.3569 c 1.78775,-0.80509 3.65697,-1.35601 5.55782,-1.6637 -0.54241,0.4512 -0.96806,0.9936 -1.43628,1.59073 -1.5664,2.003 -3.51711,4.4949 -10.87118,6.35804 -1.49952,0.3089 -2.85917,0.75645 -4.0887,1.33047 3.34563,-2.94795 7.2738,-5.38877 10.83834,-7.61554 z m -20.17718,27.54098 c -0.21525,5.37539 0.602,10.07946 2.36299,14.0952 -2.71081,-3.99993 -3.50495,-8.71495 -2.36299,-14.0952 z m 37.74085,30.3284 c -2.47973,1.05926 -5.0142,1.58829 -7.59122,1.58829 -3.99749,0 -8.10201,-1.27331 -12.29773,-3.80777 3.86858,1.491 8.30267,2.46879 13.24998,2.9212 2.89079,0.2262 5.54808,-0.29067 8.00836,-1.31223 -0.44147,0.24688 -0.89509,0.45605 -1.36817,0.61051 z m 8.10079,-6.19995 c 1.56275,-1.82058 3.30063,-3.75183 5.6624,-5.59795 -1.78653,1.9726 -3.7348,3.82115 -5.6624,5.59795 z m 8.614,-8.102 c 0.57159,-0.72361 1.13102,-1.44114 1.67951,-2.13921 2.27299,-3.25321 3.41009,-7.16192 3.62535,-11.20684 0.64213,5.15162 -0.10824,10.15973 -5.30486,13.34605 z"
       fill="#6a9745"
       id="path892"
       style="stroke-width:1.21615" />
    <path
       d="m 511.67771,278.06099 c -2.54419,-4.51922 -5.29756,-8.98128 -8.2601,-13.3874 -2.96133,-4.4049 -6.1136,-8.56414 -9.45558,-12.47529 v 25.86269 h -8.77332 v -39.47751 h 7.23488 c 1.25386,1.25386 2.63905,2.79107 4.15924,4.61408 1.51898,1.82302 3.05619,3.77859 4.61408,5.86794 1.59438,2.05043 3.17051,4.19572 4.72719,6.43709 1.55789,2.20245 3.0197,4.3295 4.38666,6.37993 v -23.29904 h 8.82926 v 39.47751 z m 16.56886,0 v -39.47751 h 26.66048 v 7.46231 h -17.77406 v 7.74811 h 15.77957 v 7.29083 h -15.77957 v 9.51395 h 19.08386 v 7.46231 z m 49.98384,0.7978 c -2.77161,0 -5.16499,-0.38066 -7.17773,-1.13954 -2.01273,-0.79779 -3.68372,-1.88017 -5.01297,-3.24712 -1.29034,-1.40587 -2.25961,-3.05741 -2.90417,-4.95582 -0.60808,-1.93733 -0.91212,-4.06438 -0.91212,-6.37993 v -24.5529 h 8.88642 v 23.81226 c 0,1.59437 0.17148,2.96133 0.51322,4.10086 0.37944,1.10184 0.8732,2.01274 1.48127,2.73391 0.64578,0.6847 1.40466,1.17724 2.27786,1.48128 0.91211,0.30403 1.89963,0.45605 2.96254,0.45605 2.16475,0 3.91115,-0.66402 5.2404,-1.99327 1.36817,-1.32925 2.05165,-3.58886 2.05165,-6.77883 v -23.81226 h 8.88642 v 24.5529 c 0,2.31555 -0.32349,4.4426 -0.96927,6.37993 -0.64456,1.93611 -1.63208,3.60711 -2.96133,5.01298 -1.32926,1.36695 -3.01971,2.42987 -5.07014,3.18996 -2.05043,0.75888 -4.48152,1.13954 -7.29205,1.13954 z m 36.40308,-40.73136 c 5.92388,0 10.46256,1.06413 13.61482,3.19118 3.15227,2.08813 4.7284,5.35472 4.7284,9.79732 0,2.77283 -0.64577,5.03244 -1.93733,6.77883 -1.25263,1.70869 -3.07565,3.05741 -5.46903,4.04492 0.79779,0.98752 1.63329,2.12705 2.50649,3.41739 0.87441,1.25385 1.72815,2.58311 2.56364,3.98776 0.8732,1.36696 1.7087,2.81053 2.50649,4.3295 0.7978,1.48128 1.53844,2.94309 2.22191,4.38666 h -9.96879 c -0.72118,-1.29155 -1.46182,-2.60135 -2.22191,-3.9306 -0.72118,-1.32925 -1.48128,-2.62081 -2.27907,-3.87344 -0.75888,-1.25386 -1.51898,-2.43109 -2.27786,-3.53293 -0.76009,-1.13831 -1.51897,-2.16353 -2.27906,-3.07564 h -4.38667 v 14.41261 h -8.88642 v -38.90713 c 1.93733,-0.38066 3.93061,-0.64578 5.98225,-0.7978 2.08814,-0.15202 3.94885,-0.22863 5.58214,-0.22863 z m 0.51322,7.57662 c -0.64578,0 -1.2344,0.0195 -1.76707,0.0572 -0.49254,0.0377 -0.96806,0.0766 -1.42412,0.11432 v 10.70944 h 2.50649 c 3.34199,0 5.73538,-0.41836 7.17773,-1.25386 1.44358,-0.83549 2.16475,-2.25961 2.16475,-4.27234 0,-1.93611 -0.74063,-3.30307 -2.22069,-4.10086 -1.44357,-0.8355 -3.58886,-1.25386 -6.43709,-1.25386 z m 32.37883,12.58961 c 0,1.93733 0.22864,3.68372 0.68348,5.2404 0.49375,1.55789 1.17723,2.90538 2.05164,4.04492 0.9109,1.10183 2.01274,1.95557 3.30307,2.56365 1.29156,0.60807 2.77283,0.9109 4.44382,0.9109 1.63329,0 3.09511,-0.30283 4.38666,-0.9109 1.32926,-0.60808 2.42987,-1.46182 3.30429,-2.56365 0.9109,-1.13954 1.59437,-2.48703 2.05043,-4.04492 0.49376,-1.55668 0.74064,-3.30307 0.74064,-5.2404 0,-1.93733 -0.24688,-3.68373 -0.74064,-5.2404 -0.45606,-1.59559 -1.13953,-2.94309 -2.05043,-4.04492 -0.87442,-1.13954 -1.97503,-2.01273 -3.30429,-2.62081 -1.29155,-0.60686 -2.75337,-0.9109 -4.38666,-0.9109 -1.67099,0 -3.15226,0.32228 -4.44382,0.96806 -1.29033,0.60808 -2.39217,1.48127 -3.30307,2.62081 -0.87441,1.10061 -1.55789,2.44933 -2.05164,4.04492 -0.45484,1.55667 -0.68348,3.28483 -0.68348,5.18324 z m 30.13503,0 c 0,3.37969 -0.51322,6.36169 -1.53843,8.94358 -0.98752,2.54419 -2.35447,4.6907 -4.10087,6.43709 -1.74761,1.7087 -3.83574,3.00025 -6.26683,3.87345 -2.39217,0.87319 -4.97406,1.31101 -7.74689,1.31101 -2.69621,0 -5.2404,-0.43782 -7.63378,-1.31101 -2.39217,-0.8732 -4.48031,-2.16475 -6.26562,-3.87345 -1.78531,-1.74639 -3.18997,-3.8929 -4.21518,-6.43709 -1.02522,-2.58189 -1.53843,-5.56389 -1.53843,-8.94358 0,-3.37969 0.53145,-6.34223 1.59559,-8.88642 1.06291,-2.58311 2.48703,-4.74665 4.27234,-6.49426 1.82301,-1.74639 3.91114,-3.0574 6.26561,-3.9306 2.39218,-0.8732 4.89867,-1.30979 7.51947,-1.30979 2.69621,0 5.2404,0.43659 7.63379,1.30979 2.39217,0.8732 4.4803,2.18421 6.26561,3.9306 1.78532,1.74761 3.18997,3.91115 4.21519,6.49426 1.02521,2.54419 1.53843,5.50673 1.53843,8.88642 z M 518.8822,299.95781 c 0.45605,1.55789 0.94981,3.32374 1.48127,5.29877 0.56916,1.93612 1.15778,3.94885 1.76585,6.0382 0.64578,2.08813 1.29156,4.17748 1.93612,6.26561 0.64577,2.08935 1.27331,4.02547 1.88017,5.81078 0.49375,-1.93733 0.98751,-4.04492 1.48127,-6.32278 0.53146,-2.27906 1.02522,-4.63354 1.48127,-7.06462 0.45606,-2.42987 0.89266,-4.8415 1.3098,-7.23367 0.45606,-2.43109 0.8732,-4.7661 1.25385,-7.00747 h 9.22816 c -1.32925,6.60857 -2.86768,13.31078 -4.61408,20.10907 -1.70869,6.79829 -3.57062,13.25363 -5.58335,19.36844 h -8.14579 c -1.32925,-3.64603 -2.61959,-7.46231 -3.87344,-11.45007 -1.25264,-4.02547 -2.48703,-8.05093 -3.70318,-12.07639 -1.21494,4.02546 -2.42988,8.05092 -3.64481,12.07639 -1.21615,3.98776 -2.48825,7.80404 -3.8175,11.45007 h -8.14579 c -2.01273,-6.11481 -3.8929,-12.57015 -5.6393,-19.36844 -1.70869,-6.79829 -3.22766,-13.5005 -4.55692,-20.10907 h 9.62706 c 0.37944,2.24137 0.79658,4.57638 1.25264,7.00747 0.45606,2.39217 0.93035,4.8038 1.42411,7.23367 0.49376,2.43108 0.98752,4.78556 1.48128,7.06462 0.53145,2.27786 1.06291,4.38545 1.59559,6.32278 0.68347,-1.86071 1.34749,-3.83575 1.99327,-5.92509 0.64578,-2.08814 1.27209,-4.17749 1.88017,-6.26562 0.60686,-2.08813 1.15778,-4.10208 1.65154,-6.03819 0.53145,-1.93733 1.00697,-3.66549 1.42411,-5.18446 z m 34.43412,15.49499 c 0,1.93733 0.22742,3.68373 0.68348,5.2404 0.49376,1.55789 1.17724,2.90539 2.05043,4.04492 0.91212,1.10184 2.01274,1.95558 3.30429,2.56365 1.29155,0.60808 2.77283,0.9109 4.44382,0.9109 1.63207,0 3.0951,-0.30282 4.38544,-0.9109 1.32926,-0.60807 2.43109,-1.46181 3.30429,-2.56365 0.91211,-1.13953 1.59559,-2.48703 2.05043,-4.04492 0.49376,-1.55667 0.74064,-3.30307 0.74064,-5.2404 0,-1.93733 -0.24688,-3.68372 -0.74064,-5.2404 -0.45484,-1.59559 -1.13832,-2.94308 -2.05043,-4.04492 -0.8732,-1.13953 -1.97503,-2.01273 -3.30429,-2.62081 -1.29034,-0.60686 -2.75337,-0.91089 -4.38544,-0.91089 -1.67099,0 -3.15227,0.32228 -4.44382,0.96805 -1.29155,0.60808 -2.39217,1.48128 -3.30429,2.62081 -0.87319,1.10062 -1.55667,2.44933 -2.05043,4.04492 -0.45606,1.55668 -0.68348,3.28483 -0.68348,5.18324 z m 30.13503,0 c 0,3.37969 -0.51321,6.36169 -1.53843,8.94358 -0.98751,2.54419 -2.35447,4.6907 -4.10208,6.4371 -1.74639,1.70869 -3.83453,3.00024 -6.26561,3.87344 -2.39217,0.8732 -4.97528,1.31101 -7.74689,1.31101 -2.69621,0 -5.24162,-0.43781 -7.63379,-1.31101 -2.39217,-0.8732 -4.48152,-2.16475 -6.26561,-3.87344 -1.78531,-1.7464 -3.18997,-3.89291 -4.2164,-6.4371 -1.02522,-2.58189 -1.53722,-5.56389 -1.53722,-8.94358 0,-3.37968 0.53146,-6.34223 1.59438,-8.88642 1.06413,-2.58311 2.48824,-4.74664 4.27234,-6.49425 1.82301,-1.7464 3.91236,-3.05741 6.26683,-3.9306 2.39217,-0.8732 4.89866,-1.3098 7.51947,-1.3098 2.69621,0 5.2404,0.4366 7.63257,1.3098 2.39339,0.87319 4.48152,2.1842 6.26683,3.9306 1.78409,1.74761 3.18997,3.91114 4.21518,6.49425 1.02522,2.54419 1.53843,5.50674 1.53843,8.88642 z m 14.86989,0 c 0,1.93733 0.22743,3.68373 0.68348,5.2404 0.49376,1.55789 1.17724,2.90539 2.05043,4.04492 0.91212,1.10184 2.01274,1.95558 3.30429,2.56365 1.29155,0.60808 2.77283,0.9109 4.44382,0.9109 1.63207,0 3.09511,-0.30282 4.38544,-0.9109 1.32926,-0.60807 2.43109,-1.46181 3.30429,-2.56365 0.91211,-1.13953 1.59559,-2.48703 2.05043,-4.04492 0.49376,-1.55667 0.74064,-3.30307 0.74064,-5.2404 0,-1.93733 -0.24688,-3.68372 -0.74064,-5.2404 -0.45484,-1.59559 -1.13832,-2.94308 -2.05043,-4.04492 -0.8732,-1.13953 -1.97503,-2.01273 -3.30429,-2.62081 -1.29033,-0.60686 -2.75337,-0.91089 -4.38544,-0.91089 -1.67099,0 -3.15227,0.32228 -4.44382,0.96805 -1.29155,0.60808 -2.39217,1.48128 -3.30429,2.62081 -0.87319,1.10062 -1.55667,2.44933 -2.05043,4.04492 -0.45605,1.55668 -0.68348,3.28483 -0.68348,5.18324 z m 30.13504,0 c 0,3.37969 -0.51322,6.36169 -1.53844,8.94358 -0.98751,2.54419 -2.35447,4.6907 -4.10208,6.4371 -1.74639,1.70869 -3.83574,3.00024 -6.26561,3.87344 -2.39217,0.8732 -4.97528,1.31101 -7.74689,1.31101 -2.69743,0 -5.24162,-0.43781 -7.63379,-1.31101 -2.39217,-0.8732 -4.48152,-2.16475 -6.26683,-3.87344 -1.78409,-1.7464 -3.18997,-3.89291 -4.21518,-6.4371 -1.02522,-2.58189 -1.53722,-5.56389 -1.53722,-8.94358 0,-3.37968 0.53146,-6.34223 1.59438,-8.88642 1.06291,-2.58311 2.48703,-4.74664 4.27234,-6.49425 1.82301,-1.7464 3.91236,-3.05741 6.26683,-3.9306 2.39217,-0.8732 4.89866,-1.3098 7.51947,-1.3098 2.69621,0 5.2404,0.4366 7.63257,1.3098 2.39339,0.87319 4.48152,2.1842 6.26683,3.9306 1.7841,1.74761 3.18997,3.91114 4.21518,6.49425 1.02522,2.54419 1.53844,5.50674 1.53844,8.88642 z m 16.294,12.53245 c 0.41714,0.0377 0.89266,0.0754 1.42411,0.11432 0.56916,0 1.2344,0 1.99328,0 4.44382,0 7.72864,-1.12129 9.85569,-3.36145 2.16475,-2.24015 3.24713,-5.33526 3.24713,-9.28532 0,-4.13978 -1.02643,-7.27259 -3.07687,-9.39964 -2.05043,-2.12583 -5.29755,-3.18996 -9.74137,-3.18996 -0.60686,0 -1.23318,0.0195 -1.87896,0.0572 -0.64578,0 -1.25385,0.0377 -1.82301,0.11431 z m 25.69121,-12.53245 c 0,3.41739 -0.53146,6.39939 -1.59559,8.94358 -1.06292,2.54419 -2.58189,4.65179 -4.55692,6.32278 -1.93612,1.67099 -4.31004,2.92484 -7.12057,3.76034 -2.81053,0.8355 -5.9628,1.25264 -9.45558,1.25264 -1.5956,0 -3.45631,-0.0754 -5.58336,-0.22742 -2.12705,-0.11432 -4.21518,-0.37944 -6.26561,-0.7978 v -38.45108 c 2.05043,-0.37944 4.17748,-0.62631 6.37993,-0.74063 2.24015,-0.15202 4.15802,-0.22864 5.75362,-0.22864 3.37968,0 6.43709,0.38066 9.171,1.13953 2.77282,0.7601 5.14554,1.95558 7.12057,3.58887 1.97503,1.63329 3.494,3.72264 4.55692,6.26683 1.06413,2.54419 1.59559,5.6016 1.59559,9.171 z"
       fill="#1c2629"
       id="path894"
       style="stroke-width:1.21615" />
  </g>
  <defs
     id="defs901">
    <clipPath
       id="clip0_26_423">
      <rect
         width="473"
         height="842"
         fill="#ffffff"
         transform="rotate(-90,236.5,236.5)"
         id="rect898"
         x="0"
         y="0" />
    </clipPath>
  </defs>
</svg>
