<?xml version="1.0" encoding="UTF-8" standalone="no"?>
<svg
   width="1024"
   height="1024"
   viewBox="0 0 1024 1024"
   fill="none"
   version="1.1"
   id="svg858"
   sodipodi:docname="icon_wo_bg.svg"
   inkscape:version="1.1.2 (b8e25be8, 2022-02-05)"
   xmlns:inkscape="http://www.inkscape.org/namespaces/inkscape"
   xmlns:sodipodi="http://sodipodi.sourceforge.net/DTD/sodipodi-0.dtd"
   xmlns="http://www.w3.org/2000/svg"
   xmlns:svg="http://www.w3.org/2000/svg">
  <defs
     id="defs862" />
  <sodipodi:namedview
     id="namedview860"
     pagecolor="#ffffff"
     bordercolor="#666666"
     borderopacity="1.0"
     inkscape:pageshadow="2"
     inkscape:pageopacity="0.0"
     inkscape:pagecheckerboard="0"
     showgrid="false"
     inkscape:zoom="0.54003906"
     inkscape:cx="512"
     inkscape:cy="512"
     inkscape:window-width="1440"
     inkscape:window-height="775"
     inkscape:window-x="0"
     inkscape:window-y="25"
     inkscape:window-maximized="1"
     inkscape:current-layer="svg858" />
  <path
     d="M878.974 569.638C881.987 561.255 880.021 554.078 878.289 547.743C876.607 541.588 875.152 536.27 877.741 529.974C892.903 489.805 895.892 457.533 887.097 428.61C887.356 428.229 887.59 427.847 887.806 427.471C893.359 417.838 889.044 408.23 877.519 382.544C876.286 379.793 874.961 376.851 873.556 373.693C872.243 370.751 870.795 367.618 869.001 363.851C867.319 359.308 865.131 354.815 862.326 350.131C859.048 343.471 855.67 336.596 852.557 329.75L852.138 328.833C846.875 317.243 841.901 306.299 831.51 304.113C831.189 304.045 830.351 303.707 828.194 302.574C824.552 296.401 820.145 290.295 813.075 286.626C809.895 284.897 806.702 283.438 803.608 282.028C794.856 278.034 786.592 274.267 780.433 265.003C776.828 258.097 771.287 253.449 765.925 248.962C760.939 244.782 756.23 240.837 753.629 235.359C745.912 220.408 736.292 216.554 726.098 212.474C721.401 210.597 716.551 208.652 711.497 205.482C703.897 200.675 696.433 195.418 689.216 190.334C677.019 181.742 664.402 172.859 650.658 165.787C627.453 151.729 605.98 151.877 585.214 152.012C567.797 152.141 551.34 152.24 533.572 144.638C517.745 136.015 501.929 141.148 486.645 146.115C472.278 150.781 458.706 155.188 444.716 149.378L444.525 149.304C436.987 146.694 429.197 143.998 420.703 144.94C405.874 146.54 391.106 151.397 376.821 156.099C374.059 157.01 371.304 157.915 368.562 158.795C338.903 164.353 308.191 171.825 284.346 188.598C260.882 205.112 244.58 229.851 233.06 266.462L232.955 266.874C230.632 279.548 223.304 292.179 216.216 304.395C208.654 317.432 200.839 330.905 198.756 344.884L198.732 345.099C197.955 354.141 191.767 363.146 185.776 371.855C181.382 378.244 176.845 384.849 174.46 391.509L174.146 392.395L174.325 393.319C176.556 404.977 172.05 414.843 167.28 425.295C162.429 435.913 157.419 446.887 158.886 460.552C159.083 467.36 156.322 473.601 153.394 480.206C149.338 489.365 145.147 498.825 148.303 510.668C149.548 523.434 144.87 536.212 140.346 548.579C132.703 569.463 124.802 591.062 143.705 613.811C150.774 622.323 157.03 632.122 163.089 641.596C170.386 653.014 177.924 664.819 187.07 674.735L187.353 675.012C196.432 682.847 201.825 692.739 207.033 702.304C213.086 713.414 219.348 724.906 231.324 732.865C245.685 742.036 262.584 758.439 268.057 774.474C271.33 789.074 280.002 794.312 288.391 799.378C291.491 801.249 294.696 803.188 297.648 805.564C301.512 808.876 304.964 812.716 308.31 816.428C311.022 819.438 313.821 822.552 316.859 825.414C326.764 835.909 337.734 837.583 348.348 839.202C353.913 840.052 359.664 840.932 365.192 843.129L365.556 843.252C380.533 847.333 396.44 851.303 411.349 852.694C421.667 855.218 431.867 859.422 441.735 863.491C457.814 870.12 474.426 876.977 492.361 876.971C492.62 876.971 492.878 876.971 493.137 876.964C501.23 878.54 508.718 877.937 515.967 877.352C522.635 876.81 528.934 876.306 535.473 877.451C550.925 881.131 567.77 882.59 584.065 883.993C586.475 884.203 588.867 884.412 591.233 884.621L593.199 884.8L594.346 883.193C598.044 878.023 603.542 875.77 610.709 876.484L610.9 876.497C623.659 877.081 635.036 870.871 646.056 864.882C654.703 860.179 662.869 855.735 671.288 854.467C685.889 853.014 694.118 843.203 701.371 834.548C707.627 827.088 713.531 820.047 722.998 817.978C730.117 816.254 733.809 809.81 737.716 802.99C742.025 795.468 746.912 786.943 757.365 782.425L757.574 782.327C770.955 775.433 775.645 769.462 779.411 764.667C784.237 758.518 787.43 754.456 809.642 751.225L810.641 751.077L811.405 750.418C819.344 743.561 824.385 735.479 829.26 727.668C834.375 719.469 839.201 711.732 847.152 705.349L847.38 705.152C860.292 692.799 867.898 677.675 869.994 660.176C871.436 647.269 876.299 635.894 881.445 623.841C883.799 618.326 886.234 612.626 888.323 606.754C893.87 593.656 887.756 586.835 883.294 581.856C879.282 577.406 877.272 574.833 878.974 569.632V569.638ZM837.919 689.751C821.524 723.82 800.729 735.399 776.655 748.799C762.72 756.554 748.31 764.575 733.246 777.643L732.889 778C676.931 843.176 619.502 863.495 556.315 863.495C510.115 863.489 460.832 852.625 406.829 840.487C405.714 840.234 398.564 837.729 398.028 837.594C317.818 817.607 290.231 779.52 244.727 716.682C242.243 713.247 239.704 709.745 237.054 706.107C228.998 695.582 218.761 684.348 207.926 672.457C189.694 652.453 170.841 631.766 161.189 612.931C144.955 584.149 148.412 572.134 158.687 536.447C162.607 522.831 167.476 505.917 172.542 483.555C176.745 475.141 178.416 466.1 177.51 456.675L177.485 456.49C173.337 428.947 189.214 402.553 204.567 377.026C212.419 363.971 220.542 350.467 225.78 337.085C230.612 325.347 234.81 312.532 239.383 295.512C268.893 182.909 385.454 162.03 477.981 164.314C492.36 165.058 506.886 165.089 520.934 165.12C561.514 165.206 599.837 165.292 637.853 180.865L638.075 180.945C663.696 189.421 687.819 209.924 711.153 229.756C726.648 242.929 742.673 256.544 759.105 266.602C779.124 278.377 795.728 290.016 809.811 302.149C811.451 308.335 820.375 318.509 823.555 320.996C829.78 327.797 835.623 335.079 840.937 342.637C851.987 358.37 863.421 374.639 868.122 396.415C869.83 404.325 875.894 414 875.82 434.072C876.69 466.387 869.879 494.553 859.414 526.646C856.228 536.23 858.336 545.9 861.109 554.984C876.493 602.417 868.801 647.571 838.25 689.205L837.919 689.751Z"
     fill="#C07C4B"
     id="path826"
     style="fill:#558139;fill-opacity:1" />
  <path
     d="M734.224 265.427C649.268 207.47 625.416 175.032 515.238 179.088C423.854 173.579 299.756 187.939 269.383 290.306C264.088 308.224 258.054 325.864 246.073 340.527C224.692 371.899 191.128 407.133 191.225 446.494C195.614 486.589 176.988 522.345 169.24 560.544C163.582 605.256 220.273 642.827 236.401 683.606C263.138 733.709 301.794 778.895 354.64 802.493C442.196 844.312 540.901 872.791 635.476 831.873C662.797 819.661 692.012 799.473 713.165 777.281C724.696 765.476 736.204 753.713 750.952 745.724C765.436 737.883 780.567 731.217 794.514 722.421C852.8 687.589 858.92 611.738 843.746 551.738C835.001 520.02 855.617 490.61 856.535 458.93C869.053 371.638 806.187 304.25 734.218 265.43L734.224 265.427ZM836.209 513.432C827.5 545.402 845.06 577.088 842.921 609.509C843.618 643.154 826.909 672.741 807.611 699.787C805.318 703 792.184 714.301 787.857 717.065C758.112 733.708 727.172 747.349 704.788 773.939C653.095 827.446 577.231 850.159 504.137 841.444C448.014 835.11 395.267 812.994 345.156 788.127C294.937 761.998 261.605 714.604 235.849 665.775C217.482 627.28 164.711 596.184 180.231 548.451C185.038 530.52 191.337 513.033 196.058 495.06C203.787 468.205 193.476 438.543 207.818 413.614C226.609 372.884 263.504 342.386 274.635 298.111C305.248 191.989 434.405 181.285 526.913 187.57C564.017 187.89 602.525 189.023 635.536 208.036C660.503 221.054 682.05 238.985 704.805 255.13C809.705 315.882 880.59 384.136 836.201 513.439L836.209 513.432Z"
     fill="#C07C4B"
     id="path828"
     style="fill:#558139;fill-opacity:1" />
  <path
     d="M695.883 340.007C650.546 310.185 610.903 269.45 556.831 255.589C484.097 238.698 385.669 243.5 344.851 315.664C316.758 372.82 267.315 421.761 263.648 488.127C261.442 512.335 258.736 536.465 251.772 559.927C247.359 576.841 263.149 591.209 269.633 605.721C302.78 685.259 376.715 734.118 456.636 759.7C500.876 773.161 549.271 790.149 595.132 774.608C642.897 756.838 669.659 710.907 708.544 680.581C729.758 662.97 747.669 642.659 761.53 618.714C795.884 568.789 768.501 527.297 777.278 474.08C786.93 415.71 742.178 368.457 695.891 340.013L695.883 340.007ZM751.963 621.496C736.462 646.972 715.124 666.83 692.795 685.904C660.992 712.617 637.658 749.376 598.107 765.915C531.887 790.578 434.866 748.285 376.108 715.86C334.98 692.531 302.073 658.365 282.443 615.314C274.635 595.334 252.952 577.404 259.646 554.623C266.82 530.433 268.552 505.363 271.27 480.477C275.393 431.655 307.276 393.289 331.634 352.93C339.27 339.511 345.286 325.206 354.377 312.577C417.532 226.951 565.347 242.77 639.204 306.483C680.524 341.242 738.514 364.766 761.621 416.2C771.137 436.665 773.153 456.842 770.466 477.075C762.86 533.943 789.622 566.602 751.963 621.494L751.963 621.496Z"
     fill="#C07C4B"
     id="path830"
     style="fill:#558139;fill-opacity:1" />
  <path
     d="M546.53 281.657C481.093 263.801 403.343 281.688 363.14 338.907C337.488 376.885 305.685 412.85 295.478 458.656C290.874 489.544 286.239 520.122 278.22 550.35C270.898 575.987 291.206 595.455 304.451 614.997C349.296 700.955 449.481 735.331 539.278 752.689C612.85 765.603 650.514 688.294 701.714 650.574C726.455 629.35 741.326 603.13 744.39 570.457C745.924 524.145 767.811 475.494 745.881 431.227C722.492 381.431 600.476 294.952 546.54 281.656L546.53 281.657ZM747.496 485.919C737.358 540.905 745.456 606.543 696.902 645.037C643.693 684.301 608.513 760.915 532.099 744.043C455.624 726.6 369.994 700.556 324.221 632.412C310.545 606.474 280.35 584.456 285.41 552.56C309.164 438.627 296.486 440.855 369.995 342.263C408.609 289.131 481.312 272.777 543.019 288.572C604.159 305.492 652.58 349.606 701.448 387.862C730.046 411.781 752.776 447.439 747.501 485.915L747.496 485.919Z"
     fill="#C07C4B"
     id="path832"
     style="fill:#558139;fill-opacity:1" />
  <path
     d="M454.922 314.071C417.461 333.871 382.429 360.413 354.743 392.696C328.745 421.921 321.689 458.428 319.815 496.227C312.973 539.737 328.147 580.245 344.086 619.928C359.427 673.522 419.661 690.238 466.465 707.338C560.542 738.108 614.398 703.818 676.489 635.471C735.478 577.175 736.316 480.513 696.131 411.701C644.815 336.786 546.263 273.856 454.914 314.067L454.922 314.071ZM658.697 644.438C591.886 721.162 520.939 727.471 430.481 687.229C398.365 673.94 362.66 656.638 351.332 621.042C325.705 564.722 319.362 519.703 330.283 458.552C342.746 393.818 402.986 349.704 457.926 320.392C529.291 288.391 604.767 323.987 656.747 375.051C735.12 441.601 739.095 577.864 658.701 644.438H658.697Z"
     fill="#C07C4B"
     id="path834"
     style="fill:#558139;fill-opacity:1" />
  <path
     d="M489.884 378.47C466.445 390.35 443.031 406.408 425.772 426.863C395.276 449.975 386.986 469.992 385.107 507.847C380.368 538.07 396.374 564.802 413.724 588.154C447.549 634.361 509.398 658.779 563.808 635.734C599.672 622.869 617.602 588.123 639.272 559.668C667.808 524.602 643.303 456.206 617.935 424.605C586.114 392.215 536.875 357.587 489.886 378.472L489.884 378.47ZM633.058 459.707C645.114 490.792 657.57 531.969 632.978 560.092C615.228 583.224 601.095 610.713 574.383 625.104C510.986 660.952 437.759 624.131 404.31 565.33C386.436 538.765 388.211 510.457 393.518 481.355C396.328 454.832 416.816 442.724 433.672 425.102C456.514 402.803 488.316 376.168 521.771 376.988C568.359 384.023 615.373 415.076 633.062 459.707H633.058Z"
     fill="#C07C4B"
     id="path836"
     style="fill:#558139;fill-opacity:1" />
  <path
     d="M474.198 414.791C442.235 434.081 410.413 464.95 408.435 503.907C400.577 553.184 442.456 599.134 485.977 615.881C514.414 622.535 546.089 617.161 572.023 604.87C595.031 587.524 612.769 565.587 626.791 540.695C646.304 508.485 615.722 472.095 606.865 442.464C594.858 413.971 561.354 404.216 533.971 396.835C511.265 390.114 491.677 401.55 474.198 414.791V414.791ZM622.723 491.769C631.34 510.241 630.181 527.894 619.383 544.778C606.285 565.262 591.283 584.275 571.912 599.393C523.789 625.577 464.528 617.804 433.355 569.952C420.042 553.049 408.867 532.928 412.417 510.775C414.432 496.514 414.34 479.18 423.992 467.762C436.824 454.049 445.977 436.739 463.117 427.162C475.425 420.281 485.767 410.377 498.643 404.412C527.34 392.44 558.558 408.16 583.635 422.126C608.141 437.354 609.602 468.494 622.723 491.766L622.723 491.769Z"
     fill="#C07C4B"
     id="path838"
     style="fill:#558139;fill-opacity:1" />
  <path
     d="M438.983 468.665C433.966 473.047 431.365 478.759 430.785 485.382C428.468 508.31 417.189 533.226 435.55 552.56C453.332 571.562 472.037 594.421 497.417 602.812C519.384 605.791 541.855 600.898 562.065 588.87C585.436 567.443 628.482 536.649 613.122 500.617C606.632 487.297 607.865 471.097 598.576 458.934C595.489 454.785 592.579 450.464 590.059 445.971C579.353 429.4 556.986 425.887 540.025 418.162C510.156 406.449 483.857 426.527 461.17 443.768C452.276 450.803 447.438 461.273 438.983 468.666V468.665ZM557.287 431.438C584.172 436.683 598.398 463.408 603.988 488.128C605.467 495.441 609.239 502.285 610.891 509.579C615.519 538.323 579.618 569.167 558.725 585.004C505.448 617.584 473.83 589.652 438.509 548.811C422.978 528.93 433.591 506.919 435.723 485.062C436.408 479.695 438.337 475.072 442.417 471.57C457.831 453.135 475.163 435.297 497.499 425.376C517.302 414.21 537.955 421.8 557.29 431.439L557.287 431.438Z"
     fill="#C07C4B"
     id="path840"
     style="fill:#558139;fill-opacity:1" />
  <path
     d="M445.296 508.657C438.837 524.864 440.988 536.313 454.122 548.143C469.487 558.97 480.587 577.313 497.211 585.228C526.104 591.445 556.718 581.264 574.499 557.886C587.201 544.622 609.537 527.301 598.838 506.81C592.046 495.928 592.983 482.338 586.764 471.185C583.652 466.07 579.726 461.343 577.303 455.938C571.436 442.84 555.812 441.954 544.299 436.339C506.055 419.763 476.23 451.727 452.736 477.641C452.114 478.33 451.467 479.001 450.702 479.53C443.855 484.282 453.291 495.915 445.297 508.656L445.296 508.657ZM454.449 479.881C455.238 479.456 455.928 478.872 456.55 478.225C463.959 470.495 469.943 460.947 478.559 454.073C508.101 426.522 535.792 432.264 568.864 449.616C574.689 452.288 574.843 459.335 578.602 463.816C590.399 477.899 589.961 496.932 598.276 512.596C601.333 518.357 598.301 525.282 594.658 531.154C582.714 547.766 567.749 562.306 551.811 575.2C531.28 584.045 500.112 592.637 483.78 572.485C469.34 553.958 434.257 539.598 446.873 511.136C450.103 503.922 452.365 496.659 450.726 488.466C450.091 485.327 450.849 481.806 454.448 479.879L454.449 479.881Z"
     fill="#C07C4B"
     id="path842"
     style="fill:#558139;fill-opacity:1" />
  <path
     d="M510.19 571.34C552.779 576.959 544.712 552.96 574.849 537.819C579.546 535.665 586.856 518.732 583.749 513.537C578.646 504.587 580.871 493.809 576.446 484.632C568.692 470.961 561.876 452.471 545.42 448.778C496.285 438.966 523.385 455.308 488.452 464.153C476.397 466.634 467.892 473.638 464.866 486.245C462.302 501.165 453.858 515.36 461.741 530.408C468.385 543.845 495.121 568.921 510.191 571.341L510.19 571.34ZM463.738 502.444C467.276 485.092 473.02 467.661 492.582 465.569C507.134 465.495 509.828 445.016 524.231 449.227C537.557 451.689 555.27 449.984 561.686 465.039C567.467 475.294 575.726 484.367 576.632 496.585C580.768 512.392 585.754 531.135 566.573 539.992C554.506 544.639 547.733 563.018 536.724 566.614C513.137 576.672 491.591 560.73 476.107 543.975C462.16 533.198 458.647 519.103 463.738 502.447L463.738 502.444Z"
     fill="#C07C4B"
     id="path844"
     style="fill:#558139;fill-opacity:1" />
  <path
     d="M552.697 493.499C543.495 488.372 530.391 488.987 522.884 481.293C518.311 476.64 516.049 476.739 509.534 480.296C495.297 483.54 473.904 491.899 477.897 507.711C476.585 518.175 474.31 518.341 484.609 523.881C492.32 527.722 493.793 535.028 497.614 541.436C501.657 547.456 509.3 546.527 515.795 547.739C537.719 552.159 553.366 531.901 557.847 515.259C561.471 506.512 555.567 500.431 552.695 493.499L552.697 493.499ZM529.579 544.255C522.22 548.478 501.547 542.642 498.608 536.173C495.791 529.766 492.691 523.931 485.055 520.588C482.324 519.394 477.991 516.378 481.387 511.559C481.924 510.801 482.053 509.521 481.72 508.733C477.529 497.02 492.894 486.508 505.313 484.722C506.577 484.544 508.235 484.728 509.048 484.094C519.495 475.514 522.454 490.687 540.475 492.072C552.315 493.666 557.104 506.555 553.727 516.527C550.478 528.271 542.109 537.787 529.578 544.257L529.579 544.255Z"
     fill="#C07C4B"
     id="path846"
     style="fill:#558139;fill-opacity:1" />
  <path
     d="M524.186 527.283C528.63 524.999 533.413 524.107 537.814 524.5C551.774 525.344 549.573 498.605 539.884 498.673C529.727 496.992 520.113 493.792 508.451 497.023C494.226 500.962 488.599 500.655 496.414 521.478C497.493 524.359 497.456 529.579 501.148 528.945C508.926 527.621 516.291 531.333 524.187 527.283L524.186 527.283ZM520.31 525.141C506.726 532.736 487.816 514.88 500.199 502.76C511.891 497.793 550.861 493.559 543.194 514.498C543.78 522.636 526.078 520.124 520.31 525.141V525.141Z"
     fill="#C07C4B"
     id="path848"
     style="fill:#558139;fill-opacity:1" />
  <path
     d="M512.399 512.928C507.462 515.273 510.945 520.782 515.45 520.739C521.466 520.486 533.534 510.57 529.934 504.427C523.845 502.598 517.071 509.375 512.4 512.927L512.399 512.928Z"
     fill="#C07C4B"
     id="path850"
     style="fill:#558139;fill-opacity:1" />
  <path
     d="M494.791 557.016C497.367 558.777 500.326 561.128 503.697 561.534C504.055 561.67 505.589 562.138 506.033 562.211C520.049 564.489 537.201 559.737 545.909 548.067C551.315 534.71 574.705 534.808 570.847 518.509C568.597 497.612 569.287 469.784 542.908 465.163C542.267 464.603 541.343 464.498 540.523 464.338C533.534 459.26 518.65 452.569 516.086 465.649C510.989 480.588 486.803 472.229 478.49 484.822C459.174 513.567 470.422 536.464 494.792 557.016L494.791 557.016ZM480.776 484.323C492.388 475.687 510.267 479.491 519.549 467.397C522.994 458.053 523.672 458.847 532.708 462.349C538.853 465.729 545.324 468.326 552.098 470.419C562.329 477.343 565.478 487.186 565.115 499.589C562.705 510.434 575.623 526.542 561.608 532.131C547.29 536.464 543.931 552.954 530.255 557.379C508.517 564.476 499.568 561.047 485.176 544.016C466.285 528.782 467.488 502.32 480.776 484.322V484.323Z"
     fill="#C07C4B"
     id="path852"
     style="fill:#558139;fill-opacity:1" />
  <path
     d="M840.016 457.32C844.607 391.823 798.61 337.467 745.864 304.37C742.345 302.087 738.536 299.785 734.585 297.433C722.154 273.422 700.119 260.785 675.996 251.294C618.338 189.256 566.115 191.029 480.204 192.562C421.333 192.501 356.148 213.428 316.127 260.041C284.632 298.893 266.012 346.251 237.391 387.288C206.999 434.566 210.334 492.061 194.857 544.351C188.115 567.334 186.062 588.755 202.925 607.78C214.223 623.051 224.781 638.864 235.985 654.209C258.635 693.128 282.414 731.517 321.243 756.638C428.301 829.952 587.452 871.58 692.582 773.134C715.571 750.631 739.467 729.444 766.074 711.016C815.879 677.383 833.261 614.218 830.339 556.219C832.397 543.619 831.713 531.327 828.311 519.221C830.758 498.613 840.52 478.614 840.015 457.324L840.016 457.32ZM733.667 307.17C737.088 315.037 740.62 323.173 746.019 329.612C756.466 342.082 764.497 355.599 771.035 369.695C744.791 342.631 708.495 327.07 680.421 301.822C605.067 217.94 576.223 227.401 468.756 227.941C460.584 228.347 452.898 229.055 445.632 230.04C470.328 220.696 495.654 216.074 521.86 216.068C567.037 216.068 615.678 229.197 676.609 258.176C682.427 264.109 688.141 270.105 693.916 275.903C706.033 286.324 719.229 295.428 732.475 304.438C732.875 305.349 733.276 306.26 733.67 307.171L733.667 307.17ZM821.853 541.103C822.833 549.893 823.308 558.837 823.277 567.804C819.431 578.077 813.995 587.717 808.972 595.822L808.873 595.97C801.884 605.689 794.525 615.334 786.852 624.93C802.408 578.213 786.728 528.392 800.109 480.634C801.311 477.015 802.291 473.402 803.098 469.801C807.998 485.891 813.687 501.826 821.243 516.857C819.986 524.791 819.758 532.824 821.853 541.103L821.853 541.103ZM791.949 480.038C777.157 527.494 795.949 577.148 777.385 624.168C773.859 636.817 767.708 647.368 759.992 656.661C757.817 659.093 755.635 661.524 753.41 663.955C732.973 684.821 705.021 699.649 683.961 719.925C666.439 739.13 638.635 762.802 616.742 771.321C498.4 816.839 340.703 761.94 284.328 648.291C271.878 624.945 258.294 602.188 238.836 583.593C232.574 577.616 231.039 570.993 234.805 563.225C261.017 502.585 241.998 445.623 287.594 386.712C309.27 351.904 324.828 322.242 342.584 298.661C345.438 296.113 348.347 293.62 351.342 291.226C359.712 283.427 369.057 277.395 377.512 270.828C388.051 262.641 397.722 254.251 408.434 247.961C428.435 240.735 453.027 236.635 484.706 235.946C552.484 236.137 609.415 230.819 656.341 288.868C670.067 302.791 683.342 317.312 700.31 327.554C731.638 344.536 765.241 370.173 783.491 401.836C787.676 414.626 791.239 427.589 794.752 440.405C795.565 443.378 796.385 446.363 797.211 449.355C797.291 459.24 795.658 469.488 791.96 480.032L791.949 480.038ZM674.457 740.663C674.229 740.848 658.038 755.147 650.647 759.794C642.567 764.872 627.012 775.927 617.803 778.451C615.147 779.177 606.37 781.344 606.105 781.455C608.318 780.088 640.281 764.171 674.456 740.664L674.457 740.663ZM581.476 790.786C546.696 801.416 514.8 806.814 486.234 806.814C436.501 806.814 397.87 790.263 371.416 757.628C368.421 753.787 365.216 750.002 361.82 746.259C425.272 788.391 507.602 805.898 581.468 790.786L581.476 790.786ZM241.708 428.131C238.269 410.94 245.394 396.82 260.784 390.252C273.32 377.763 284.969 363.501 296.236 349.709C300.846 344.065 305.5 338.371 310.264 332.727C299.219 351.297 287.916 371.498 274.32 392.647C255.693 421.824 245.308 453.861 242.727 488.379C242.308 514.521 237.901 540.336 225.944 563.879C222.677 571.733 222.702 578.978 229.13 585.016C251.065 605.611 265.568 631.29 279.571 657.192C285.876 669.201 293.291 680.538 301.629 691.181C275.559 668.807 249.703 645.504 233.414 619.079C212.804 585.649 210.646 551.667 226.819 515.178C238.418 489.265 248.243 460.79 241.71 428.131H241.708ZM347.959 289.005C358.905 272.195 372.359 258.709 408.304 245.046C400.014 250.462 383.392 262.656 374.96 269.124C366.208 275.852 356.408 281.613 347.959 289.005ZM707.117 273.451C716.566 277.803 722.403 284.906 726.876 292.889C712.91 284.654 698.211 275.747 688.188 265.272C687.492 264.422 686.795 263.591 686.099 262.76C692.946 266.133 699.948 269.691 707.116 273.452L707.117 273.451ZM308.103 736.984C266.401 703.038 247.505 651.272 213.86 610.458C209.41 604.204 205.41 597.624 201.317 591.13C188.719 566.225 210.907 523.799 213.293 495.933C217.447 453.838 227.166 412.161 251.888 376.991C286.822 326.322 305.631 262.037 363.075 231.007C402.686 206.793 449.558 199.018 495.366 199.831C540.124 201.259 588.686 197.566 629.19 219.564C642.823 226.901 654.687 236.804 665.868 247.508C660.592 245.619 655.267 243.821 649.967 242.036C636.093 237.358 621.751 232.514 608.882 226.243C581.904 214.56 554.602 208.639 527.728 208.639C496.715 208.639 465.621 216.326 433.755 231.967C374.364 243.287 345.84 275.472 318.943 318.454C294.228 342.694 271.042 368.262 249.526 392.003L248.86 392.736L248.564 393.062L248.176 393.271C234.13 400.885 235.547 414.827 237.513 434.117C239.627 454.841 242.253 480.627 225.372 507.685C212.582 539.833 209.002 565.852 214.105 589.536C219.331 613.789 233.643 635.798 259.153 658.795C284.835 676.909 307.745 700.607 329.896 723.529C358.34 752.963 387.733 783.32 422.735 801.256C380.898 785.936 341.391 763.47 308.103 736.984L308.103 736.984ZM758.586 707.575C741.883 719.977 723.935 730.891 709.692 746.284C637.76 831.405 528.638 837.572 430.781 804.118C450.812 808.131 471.293 810.187 491.725 810.187C536.89 810.187 581.951 800.148 622.03 781.159C662.967 761.763 698.777 732.915 725.636 697.726C746.721 682.695 767.461 667.435 778.913 643.64C793.083 628.308 806.353 612.039 815.985 595.002C818.605 590.367 820.885 585.782 822.839 581.245C819.751 630.4 800.362 678.843 758.579 707.575L758.586 707.575ZM829.976 479.85C828.361 488.664 825.643 497.306 823.498 505.979C822.685 504.175 821.816 502.372 820.879 500.568C813.495 488.713 808.404 475.99 804.416 462.979C808.508 436.814 802.191 411.349 785.864 388.107C785.42 387.43 784.958 386.771 784.508 386.106C781.592 377.588 778.104 369.271 773.691 361.363C769.42 354.352 764.668 347.39 760.064 340.656C753.358 330.838 746.486 320.743 740.829 310.12C765.575 327.016 789.728 344.472 806.505 370.502C829.963 403.777 836.811 440.345 829.975 479.85L829.976 479.85Z"
     fill="#C07C4B"
     id="path854"
     style="fill:#558139;fill-opacity:1" />
  <path
     d="M698.423 527.834C695.064 521.943 692.784 515.77 691.132 509.473C690.627 495.581 688.328 481.627 684.451 468.252C683.021 460.251 680.993 452.353 677.425 444.949C673.77 438.523 670.214 431.758 666.454 424.6C647.675 388.862 628.247 351.913 589.726 343.278C548.499 335.054 526.28 333.3 512.863 335.522C486.127 335.762 459.586 344.54 435.753 364.987C418.558 377.679 399.635 391.461 384.431 407.754C378.551 413.103 373.602 419.344 369.639 426.491C361.337 439.374 355.846 453.759 355.081 470.156C354.465 473.621 353.929 477.037 353.442 480.423C353.171 481.395 352.893 482.374 352.622 483.347C343.907 514.283 335.68 543.508 351.858 574.388C356.037 582.826 363.309 593.173 372.531 604.178C384.734 624.479 401.856 641.079 423.39 653.907C446.705 672.809 471.051 687.668 489.393 690.617C547.132 698.224 571.976 686.585 591.525 667.756C616.641 652.122 637.899 627.92 656.653 604.498C661.818 601.174 667.451 597.943 673.64 594.835C680.839 591.535 691.501 573.543 696.981 555.522C700.833 542.83 701.356 532.748 698.423 527.836L698.423 527.834ZM681.634 552.19C675.729 571.302 665.153 588.241 652.408 603.764C652.075 603.924 651.748 604.084 651.409 604.244C634.343 610.811 620.894 627.32 607.89 643.286C602.589 649.792 597.406 656.138 592.075 661.775C544.081 693.142 474.269 680.555 423.58 647.169C412.578 638.029 401.478 627.43 390.291 615.347C386.525 612.436 383.018 609.426 379.752 606.324C376.867 602.354 374.229 598.291 371.887 594.136C349.306 555.328 355.653 511.245 360.473 468.804C371.992 427.416 391.974 392.794 438.488 387.815C444.127 387.784 449.114 386.627 453.656 384.725C447.659 388.849 441.822 393.182 436.139 397.466C383.319 442.842 374.106 456.242 373.291 526.276C380.281 611.71 482.543 687.599 565.028 648.56C604.018 634.12 628.486 598.18 649.497 564.356C675.777 526.975 661.01 476.878 643.629 438.624C623.838 396.264 579.844 372.388 535.574 362.564C510.778 356.181 488.271 363.739 467.634 375.785C472.281 371.796 478.451 367.075 482.648 362.545C491.209 353.312 498.057 344.024 509.668 340.676C516.078 340.257 522.513 340.306 528.904 340.829C529.212 340.916 529.514 340.983 529.828 341.076C535.129 342.048 540.712 342.787 546.525 343.476C564.799 347.508 582.235 355.429 597.316 367.025C638.666 392.379 669.236 430.701 680.909 474.908C681.026 475.954 681.162 476.994 681.242 478.059L681.334 478.41C682.105 481.352 682.887 484.344 683.664 487.366C687.368 508.109 686.974 529.936 681.63 552.187L681.634 552.19ZM478.71 374.983C525.188 351.777 580.134 377.501 616.356 408.88C648.782 442.291 674.778 515.876 646.458 560.225C581.212 685.353 448.631 684.763 385.124 559.166C373.167 534.096 379.675 504.981 382.03 478.41C386.634 435.975 444.063 395.641 478.707 374.983L478.71 374.983ZM638.244 387.263C641.177 392.458 644.382 397.604 647.612 402.669C625.436 378.148 597.109 357.539 566.706 345.85C595.52 349.568 625.111 356.603 638.244 387.262L638.244 387.263ZM465.709 351.538C475.885 346.958 486.528 343.832 497.346 342.077C494.258 344.644 491.836 347.728 489.173 351.119C480.255 362.507 469.149 376.676 427.287 387.268C418.75 389.022 411.01 391.565 404.014 394.833C423.058 378.072 445.419 364.199 465.71 351.537L465.709 351.538ZM350.855 508.101C349.628 538.662 354.282 565.406 364.303 588.235C348.87 565.491 344.352 538.686 350.855 508.101ZM565.691 680.518C551.571 686.537 537.148 689.541 522.473 689.541C499.724 689.541 476.353 682.309 452.476 667.9C474.491 676.376 499.736 681.934 527.897 684.507C544.354 685.793 559.479 682.851 573.482 677.046C570.967 678.45 568.385 679.638 565.691 680.518L565.691 680.518ZM611.799 645.267C620.693 634.92 630.591 623.939 644.034 613.445C633.865 624.66 622.77 635.166 611.799 645.267ZM660.835 599.213C664.089 595.095 667.275 591.02 670.394 587.05C683.331 568.554 689.809 546.333 691.029 523.343C694.69 552.624 690.413 581.097 660.834 599.212L660.835 599.213Z"
     fill="#C07C4B"
     id="path856"
     style="fill:#558139;fill-opacity:1" />
</svg>
