<?xml version="1.0" encoding="UTF-8" standalone="no"?>
<svg
   xmlns:dc="http://purl.org/dc/elements/1.1/"
   xmlns:cc="http://creativecommons.org/ns#"
   xmlns:rdf="http://www.w3.org/1999/02/22-rdf-syntax-ns#"
   xmlns:svg="http://www.w3.org/2000/svg"
   xmlns="http://www.w3.org/2000/svg"
   xmlns:sodipodi="http://sodipodi.sourceforge.net/DTD/sodipodi-0.dtd"
   xmlns:inkscape="http://www.inkscape.org/namespaces/inkscape"
   width="1024"
   height="1024"
   viewBox="0 0 1024 1024"
   fill="none"
   version="1.1"
   id="svg41"
   sodipodi:docname="app_icon.svg"
   inkscape:version="0.92.3 (2405546, 2018-03-11)"
   inkscape:export-filename="D:\projects\nw_mobile\assets\app_icon\app_icon_ios.png"
   inkscape:export-xdpi="96"
   inkscape:export-ydpi="96">
  <metadata
     id="metadata15">
    <rdf:RDF>
      <cc:Work
         rdf:about="">
        <dc:format>image/svg+xml</dc:format>
        <dc:type
           rdf:resource="http://purl.org/dc/dcmitype/StillImage" />
      </cc:Work>
    </rdf:RDF>
  </metadata>
  <defs
     id="defs45" />
  <sodipodi:namedview
     id="namedview43"
     pagecolor="#ffffff"
     bordercolor="#666666"
     borderopacity="1.0"
     inkscape:pageshadow="2"
     inkscape:pageopacity="0.0"
     inkscape:pagecheckerboard="0"
     showgrid="false"
     inkscape:zoom="0.28334289"
     inkscape:cx="-282.59366"
     inkscape:cy="719.97571"
     inkscape:window-width="1920"
     inkscape:window-height="1027"
     inkscape:window-x="-8"
     inkscape:window-y="-8"
     inkscape:window-maximized="1"
     inkscape:current-layer="svg41" />
  <rect
     style="fill:#ffffff;fill-opacity:1;stroke-width:5.02197"
     id="rect2503"
     width="1024"
     height="1024"
     x="0"
     y="0"
     inkscape:export-filename="/Users/ivan/Documents/projects/nw_mobile/assets/app_icon/app_icon_ios.png"
     inkscape:export-xdpi="96"
     inkscape:export-ydpi="96" />
  <g
     id="g4545"
     style="opacity:1;fill:#558139;fill-opacity:1"
     inkscape:export-xdpi="96"
     inkscape:export-ydpi="96">
    <path
       d="m 513.76953,216.00586 c -8.84628,0.16788 -17.23603,3.29937 -25.56977,5.93879 -6.73512,2.1206 -13.74695,4.18362 -20.88726,3.51629 -2.90516,-0.23676 -5.71146,-1.09154 -8.40444,-2.16854 -5.85634,-2.05947 -11.99175,-3.96555 -18.27773,-3.46481 -12.50086,1.20822 -24.4862,5.21773 -36.35598,9.10606 -2.2021,0.68115 -4.36273,1.52742 -6.59999,2.07558 -17.34314,3.29282 -34.7508,7.27214 -50.83995,14.72908 -9.93405,4.59108 -19.21374,10.70146 -27.00896,18.41091 -10.07403,9.86003 -17.59617,22.05458 -23.20497,34.92185 -2.64226,6.09935 -4.9634,12.34487 -6.8822,18.70823 -1.5346,8.1245 -5.39526,15.55343 -9.37624,22.71512 -5.55186,9.92695 -11.87853,19.55971 -15.54368,30.40402 -1.12663,3.34691 -1.92651,6.80561 -2.32182,10.31494 -0.97609,5.28965 -3.88231,9.94766 -6.76973,14.39096 -4.18578,6.38589 -9.04457,12.45971 -11.84512,19.63494 -0.22074,0.82387 -0.85772,1.62871 -0.55219,2.49758 0.44801,2.11316 0.66162,4.51653 0.49277,6.78072 -0.47332,6.78712 -3.59246,12.96951 -6.32775,19.07465 -3.11753,6.75211 -5.97957,13.8314 -6.40095,21.3426 -0.17919,2.27915 0.01,4.56164 0.13438,6.83509 -0.0268,3.54395 -1.18664,6.95318 -2.51897,10.19688 -0.27212,0.64109 -0.66321,1.5755 -0.99441,2.32481 -2.5835,5.82732 -5.35477,11.80078 -5.67354,18.27166 -0.18748,2.89017 0.19671,5.78821 0.86596,8.59309 0.67795,7.95616 -1.6365,15.7646 -4.20732,23.20002 -3.25739,9.3373 -7.26188,18.57202 -8.39957,28.48256 -0.89241,7.2205 0.15887,14.72348 3.38837,21.2728 1.86466,3.9496 4.4913,7.47059 7.29038,10.79946 11.11374,14.01346 19.01592,30.30997 30.66045,43.93011 1.29317,1.53173 2.629,3.0286 4.16178,4.32592 6.11391,5.7481 10.1559,13.21507 14.11421,20.50856 3.95731,7.31235 8.2446,14.66787 14.51936,20.25847 3.01031,2.83141 6.68049,4.78905 9.93265,7.30712 5.33446,4.02961 10.24887,8.63161 14.52332,13.7762 0.40782,0.50925 1.02906,1.26379 1.4951,1.88438 2.97508,3.91238 5.65193,8.15715 7.17657,12.85653 1.21921,5.39997 3.91224,10.52481 8.03207,14.27159 4.825,4.54287 11.13767,7.0134 16.20917,11.22516 5.40593,4.76442 9.7167,10.59113 14.96195,15.51872 4.20789,4.45688 9.69418,7.62552 15.60191,9.21748 7.65305,2.17695 15.83562,2.08233 23.27703,5.0671 12.03493,3.29379 24.20548,6.34724 36.64779,7.59508 1.86807,0.46535 3.70099,0.98955 5.46927,1.54497 5.29245,1.66562 10.47158,3.7391 15.535,5.81171 11.0167,4.5196 22.10522,9.32783 33.96793,11.10188 3.23239,0.49637 6.50524,0.70622 9.77155,0.72171 6.67428,1.29331 13.50139,0.68244 20.21795,0.12314 1.14914,-0.0926 2.71457,-0.18978 3.76367,-0.23828 2.45989,-0.10457 4.9308,-0.10069 7.3789,0.18945 0.34405,0.0384 1.1318,0.14631 1.63926,0.23765 15.42897,3.61194 31.30013,4.47967 47.02871,5.94985 1.4299,-2.01987 2.82257,-4.23267 5.09499,-5.40181 2.46565,-1.4042 5.40379,-1.49532 8.15996,-1.23987 7.20836,0.28112 14.19631,-2.15309 20.5825,-5.28971 7.19594,-3.46243 13.91537,-7.93195 21.45259,-10.66511 2.4399,-0.89585 4.99265,-1.42018 7.5685,-1.72381 5.97887,-0.93867 11.43961,-4.04585 15.80207,-8.1702 5.09386,-4.66857 8.88358,-10.55099 13.94378,-15.24864 2.7158,-2.54713 6.03775,-4.52086 9.71664,-5.25645 3.98342,-1.01454 7.08038,-4.03909 9.30281,-7.3704 3.4694,-5.13415 5.90712,-11.00909 10.29023,-15.49142 2.23057,-2.3343 4.96124,-4.15263 7.9242,-5.42004 6.08839,-3.13551 11.89572,-7.08897 16.21875,-12.47076 2.17917,-2.63 4.10054,-5.66101 7.20275,-7.31232 3.44318,-1.8957 7.32949,-2.75913 11.14844,-3.53907 1.32999,-0.2597 2.89854,-0.52493 4.3274,-0.74924 0.96323,-0.18227 1.98903,-0.22607 2.91435,-0.48988 5.23336,-4.30894 9.42148,-9.72201 13.03256,-15.42289 4.37239,-6.7747 8.29409,-14.04199 14.38526,-19.47881 1.64145,-1.36295 3.20843,-2.81146 4.6461,-4.39096 7.18051,-7.60957 12.34891,-17.11858 14.66089,-27.33302 0.85303,-3.41571 1.1243,-6.93231 1.70726,-10.39496 1.94027,-10.7544 6.86145,-20.60788 10.95823,-30.64348 1.34126,-3.25438 2.59753,-6.54614 3.76507,-9.86503 1.37186,-4.15473 1.37269,-8.86888 -0.61803,-12.82915 -1.54762,-3.30957 -4.24561,-5.81479 -6.5108,-8.58643 -1.0665,-1.26871 -1.86367,-2.9593 -1.35778,-4.63683 0.57801,-1.95241 1.23349,-3.90181 1.41888,-5.94501 0.60047,-4.89373 -0.66649,-9.73954 -1.98178,-14.4114 -0.97505,-3.48356 -1.79055,-7.26762 -0.55609,-10.7978 5.75092,-15.17056 10.26934,-30.97502 11.45291,-47.21806 0.83073,-11.46238 -0.14708,-23.10741 -3.41826,-34.14689 2.00172,-3.23369 2.67068,-7.17348 2.09599,-10.91273 -0.84239,-5.66271 -3.20875,-10.93898 -5.39321,-16.18333 -3.25296,-7.40371 -6.54106,-14.79415 -9.91798,-22.14246 -0.99361,-1.97048 -1.79849,-4.0204 -2.64613,-6.05489 -1.23088,-2.89738 -2.78836,-5.63772 -4.32778,-8.37612 -3.31648,-6.67684 -6.50147,-13.4178 -9.58601,-20.20442 -2.34997,-4.89495 -4.90659,-9.95006 -9.18625,-13.45543 -1.95714,-1.62514 -4.321,-2.70497 -6.78905,-3.2757 -0.6966,-0.34698 -1.57101,-0.5394 -1.87231,-1.33654 -2.97028,-4.9338 -6.84271,-9.55413 -12.04329,-12.22049 -6.15078,-3.40133 -12.99779,-5.53437 -18.69989,-9.72953 -2.94346,-2.19402 -5.48897,-4.96939 -7.21833,-8.21828 -3.21649,-5.33262 -8.19233,-9.2143 -12.8779,-13.17847 -2.96218,-2.51149 -5.8585,-5.29164 -7.4993,-8.87717 -2.89529,-5.60753 -7.10091,-10.64124 -12.5476,-13.91573 -6.56082,-4.02558 -14.25537,-5.71028 -20.78565,-9.80034 -15.63669,-9.8514 -29.98378,-21.7097 -46.30694,-30.47232 -3.02444,-1.56068 -5.89808,-3.40406 -8.99851,-4.82113 -8.87456,-4.25616 -18.62415,-6.46046 -28.41466,-7.13428 -13.45623,-1.02321 -27.02426,0.55187 -40.42795,-1.33387 -5.98928,-0.85763 -11.91888,-2.3987 -17.4366,-4.90152 -4.79257,-2.54102 -10.23891,-3.71858 -15.64995,-3.60564 z m -39.01367,23.0625 c 5.19481,-0.003 10.38938,0.0882 15.57752,0.35509 18.42678,0.6973 36.87422,0.13829 55.30334,0.73671 8.0787,0.27414 16.29285,0.7755 24.37021,1.77069 1.95061,0.23412 3.85306,0.49461 5.73395,0.7822 9.96966,1.50355 19.82671,3.85331 29.31967,7.26742 1.87241,0.67253 3.90115,1.47237 5.81836,2.23242 11.72747,3.92816 22.27996,10.63745 32.17052,17.94312 19.24704,14.2953 36.3048,31.35353 56.06142,44.98629 4.13572,2.90071 8.50323,5.44026 12.82184,8.0529 6.98695,4.28492 13.92521,8.87295 20.57595,13.76544 2.03636,1.50807 4.04745,3.02261 5.98427,4.5546 2.33121,1.83141 4.62522,3.70986 6.87623,5.63906 1.3463,3.74899 3.80366,6.96844 6.28051,10.03888 1.5883,1.94249 3.33477,3.75617 5.19027,5.43806 2.92516,3.21252 5.71507,6.54623 8.38664,9.97228 0.63607,0.83489 1.44428,1.86891 2.12543,2.79994 2.49383,3.35974 4.81152,6.73998 7.20643,10.20466 6.14163,8.94527 11.7488,18.42725 14.95241,28.8575 0.92553,2.77981 1.4435,5.66843 2.23265,8.48403 1.47203,4.688 3.31927,9.27659 4.24489,14.12148 0.26376,1.25517 0.51493,2.81873 0.68351,4.0402 0.13676,1.09671 0.25307,2.14432 0.33195,3.16052 0.28765,3.84063 0.25587,7.69705 0.27211,11.54607 -0.0109,1.974 -0.0785,4.11043 -0.1568,5.97896 -0.13366,2.7465 -0.32576,5.52935 -0.5885,8.18854 -0.38661,4.04339 -0.91996,7.92996 -1.58609,11.95017 -0.93961,5.56601 -2.12701,11.09787 -3.48928,16.52443 -1.99761,7.98171 -4.3791,15.82269 -6.92326,23.66821 -1.90072,5.34824 -1.85523,11.19593 -0.72923,16.7048 1.03154,5.43104 3.10003,10.58711 4.36816,15.95951 0.54686,2.19051 1.03574,4.39773 1.45306,6.54359 1.62911,8.39831 2.32878,16.98259 1.97756,25.53301 -0.0445,0.88373 -0.10242,2.05553 -0.17498,3.04743 -0.15065,2.10262 -0.3665,4.24012 -0.63546,6.24278 -0.45419,3.47123 -1.09676,6.91663 -1.89464,10.32503 -0.23207,0.95447 -0.53522,2.17414 -0.81836,3.22265 -1.00983,3.76332 -2.2948,7.61701 -3.66601,11.1543 -0.99261,2.54342 -2.09313,5.10066 -3.22518,7.49369 -3.69064,7.85572 -8.27436,15.26805 -13.38331,22.27541 -1.4428,2.7683 -2.80712,5.58631 -4.41259,8.26964 -4.93485,8.53194 -11.38362,16.31935 -19.1229,22.54367 -5.38521,4.38722 -11.35113,8.09677 -17.32868,11.5172 -8.66167,4.93933 -17.65336,9.65686 -26.03515,15.1914 -5.53791,3.67128 -10.89834,7.63751 -15.86765,12.05076 -11.19277,13.00066 -23.53411,25.09502 -37.38697,35.25489 -14.15536,10.42305 -29.93465,18.70653 -46.72437,23.97404 -11.56454,3.65491 -23.55168,5.90264 -35.62648,6.96836 -0.91364,0.0676 -2.00491,0.17255 -2.94241,0.23474 -4.08088,0.29607 -8.10532,0.46377 -12.16055,0.51922 -16.29411,0.2277 -32.56299,-1.32268 -48.66853,-3.69732 -14.21992,-2.1068 -28.52995,-4.90707 -42.60201,-7.89198 -9.97161,-2.12857 -19.8983,-4.31477 -29.83813,-6.5938 -3.1559,-0.98776 -6.23912,-2.21513 -9.4783,-2.91859 -6.35343,-1.66906 -12.64659,-3.57593 -18.82765,-5.80266 -0.83395,-0.31594 -1.97537,-0.72418 -2.81854,-1.04621 -1.65772,-0.63137 -3.15577,-1.22605 -4.81392,-1.91144 -13.76831,-5.66061 -26.73444,-13.33677 -38.10191,-22.96724 -4.78936,-4.01936 -9.39859,-8.44033 -13.6504,-12.91495 -9.85789,-10.39267 -18.6973,-21.92353 -27.2483,-33.48556 -6.10086,-8.24081 -12.03812,-16.60228 -18.12077,-24.85567 -8.21188,-10.55661 -17.42059,-20.27596 -26.37284,-30.19666 -6.69321,-7.36212 -13.3325,-14.78414 -19.53152,-22.57149 -0.94175,-1.2038 -2.02271,-2.58254 -2.99153,-3.87499 -3.99878,-5.287 -7.68785,-10.82543 -10.72325,-16.72576 -3.88786,-7.01182 -7.37354,-14.52233 -8.05671,-22.61409 -0.69028,-8.05024 1.28255,-16.00558 3.3075,-23.73126 3.19423,-11.64283 6.72104,-23.1917 9.72171,-34.88802 1.61961,-6.1971 3.10922,-12.43232 4.56866,-18.66428 3.66071,-7.38228 4.95466,-15.89205 3.70534,-24.03247 -1.06075,-9.46337 1.05433,-18.99548 4.49641,-27.77948 4.87077,-12.43168 12.05123,-23.75366 18.86025,-35.17976 5.73929,-9.58679 11.38377,-19.30673 15.40589,-29.76407 4.53895,-11.20464 7.91226,-22.83356 11.0407,-34.49699 4.56103,-16.25584 12.18887,-31.73327 22.92847,-44.80586 13.35855,-16.3944 31.12963,-28.56681 50.46964,-36.83195 11.11378,-4.77657 22.6782,-8.33132 34.44473,-10.99162 1.56868,-0.33878 3.06711,-0.68395 4.57863,-0.97953 1.90307,-0.39822 3.672,-0.729 5.60864,-1.08938 15.4266,-2.79262 31.08254,-4.19313 46.74625,-4.63838 3.43337,-0.0882 7.03141,-0.14229 10.52148,-0.14453 z"
       style="fill:#558139;fill-opacity:1;stroke-width:0.789474"
       id="path9" />
    <path
       d="m 493.45117,316.91016 c -25.13381,0.51037 -50.34615,7.04544 -71.89453,20.16015 -14.96185,9.07432 -27.93129,21.45653 -37.51515,36.10988 -13.70184,19.88602 -28.8843,38.9055 -39.93007,60.48342 -5.48173,10.79836 -9.97603,22.18873 -12.36309,34.09008 -3.10064,20.68271 -6.21958,41.37014 -11.07537,61.7401 -0.89862,3.85822 -1.8732,7.58335 -2.84741,11.42168 -1.91235,8.36377 -0.52226,17.25842 3.07826,24.97857 4.12263,9.13551 10.54648,16.95632 16.36295,24.99082 1.60976,2.09827 3.01134,4.34454 4.20453,6.70319 11.28738,20.44159 27.2554,38.1308 45.81214,52.23042 23.20497,17.7309 49.99303,30.21526 77.55994,39.52003 21.3594,7.18658 43.30519,12.52613 65.43399,16.7271 13.15295,2.20911 26.91034,0.93337 39.34737,-3.93264 12.68492,-4.86139 23.90233,-12.86267 34.03024,-21.79852 16.78993,-14.78035 30.98398,-32.21134 47.56183,-47.21335 3.55193,-3.21965 7.29162,-6.22183 11.08748,-9.14601 5.44354,-4.57567 10.43913,-9.68904 14.90609,-15.2215 8.36109,-10.39925 14.65724,-22.50033 18.02068,-35.43102 1.84778,-6.86121 2.89716,-13.92791 3.17996,-21.0267 0.93316,-14.08987 3.83926,-27.91568 5.99262,-41.8752 2.07734,-13.46604 3.56371,-27.1973 1.9487,-40.79912 -1.09081,-9.24596 -3.65217,-18.34613 -7.86246,-26.66369 -4.49289,-9.03856 -10.88092,-16.96056 -17.56116,-24.46286 -8.70563,-9.63443 -18.27899,-18.44682 -28.14452,-26.8741 -16.03983,-13.61193 -33.06518,-26.04497 -50.72317,-37.47082 -13.72528,-8.82958 -27.90021,-17.01471 -42.72863,-23.85473 -8.42349,-3.86021 -17.1714,-7.07093 -26.22324,-9.1022 -12.96273,-3.1238 -26.33002,-4.52163 -39.65798,-4.28298 z m 4.47071,18.1289 c 9.48952,0.0904 18.97409,1.08756 28.25976,3.05469 3.85014,0.81677 7.83422,1.86449 11.63713,3.1191 2.63491,0.85197 5.27954,1.76748 7.79883,2.72732 3.68358,1.38736 7.33852,2.92446 10.86562,4.52311 16.12988,7.31202 31.14961,16.83974 45.49725,27.16953 16.82818,12.14539 32.91551,25.48886 49.2275,38.38763 9.00274,6.92459 17.01423,15.16665 23.53869,24.46996 7.19208,10.29034 12.53671,22.11279 14.06193,34.65413 0.1441,1.16639 0.2764,2.58415 0.3486,3.85487 0.30445,4.82031 -0.0344,9.66826 -0.93018,14.41211 -2.37661,14.0984 -3.39644,28.4034 -4.94381,42.58068 -0.52054,4.66795 -1.09922,9.46548 -1.80273,14.16211 -1.82581,11.96981 -4.49721,24.14013 -9.62646,35.24939 -0.45576,1.01258 -1.08611,2.25332 -1.49659,3.09631 -4.1456,8.15434 -9.76924,15.58201 -16.70508,21.56641 -1.27719,1.10842 -2.74996,2.31558 -4.16679,3.38238 -10.21977,7.75419 -19.29711,16.87328 -28.19775,26.07632 -11.34518,11.73187 -22.3579,23.90683 -35.20112,34.05266 -1.75119,1.37208 -3.72063,2.82221 -5.43238,4.01403 -1.94095,1.33498 -3.94574,2.64437 -5.91602,3.80859 -0.54853,0.31527 -1.36945,0.80121 -2.0376,1.16193 -8.00516,4.47926 -16.89673,7.4751 -26.06146,8.24391 -3.69958,0.33836 -7.46409,0.30595 -11.09669,-0.0172 -7.66032,-0.64247 -15.06735,-2.82145 -22.53181,-4.52978 -6.98807,-1.70087 -14.01337,-3.50101 -20.88154,-5.4221 -19.54252,-5.43658 -38.77334,-11.96823 -57.1412,-20.65193 -18.38328,-8.73001 -35.87257,-19.72831 -50.53732,-33.93158 -6.96184,-6.74387 -13.32394,-14.14202 -18.69713,-22.21599 -1.76756,-3.04819 -3.56011,-6.08392 -5.59044,-8.96726 -6.77373,-9.89017 -15.02645,-18.81031 -20.55778,-29.51897 -2.89772,-5.70257 -4.70874,-12.15768 -4.06429,-18.59244 0.0424,-0.49194 0.17144,-1.3278 0.26356,-1.95019 0.65375,-3.72033 1.5501,-7.39288 2.22648,-11.10943 3.51703,-17.41689 6.48263,-34.94055 10.01325,-52.35547 1.14949,-5.45267 2.40889,-10.91686 3.95871,-16.21285 2.34815,-8.20966 5.47604,-16.19438 9.38236,-23.78887 7.15958,-14.04374 16.20642,-27.00301 25.30401,-39.83729 5.69664,-7.95723 11.49631,-15.84249 17.41253,-23.63723 10.83691,-13.65429 25.38126,-24.17218 41.41051,-30.91227 3.40703,-1.44985 6.88741,-2.73281 10.35863,-3.84337 7.54967,-2.41654 15.32556,-4.11199 23.18558,-5.13037 1.18532,-0.15126 2.62244,-0.31844 3.90805,-0.44705 2.40717,-0.25262 5.00759,-0.42749 7.30875,-0.54123 2.54827,-0.10327 5.09797,-0.16118 7.64844,-0.1543 z"
       style="fill:#558139;fill-opacity:1;stroke-width:0.789474"
       id="path15" />
    <path
       d="m 511.33203,421.62109 c -8.67198,0.15641 -17.00073,3.33821 -24.42266,7.65304 -4.43628,2.54667 -8.5923,5.54361 -12.70005,8.57836 -13.09066,7.98052 -25.28501,17.68761 -35.01596,29.59868 -7.85359,9.62722 -13.97886,20.90533 -16.40477,33.16895 -0.64688,3.08677 -0.93884,6.23164 -1.18781,9.36894 -1.81264,11.82869 0.0185,24.06342 4.55317,35.09247 5.79036,14.16431 15.55374,26.47074 27.14404,36.35439 9.24835,7.84707 19.74802,14.29174 31.09254,18.61728 15.65079,3.63351 32.1191,2.82228 47.63673,-1.07937 7.53431,-1.90128 14.90439,-4.51649 21.90171,-7.8921 14.66154,-11.01015 27.08043,-24.8473 37.08243,-40.1795 2.93087,-4.5059 5.71201,-9.11474 8.25538,-13.84985 3.32171,-6.54546 4.38585,-14.08442 3.56437,-21.34241 -1.06315,-9.7777 -4.84376,-18.98535 -8.87743,-27.86552 -3.91302,-8.66659 -8.43127,-17.10046 -11.39513,-26.16281 -0.76891,-2.56389 -2.11129,-4.91702 -3.47087,-7.20861 -4.92984,-8.0322 -12.48128,-14.12813 -20.69563,-18.57133 -11.55619,-6.25893 -24.31809,-9.74491 -36.93474,-13.14726 -3.30819,-0.81311 -6.71889,-1.19941 -10.12532,-1.13335 z m 0.79688,8.18946 c 0.88876,0.008 1.80552,0.0245 2.5774,0.0737 1.52294,0.0767 3.08472,0.23282 4.49699,0.4253 1.913,0.25695 3.81795,0.616 5.62255,1.02587 2.63585,0.60253 5.12739,1.32327 7.71564,2.18953 10.04014,3.38697 19.46293,8.33439 28.67596,13.51187 6.12026,3.8175 10.75913,9.62099 14.05462,15.9697 1.90666,3.61962 3.49401,7.48452 4.90591,11.23404 3.40783,9.07288 6.20105,18.44695 10.94487,26.94973 3.3595,7.19446 5.05197,15.33003 3.81881,23.24086 -0.9474,6.60699 -3.84952,12.77782 -7.58446,18.25449 -9.7565,15.05468 -21.17788,29.26744 -35.33594,40.41427 -1.3633,0.96288 -2.93657,1.60499 -4.4176,2.37365 -14.51814,7.04562 -30.91884,10.4698 -47.03725,8.96002 -0.40088,-0.0397 -1.1941,-0.1256 -1.74515,-0.18297 -12.07104,-1.37848 -23.83476,-5.66653 -33.80173,-12.6432 -0.30738,-0.21595 -0.97625,-0.69906 -1.42204,-1.0173 -7.39776,-5.42235 -13.68532,-12.28837 -18.68343,-19.96512 -6.4059,-8.16639 -12.16298,-17.12581 -14.98838,-27.20607 -1.20008,-4.33438 -1.79542,-8.84803 -1.61123,-13.34666 0.0255,-0.43126 0.0464,-0.95732 0.0918,-1.4961 0.32155,-3.18405 0.84769,-6.34489 1.14259,-9.53292 0.81029,-7.11617 1.4601,-14.43727 4.45652,-21.03782 1.16931,-2.61909 2.83526,-4.99323 4.8378,-7.04126 5.42056,-6.08145 10.0627,-12.80913 15.50059,-18.87628 0.52475,-0.58628 1.23877,-1.35494 1.84961,-1.99609 0.34479,-0.34075 0.92406,-0.949 1.37509,-1.38162 3.38014,-3.37644 7.23844,-6.26371 11.44394,-8.53238 9.17418,-5.34328 17.07501,-12.73142 26.76007,-17.21709 4.52897,-1.88267 9.39962,-2.90272 14.2959,-3.10719 0.50671,-0.0245 1.41827,-0.0421 2.06055,-0.043 z"
       style="fill:#558139;fill-opacity:1;stroke-width:0.789474"
       id="path21" />
    <path
       d="m 512.2207,448.73242 c -8.85126,0.19273 -17.37405,3.46756 -24.80257,8.1378 -10.05897,6.30809 -18.49533,14.80107 -26.53898,23.44605 -1.95235,2.04968 -3.76384,4.23654 -5.77563,6.2267 -1.79124,1.1334 -2.99474,3.08329 -3.18338,5.19705 -0.37961,3.67567 0.69324,7.32495 0.42498,11.00703 -0.11618,2.79252 -1.02032,5.52356 -2.51535,7.87575 -2.24697,5.62526 -3.73642,11.84417 -2.47364,17.88779 1.17681,5.90674 4.92441,10.93123 9.26973,14.94442 1.41909,1.3222 3.1031,2.32562 4.54448,3.62819 8.71431,7.34968 15.56626,16.75878 24.98466,23.29712 1.91526,1.29556 3.90322,2.54391 6.03502,3.43349 15.38685,3.35414 32.01647,0.9284 45.6539,-7.00448 6.7338,-3.88897 12.68665,-9.11615 17.41139,-15.29113 6.31666,-6.51964 13.35295,-12.55257 18.06011,-20.4237 2.75562,-4.58822 4.43471,-10.05305 3.56802,-15.42668 -0.44076,-2.94713 -1.61133,-5.73687 -3.15883,-8.26743 -3.32364,-6.41716 -3.80777,-13.77548 -6.06197,-20.55787 -0.97102,-3.07011 -2.38217,-5.99718 -4.25797,-8.61832 -2.19317,-3.2551 -4.52939,-6.45422 -6.09292,-10.07778 -2.08425,-4.22471 -5.91467,-7.32399 -10.12034,-9.29486 -5.51018,-2.63476 -11.55803,-3.90499 -17.05743,-6.56685 -5.64336,-2.39746 -11.76988,-3.71187 -17.91328,-3.55229 z m 0.26172,6.53906 c 10.02463,0.12416 19.64513,3.57772 28.64258,7.74219 2.73173,1.31368 5.48308,2.60872 8.11914,4.10352 2.1732,1.62496 2.85194,4.39871 4.01174,6.71913 0.75855,1.77611 1.94976,3.29344 3.15338,4.77859 4.60902,6.13081 6.54802,13.71549 8.5456,20.96857 1.51146,5.58719 3.18851,11.18334 5.92612,16.31126 1.22649,2.85255 0.19051,6.03439 -1.04535,8.69323 -1.03996,2.28207 -2.46419,4.34958 -4.01325,6.31151 -8.93748,11.75261 -19.66747,22.03345 -31.10754,31.32318 -8.1132,3.44243 -16.61176,6.23404 -25.41992,7.10937 -0.42922,0.0413 -1.02156,0.0874 -1.54992,0.12016 -1.06572,0.068 -2.0237,0.10213 -3.1446,0.0938 -6.20499,0.003 -12.64729,-1.52987 -17.5282,-5.52669 -2.60552,-2.00081 -4.35096,-4.834 -6.67049,-7.1218 -6.99386,-7.21352 -15.54401,-12.8076 -21.98343,-20.57543 -3.11424,-3.79173 -5.60118,-8.42009 -5.62189,-13.4381 -0.0862,-3.56175 1.10768,-6.98664 2.5844,-10.17688 2.25745,-5.22739 3.67205,-11.03662 2.69308,-16.73494 -0.37176,-1.58726 -0.5326,-3.51755 0.74602,-4.75927 0.94861,-0.84697 2.19503,-1.31332 3.03815,-2.29941 6.03165,-6.25354 10.71772,-13.79131 17.56679,-19.24778 6.58454,-6.13245 14.40375,-11.28106 23.26526,-13.32991 3.20459,-0.7551 6.50136,-1.09652 9.79233,-1.06431 z"
       style="fill:#558139;fill-opacity:1;stroke-width:0.789474"
       id="path25" />
    <path
       d="m 510.9043,482.11523 c -2.30832,0.0324 -4.3502,1.26136 -6.37633,2.19813 -6.44283,1.5556 -12.85897,3.73951 -18.38257,7.4825 -3.64295,2.48609 -6.93533,6.01527 -7.821,10.46871 -0.41396,1.88842 -0.27295,3.85501 0.0838,5.73098 -0.24508,2.43163 -1.01874,4.82983 -0.83791,7.28961 0.19095,2.40357 2.16341,4.10315 4.10491,5.25171 2.25723,1.48172 4.95483,2.38381 6.72712,4.51977 2.84846,3.23413 3.93524,7.55824 6.36914,11.05664 2.01014,2.69727 5.33791,3.9666 8.57092,4.40997 2.70745,0.39123 5.44529,0.5566 8.13171,1.09381 6.07914,0.94182 12.41898,-0.56673 17.56083,-3.9022 6.73194,-4.32938 11.65987,-11.06456 14.73299,-18.37895 0.92543,-2.18315 1.56201,-4.47051 2.28991,-6.72053 0.98546,-3.53722 0.10054,-7.29877 -1.53147,-10.49895 -1.13447,-2.33789 -2.49368,-4.56509 -3.47364,-6.97776 -5.45813,-3.17909 -11.88093,-3.76455 -17.7207,-5.9414 -2.50066,-0.91524 -4.81908,-2.34677 -6.61719,-4.32618 -1.58101,-1.5084 -3.52815,-2.83888 -5.81054,-2.75586 z m -0.95118,6.98243 c 2.19353,0.26661 3.89915,1.84629 5.70237,2.98142 3.68004,2.60846 7.87673,4.61342 12.38692,5.18877 2.06031,0.16115 4.16162,0.57242 5.90068,1.75566 4.06458,2.67517 5.74476,7.95188 5.0617,12.62534 -0.5006,2.78026 -1.4641,5.47629 -2.71377,8.0074 -3.38173,6.73196 -9.35241,11.84115 -15.98438,15.23242 -2.2551,1.1341 -4.89596,0.95281 -7.33665,0.72436 -4.17946,-0.54644 -8.35577,-1.72349 -11.97293,-3.93206 -1.22947,-0.75324 -2.37359,-1.76869 -2.79979,-3.19464 -1.81068,-4.09988 -4.29196,-8.10986 -8.11357,-10.61111 -1.42706,-1.06619 -3.16696,-1.5784 -4.63186,-2.57077 -0.83459,-0.53621 -1.59919,-1.60001 -1.02801,-2.59547 0.64826,-1.0191 1.27143,-2.13347 1.18945,-3.38867 -0.0459,-1.30547 -0.79606,-2.49055 -0.69671,-3.82265 0.0172,-3.37942 2.34022,-6.20491 4.81218,-8.26733 3.69534,-2.97384 8.20647,-4.96924 12.90797,-5.62681 1.43231,-0.0381 3.00789,-0.14322 4.08222,-1.2198 0.93293,-0.69605 2.02707,-1.34882 3.23418,-1.28606 z"
       style="fill:#558139;fill-opacity:1;stroke-width:0.789474"
       id="path29" />
    <path
       d="m 510.05273,496.74414 c -3.48906,0.0299 -6.90996,0.80444 -10.24289,1.77957 -3.12562,0.90948 -6.53464,1.5219 -9.07546,3.70481 -2.08178,1.78331 -2.63322,4.71676 -2.30095,7.32425 0.40026,3.83097 1.85991,7.43049 3.07048,11.0527 0.53105,2.08794 0.8591,4.60521 2.82238,5.8771 1.16375,0.80384 2.61989,0.59599 3.92762,0.38657 4.62846,-0.36404 9.29722,1.05128 13.8924,-0.003 2.10731,-0.36004 3.9296,-1.5156 5.89483,-2.27316 2.63433,-1.01378 5.49659,-1.3083 8.29675,-1.0522 2.95688,0.0645 5.82833,-1.57088 7.32246,-4.11488 2.18449,-3.62424 2.37799,-8.14304 1.48809,-12.19372 -0.71433,-3.01344 -2.24225,-6.20083 -5.18946,-7.57226 -1.36916,-0.61316 -2.90317,-0.5164 -4.33848,-0.88832 -5.14087,-0.9773 -10.30046,-2.16062 -15.56777,-2.0277 z m 5.66016,6.41602 c 3.60914,0.11991 7.40755,0.4129 10.598,2.26272 1.63266,0.90283 2.7251,2.71591 2.53872,4.60251 -0.0309,1.18078 -0.48089,2.29562 -0.7829,3.41046 0.20094,0.84569 -0.30754,1.64703 -1.08059,1.97864 -2.54852,1.27375 -5.45024,1.48799 -8.20096,2.07663 -2.80343,0.53902 -5.7274,1.16614 -8.03641,2.94178 -3.57834,1.89101 -8.05028,1.00555 -11.21164,-1.31376 -2.70329,-1.9425 -4.92163,-5.14201 -4.52801,-8.60495 0.21512,-1.7034 1.08753,-3.3499 2.35144,-4.48855 4.61729,-1.69205 9.53519,-2.43233 14.42422,-2.7693 1.30749,-0.0864 2.61814,-0.10569 3.92813,-0.0962 z"
       style="fill:#558139;fill-opacity:1;stroke-width:0.789474"
       id="path31" />
    <path
       inkscape:export-ydpi="96"
       inkscape:export-xdpi="96"
       inkscape:export-filename="/Users/ivan/Documents/projects/nw_mobile/assets/app_icon/app_icon_white_fg.png"
       style="fill:#558139;fill-opacity:1;stroke-width:0.789474"
       id="path33"
       d="m 505.76869,512.39367 c -3.89763,1.85132 -1.14789,6.20053 2.40868,6.16658 4.74947,-0.19973 14.27685,-8.02815 11.43474,-12.87789 -4.8071,-1.44395 -10.155,3.90631 -13.84263,6.71052 z"
       fill="#c07c4b" />
    <path
       d="m 508.72266,257.7832 c -11.43032,0.17014 -22.8644,0.24143 -34.28978,0.62787 -24.36697,1.203 -48.60673,6.68873 -70.83634,16.81715 -18.14639,8.28526 -34.96438,19.84229 -48.2991,34.7569 -4.85227,5.50204 -9.12863,11.48166 -13.27435,17.52507 -17.68802,26.10861 -30.6848,55.04084 -48.20864,81.25348 -2.21557,3.21543 -4.43716,6.56597 -6.34515,10.02609 -7.57737,13.54773 -12.2818,28.49667 -15.57137,43.60901 -4.38681,20.18084 -6.5782,40.72717 -11.05809,60.88053 -1.01843,4.53282 -2.17173,9.17487 -3.49126,13.68458 -2.68093,9.17625 -4.7742,18.75789 -3.8651,28.37002 0.50853,6.20655 2.53521,12.26034 5.81487,17.55044 1.4538,2.45592 3.25689,4.67338 5.04453,6.88681 7.35107,9.85678 14.31147,20.17315 21.51494,30.21652 2.14036,2.99574 4.33852,5.96055 6.13004,9.18463 11.04262,18.81542 22.64671,37.51546 37.43563,53.66372 9.0453,9.95626 19.44351,18.66832 30.78509,25.89723 29.00792,19.48575 60.74845,35.01378 94.1724,45.28605 28.01496,8.56542 57.39824,13.29511 86.73656,11.9943 22.18459,-1.02033 44.3054,-5.6376 64.68526,-14.56606 18.91181,-8.22737 36.19036,-20.09548 50.86618,-34.56914 9.84754,-9.5732 20.02416,-18.81359 30.61813,-27.55613 1.48004,-1.20204 3.10673,-2.54632 4.6642,-3.77957 7.18895,-5.77171 14.61318,-11.24595 22.20273,-16.47781 14.55975,-10.55208 26.05345,-25.04485 33.83775,-41.19911 9.27503,-19.11528 13.81313,-40.27781 14.87603,-61.42417 0.32258,-6.4196 0.25991,-12.85611 0.0336,-19.27489 1.53875,-9.73073 0.99483,-19.78685 -1.60653,-29.28977 1.87877,-14.22365 7.66271,-27.65533 8.96093,-41.98218 0.31608,-3.921 0.28477,-7.88431 0.45187,-11.7532 0.4427,-17.84533 -4.09625,-35.64857 -12.16909,-51.51317 -9.70733,-19.12309 -24.06567,-35.5855 -40.43316,-49.31004 -9.76371,-8.17917 -20.36246,-15.30964 -31.3125,-21.79492 -5.71849,-10.88231 -14.76458,-19.79122 -25.19342,-26.18865 -6.76378,-4.22452 -14.03232,-7.56904 -21.43158,-10.51252 -11.87982,-12.70634 -25.43068,-24.10007 -41.01167,-31.99645 -14.83778,-7.55969 -31.23368,-11.68116 -47.7407,-13.41682 -14.17021,-1.58203 -28.45099,-1.68434 -42.69294,-1.6258 z m -17.94922,10.0625 c 3.71146,0.0363 7.47917,0.0521 11.11355,0.20411 1.42431,-0.0941 2.67103,0.68411 3.9927,1.09417 0.58047,0.21372 1.16094,0.42745 1.7414,0.64118 -1.60394,0.75765 -3.16825,1.65803 -4.81938,2.28 -19.11467,2.4409 -37.63696,8.54 -54.94863,16.91221 -2.53108,0.98049 -5.28048,1.14674 -7.87369,1.91606 -16.88262,4.01448 -33.14132,11.28267 -46.70554,22.20068 -13.90028,11.05332 -24.86809,25.28117 -34.46652,40.10525 -1.22553,1.8036 -2.29043,3.72454 -3.62456,5.44904 -14.2135,13.97995 -27.82429,28.55703 -41.28629,43.25785 -1.49088,0.85482 -2.98177,1.70964 -4.47265,2.56445 0.48969,-1.74615 0.8546,-3.55021 1.46996,-5.24729 8.83887,-13.9636 16.47772,-28.67403 24.63551,-42.99685 4.99514,-8.75069 10.31139,-17.59162 16.22953,-25.91012 0.97056,-1.37541 1.8797,-2.59059 2.89742,-3.96292 3.37071,-4.45321 6.94268,-8.74433 10.75928,-12.76694 6.55537,-6.93364 13.92646,-13.12059 22.04736,-18.14517 1.04461,-0.64612 2.3069,-1.40325 3.45166,-2.06793 5.535,-3.22978 11.09812,-6.4338 16.94244,-9.0796 16.22912,-7.50068 33.70694,-12.07633 51.40278,-14.40716 7.97663,-1.05661 16.1811,-1.68174 24.28926,-1.92042 2.34409,-0.0695 4.82849,-0.10868 7.22441,-0.1206 z m 63.44922,2.11914 c 2.24312,0.24338 4.5534,0.51748 6.69475,0.82692 6.37388,0.90134 12.73776,2.15386 18.88425,3.88826 3.57061,1.00094 7.23117,2.23155 10.59287,3.56021 1.89019,0.75685 3.59543,1.48452 5.44262,2.35092 6.41853,3.00627 12.56965,6.63771 18.15803,11.00221 1.2438,1.36146 2.48759,2.72292 3.73138,4.08437 -2.13033,-0.34069 -4.35809,-0.49296 -6.46473,-1.05249 -3.34261,-1.11117 -6.76465,-2.37527 -9.99035,-3.58227 -5.49379,-2.08291 -10.879,-4.43633 -16.22681,-6.86491 -10.96205,-4.6939 -22.42282,-8.19162 -34.11498,-10.52376 -1.4225,-0.58044 -2.56913,-1.65879 -3.90776,-2.4002 -0.86563,-0.37883 0.47722,-0.404 0.82529,-0.59931 1.23897,-0.31006 2.46568,-0.79993 3.72485,-0.95337 0.88353,0.0878 1.76706,0.17562 2.65059,0.26342 z m -36.89258,10.74024 c 3.2721,0.0292 6.63341,0.10385 9.81159,0.27843 1.49253,0.0659 3.16064,0.19375 4.53997,0.28407 1.91923,0.15387 3.83583,0.33553 5.75,0.54297 0.63258,0.0739 1.5886,0.19309 2.34528,0.28437 1.71387,0.54228 3.36109,1.34203 5.04935,1.98323 0.77342,0.23977 -0.7737,0.41379 -1.07794,0.62302 -1.46874,0.43941 -2.88174,1.11596 -4.39286,1.38086 -11.71532,-0.62642 -23.45803,-0.45272 -35.1855,-0.32434 -2.14798,-0.0277 -4.3013,0.154 -6.44536,0.008 -1.4388,-0.55013 -2.8776,-1.10026 -4.31641,-1.65039 1.45489,-0.746 2.93742,-1.62443 4.45683,-2.28824 1.96127,-0.22123 3.90876,-0.41766 5.80386,-0.56168 2.50073,-0.20254 5.04245,-0.34708 7.46814,-0.4337 2.01531,-0.0783 4.10896,-0.1109 6.19305,-0.12653 z m 70.12109,12.42773 c 1.20934,-6.6e-4 2.28508,0.6703 3.43831,0.96432 16.20736,5.48349 31.97396,12.19552 47.43279,19.51029 4.91045,4.94451 9.60127,10.11551 14.71657,14.85087 9.16495,7.7516 19.06089,14.57229 28.95921,21.34054 3.15164,7.27367 6.30926,14.72602 11.52934,20.80123 2.87245,3.49507 5.63621,7.1054 7.98175,10.97627 0.77104,1.68159 1.54208,3.36318 2.31313,5.04476 -2.55981,-1.38867 -5.26194,-2.56533 -7.54806,-4.40059 -15.64482,-11.46198 -32.6969,-20.94385 -47.71952,-33.26542 -3.17896,-2.45612 -5.98796,-5.34206 -8.63756,-8.35049 -11.94525,-12.9414 -24.56312,-25.45507 -39.12799,-35.45647 -4.57149,-3.10784 -9.35834,-5.90414 -14.31648,-8.34343 -1.18888,-1.16049 -2.31968,-2.38665 -3.48633,-3.57227 1.48829,-0.032 2.97639,-0.0765 4.46484,-0.0996 z m -79.7832,3.22461 c 7.89962,0.0119 15.83798,0.0372 23.68054,0.36546 14.90121,0.63991 29.93341,2.32136 44.10014,7.2065 4.13707,1.41005 8.30904,3.16389 12.13924,5.07453 5.97215,2.99626 11.60519,6.65463 16.82813,10.81836 0.3788,0.30469 1.03383,0.84278 1.51848,1.23691 5.74726,4.76592 10.91596,10.19043 15.67501,15.93344 3.21872,3.54404 6.66005,6.87877 10.01494,10.29238 7.50946,7.52459 15.38288,14.83003 24.45757,20.44406 5.01674,2.9703 10.17219,5.71188 15.03417,8.93778 5.37693,3.43087 10.6135,7.08477 15.6592,10.98746 10.77632,8.37468 20.883,18.03067 29.05238,29.08619 2.10827,2.8623 4.07757,5.82947 5.84996,8.91185 0.62598,0.93369 0.86573,2.25684 1.26398,3.37492 3.11498,9.85003 5.84596,19.85628 8.59801,29.85896 0.3563,1.48037 0.90971,2.93321 1.13879,4.43135 0.12211,8.30155 -1.68304,16.51335 -4.35989,24.33371 -3.94719,13.11929 -4.73705,26.93228 -4.66808,40.55692 0.0388,11.69911 0.67065,23.39739 0.28891,35.09649 -0.0778,2.38348 -0.20969,5.01244 -0.39453,7.37109 -0.57755,7.89781 -1.90252,15.95303 -4.28389,23.60204 -0.98389,3.17021 -2.19299,6.26325 -3.18486,9.43116 -3.34063,10.0169 -9.41486,18.94351 -16.74623,26.4707 -6.36197,6.73894 -13.74227,12.4964 -21.11132,17.98486 -11.68814,8.77633 -23.9804,16.87579 -34.48122,27.11422 -3.93791,4.14621 -7.92419,8.25131 -12.14017,12.11874 -8.89161,8.23666 -18.42837,15.83515 -28.78821,22.14942 -2.3094,1.37088 -4.69743,2.65242 -7.05642,3.77451 -1.78234,0.85502 -3.71344,1.68397 -5.63932,2.42662 -0.64057,0.24549 -1.58691,0.59094 -2.34961,0.85742 -5.70672,1.98575 -11.48563,3.76935 -17.35156,5.22461 -1.11499,0.26833 -2.47653,0.61207 -3.6942,0.88037 -8.7712,2.00346 -17.68292,3.37616 -26.64369,4.17236 -1.35226,0.10502 -2.94142,0.24634 -4.38736,0.33276 -12.17024,0.81483 -24.57456,0.55691 -36.78418,-0.71129 -1.92115,-0.20115 -3.77795,-0.41181 -5.63604,-0.65801 -4.0746,-0.52085 -7.99897,-1.13439 -12.06349,-1.87432 -4.12073,-0.74583 -8.35253,-1.64943 -12.34182,-2.59109 -1.60386,-0.39681 -3.11403,-0.75373 -4.65646,-1.16788 -11.24464,-2.92336 -22.26687,-6.69749 -32.95096,-11.26181 -1.11309,-0.49584 -2.46597,-1.06522 -3.66291,-1.61136 -27.83693,-12.50049 -53.39003,-30.58573 -73.20994,-53.89681 -8.57691,-10.05996 -15.99236,-21.10755 -22.02824,-32.87019 -7.28214,-13.89533 -15.15976,-27.58223 -24.97714,-39.8645 -3.93045,-4.94241 -8.22785,-9.58234 -12.7598,-13.97619 -2.51719,-2.41325 -4.0605,-6.03782 -3.33553,-9.5331 0.83026,-3.33614 2.59155,-6.34409 3.6578,-9.60267 5.66772,-14.96048 8.36837,-30.82521 10.42729,-46.6279 0.99549,-7.47995 1.92848,-15.05818 3.07597,-22.39228 1.56903,-9.92308 3.57058,-19.72993 6.85105,-29.25075 2.08414,-6.09709 4.65833,-12.06307 7.65982,-17.70551 2.97575,-5.64275 6.48487,-10.98958 10.31952,-16.08296 3.02575,-4.40801 5.69141,-9.05008 8.47714,-13.61049 7.79472,-12.96017 15.37956,-26.12599 23.42098,-38.88935 3.93458,-6.15392 7.88665,-12.3186 12.42578,-18.05078 4.24509,-3.61351 8.42637,-7.30629 12.77037,-10.80078 6.53842,-5.10716 13.39209,-9.79812 19.81132,-15.06017 3.8995,-3.11054 7.83725,-6.26636 11.85996,-9.10379 2.19041,-1.49905 4.35312,-3.0764 6.72242,-4.28136 2.77992,-1.18569 5.72269,-1.92683 8.60963,-2.80002 11.6272,-3.23715 23.64142,-4.9534 35.70922,-5.8354 6.12362,-0.44022 12.3645,-0.70087 18.56669,-0.70322 5.34086,-0.0289 10.6818,-0.0134 16.02266,-0.0442 z m 193.25,67.3711 c 1.99307,1.03034 4.06597,1.96122 5.78493,3.43389 3.99993,3.02888 7.90269,6.18719 11.66819,9.50361 0.59969,0.54666 1.43142,1.2862 2.11914,1.9082 6.99475,6.38994 13.38541,13.4753 18.68475,21.34182 2.27344,3.28226 4.54245,6.73928 6.53791,10.09763 0.59452,1.00626 1.08665,1.87201 1.6582,2.89063 0.62848,1.12837 1.34874,2.47155 1.96522,3.71014 3.49172,6.97107 6.23113,14.3218 8.09728,21.89337 0.91262,3.67528 1.65546,7.58315 2.16797,11.40821 1.57,11.91126 1.15448,24.23794 -0.93313,36.13776 -0.56418,3.38164 -1.39444,6.72882 -2.24013,9.98781 -0.51643,2.03789 -1.05556,4.06982 -1.59041,6.10294 -2.44929,-4.4957 -4.8964,-9.00323 -6.9375,-13.70312 -0.41135,-0.95457 -0.89951,-2.15251 -1.31781,-3.21363 -1.54815,-3.85069 -2.8886,-7.78134 -4.13336,-11.7395 2.30358,-15.02286 0.12623,-30.68572 -6.15798,-44.52242 -2.48741,-5.56363 -5.6051,-10.82205 -9.03728,-15.85036 -1.44833,-2.03519 -1.84214,-4.57234 -2.88921,-6.80571 -2.77573,-7.19137 -6.27348,-14.12182 -10.66803,-20.46527 -3.8687,-5.94447 -8.00856,-11.71228 -11.84583,-17.67565 -0.79508,-1.73473 -1.59233,-3.46899 -2.38605,-5.20403 0.48438,0.25456 0.96875,0.50912 1.45313,0.76368 z m -376.69336,44.85351 c -0.37321,1.2935 -0.60795,2.65067 -1.11777,3.89099 -5.24205,8.09498 -10.19073,16.41483 -14.09902,25.246 -2.13018,4.6474 -3.95635,9.42337 -5.6561,14.24273 -0.87011,2.41922 -1.94326,4.97246 -2.94547,7.42302 -0.77764,-4.14513 -1.37707,-8.32055 -2.07032,-12.47906 -0.70224,-3.61729 -1.18377,-7.34245 -0.578,-11.01123 0.77242,-5.58991 3.69377,-10.9086 8.23343,-14.312 1.98566,-1.59304 4.29018,-2.73086 6.54755,-3.85687 2.62998,-2.60827 5.12444,-5.34735 7.71109,-7.99709 1.44466,-0.83008 2.88932,-1.66016 4.33398,-2.49024 -0.11979,0.44792 -0.23958,0.89583 -0.35937,1.34375 z m -34.86719,32.33399 c 0.60404,2.9997 1.19815,6.00802 1.39729,9.06712 0.48061,4.73312 0.94502,9.49246 1.16521,14.1692 0.47813,9.35741 -0.21819,18.86843 -3.06435,27.83739 -1.72825,5.5791 -4.21491,10.90985 -7.25791,15.88918 -1.55491,3.49606 -2.75192,7.138 -4.01799,10.74483 -4.4102,13.13913 -7.38145,26.95327 -6.92635,40.8763 0.1754,6.36923 1.20995,12.69035 2.79395,18.85348 0.24463,1.93741 0.24649,3.90312 0.40625,5.85156 -1.47592,-1.64995 -3.13702,-3.15453 -4.42969,-4.95703 -1.91218,-3.11669 -4.18752,-6.12906 -5.03063,-9.75704 -1.95313,-7.19597 -1.12001,-14.77109 0.17336,-22.00391 0.3245,-1.75381 0.6752,-3.48109 1.05233,-5.1485 2.72417,-12.19755 6.94503,-24.0262 9.22784,-36.32658 0.73118,-4.0605 1.0649,-8.21452 1.53185,-12.24701 0.51008,-4.40794 1.11216,-8.82909 1.80531,-13.15172 1.60356,-10.0492 3.79463,-20.15596 6.79925,-29.95921 0.80051,-2.58861 1.56735,-5.19619 2.75049,-7.64205 0.4716,-1.08018 0.9432,-2.16036 1.41481,-3.24055 0.0697,0.38151 0.13932,0.76303 0.20898,1.14454 z m 451.95899,50.65234 c 2.95472,8.45938 6.25997,16.80722 10.25097,24.83563 -0.17722,1.85111 -0.47473,3.75252 -0.54355,5.63727 -0.27308,4.77318 0.16295,9.57924 1.22859,14.23586 0.52117,4.9352 0.83885,9.8911 0.97219,14.85179 0.0293,1.46791 0.0598,3.15656 0.0606,4.70898 -1.58039,4.48214 -3.67809,8.76049 -5.93946,12.93359 -0.56148,1.0202 -1.24544,2.26788 -1.87369,3.36458 -3.60494,6.51277 -8.36694,12.26878 -12.77342,18.23797 -0.35088,0.46501 -0.70156,0.9302 -1.05211,1.3955 1.00404,-7.5466 2.16619,-15.08718 2.48839,-22.70305 0.83203,-15.96989 -0.19485,-31.96273 0.29677,-47.93953 0.0743,-2.30309 0.18792,-4.80944 0.34246,-7.10334 0.18096,-2.63975 0.37726,-5.23492 0.6813,-7.81077 0.71378,-6.3317 2.02785,-12.57287 3.46004,-18.77523 0.13986,-0.45906 0.24752,-1.46415 0.4065,-1.59903 0.66482,1.90993 1.32964,3.81985 1.99447,5.72978 z m -447.50196,10.86328 c 0.19525,2.01704 0.64841,4.04422 0.29749,6.06908 -0.35339,3.70561 -0.85792,7.38258 -1.49332,10.99637 -0.44454,2.51854 -0.94809,4.99142 -1.51123,7.38316 -1.26486,5.41912 -2.94483,10.89255 -4.9277,15.9928 -1.64908,4.19641 -3.56998,8.46639 -5.8495,12.44906 -0.67631,1.20863 -1.36355,2.41106 -2.05089,3.61344 -0.17496,-3.5837 -0.39028,-7.17302 -0.24024,-10.76172 0.0391,-0.94192 0.144,-2.14387 0.24562,-3.17541 0.99241,-11.06592 4.40512,-21.79089 9.04431,-31.84362 1.19167,-2.6264 2.15029,-5.34299 3.43486,-7.92214 0.96087,-1.44409 1.92175,-2.88818 2.88263,-4.33227 0.056,0.51042 0.11198,1.02083 0.16797,1.53125 z m -13.92968,64.08008 c 4.90428,4.89715 10.02149,9.60303 14.48496,14.92156 4.51675,5.2605 8.6339,10.85395 12.47207,16.62531 0.98916,1.49355 2.07663,3.17106 3.07127,4.75724 5.46753,8.72741 10.38919,17.68051 15.23782,26.76749 0.67619,1.82658 1.19289,3.72057 1.80809,5.57293 -1.77626,-1.20555 -3.71356,-2.28785 -5.38872,-3.66461 -8.11865,-7.72615 -15.87738,-15.87643 -22.7039,-24.7791 -5.27878,-6.91108 -10.01077,-14.28332 -13.60659,-22.21645 -0.25554,-0.5742 -0.64834,-1.44551 -0.93527,-2.14337 -2.06637,-4.81502 -3.58403,-9.84704 -4.72314,-14.95683 -0.0119,-0.36663 -0.60974,-1.77068 -0.16821,-1.33446 0.15054,0.1501 0.30108,0.30019 0.45162,0.45029 z m 470.93945,14.91406 c -0.30035,3.18718 -0.35134,6.41557 -1.15736,9.53235 -0.33148,1.57416 -0.70623,3.17569 -1.10241,4.79773 -0.42652,1.72238 -0.94195,3.63915 -1.4517,5.42431 -1.9517,6.75219 -4.39196,13.36588 -7.35689,19.73975 -0.434,0.90962 -0.98179,2.0688 -1.48292,3.06155 -6.62042,13.31673 -15.80386,25.41283 -27.20863,34.99337 -4.16041,3.59743 -8.75064,6.65488 -13.23402,9.78403 -1.95734,1.35001 -3.74633,2.92344 -5.75005,4.20923 -9.5852,6.86317 -19.29895,13.73821 -27.36385,22.41123 -2.21249,2.41145 -4.34975,4.98531 -6.53492,7.27009 -10.92013,11.67743 -23.41584,21.86158 -37.25817,29.94737 -7.85251,4.60604 -16.10503,8.52259 -24.62057,11.73915 -0.75791,0.27169 -1.79271,0.66707 -2.56075,0.93987 -8.02422,2.87937 -16.26535,5.14408 -24.62089,6.83161 -0.83227,0.1619 -1.92327,0.38156 -2.78295,0.53476 -15.25129,2.81389 -30.83335,3.68297 -46.31666,2.98087 -1.39724,-0.0794 -3.03091,-0.14951 -4.51808,-0.25774 -3.29396,-0.2095 -6.5983,-0.50297 -9.81686,-0.84478 -2.40641,-0.26879 -4.83101,-0.51269 -7.21382,-0.90051 -1.487,-0.72946 -2.974,-1.45892 -4.461,-2.18838 1.6479,-0.5931 3.28582,-1.25319 4.95738,-1.75687 31.66332,-0.73548 63.21381,-7.54544 92.22602,-20.2897 34.52912,-15.11775 65.30527,-38.88936 88.27754,-68.80695 1.27428,-1.07374 2.71182,-1.94427 4.03186,-2.96484 11.14422,-8.03081 22.15755,-16.60929 30.57877,-27.58004 3.05745,-3.92662 5.6178,-8.21249 7.89327,-12.6309 1.55841,-1.82609 3.24344,-3.55999 4.81686,-5.38151 7.23812,-8.16518 14.05174,-16.72824 20.06169,-25.84173 1.32285,-1.58409 2.64717,-3.17097 3.96911,-4.75332 z m -446.67383,45.47656 c 1.75049,0.99767 3.58086,1.89225 5.08718,3.25129 2.63504,1.97692 5.32287,3.8828 7.88936,5.95217 19.42845,15.25591 36.26058,33.42664 53.46458,51.06435 10.40994,10.70006 20.97034,21.28397 32.31669,30.99977 0.9974,1.48503 1.99479,2.97005 2.99219,4.45508 -1.868,-0.46247 -3.79561,-0.75368 -5.60937,-1.39453 -6.44831,-3.36461 -12.75409,-7.00261 -18.9629,-10.79102 -10.44062,-6.42809 -20.69688,-13.52186 -30.36978,-21.1767 -4.66911,-3.64338 -9.05553,-7.75664 -13.18545,-12.08853 -1.41154,-1.49022 -2.77668,-2.97168 -4.04792,-4.44189 -1.14357,-1.29585 -2.37668,-2.76014 -3.40856,-3.99991 -0.86765,-1.07962 -1.7262,-2.10756 -2.5265,-3.14099 -8.50793,-10.81374 -15.83934,-22.4838 -23.06725,-34.17346 -0.62956,-1.75651 -1.25912,-3.51302 -1.88868,-5.26953 0.43881,0.2513 0.87761,0.5026 1.31641,0.7539 z m 103.48828,83.79688 c 1.50344,0.4128 3.03213,0.63109 4.49318,1.2596 29.07401,14.89442 61.1763,23.86478 93.76697,26.1284 0.86293,0.0245 1.9424,0.15344 2.7816,0.62725 1.14755,0.48125 2.29509,0.96249 3.44263,1.44373 -1.64353,0.68563 -3.25463,1.51266 -4.9395,2.06009 -7.95853,0.71959 -15.96055,1.02822 -23.94917,0.75241 -2.06047,-0.0722 -4.42492,-0.20064 -6.47461,-0.35742 -3.29512,-0.25513 -6.43823,-0.59775 -9.70899,-1.06836 -0.70558,-0.1131 -1.53973,-0.22618 -2.27078,-0.35199 -8.20626,-1.34049 -16.30145,-3.44655 -24.04367,-6.49371 -1.3977,-0.55855 -2.99995,-1.21636 -4.45206,-1.87315 -9.72696,-4.33703 -18.78046,-10.23386 -26.53622,-17.54287 -1.18094,-1.21308 -1.96966,-2.74962 -2.97996,-4.10341 -0.4779,-0.59734 -0.79637,-1.08303 0.1883,-0.65617 0.22743,0.0585 0.45486,0.11707 0.68228,0.1756 z"
       style="fill:#558139;fill-opacity:1;stroke-width:0.789474"
       id="path37" />
    <path
       d="m 513.24219,368.56836 c -3.17462,-0.0126 -6.31747,0.51525 -9.47681,0.70873 -1.79987,0.0344 -3.42702,0.1163 -5.23804,0.25221 -1.37453,0.10302 -2.98187,0.26459 -4.44094,0.44468 -8.14013,1.01547 -16.1498,3.08531 -23.75242,6.1686 -0.42587,0.17616 -1.143,0.46907 -1.58986,0.66583 -1.50181,0.64117 -3.04085,1.34464 -4.41123,2.02705 -4.4881,2.20889 -8.84174,4.80598 -12.88177,7.64153 -3.2168,2.21766 -6.23481,4.70365 -9.27916,7.14549 -13.90878,10.27945 -27.93189,20.62362 -39.81063,33.27791 -2.47532,2.24226 -4.73007,4.72085 -6.78321,7.35352 -0.35901,0.47447 -0.92689,1.21426 -1.3447,1.80434 -2.23908,3.05799 -4.05143,6.39199 -6.027,9.61852 -3.53773,6.13356 -6.24149,12.75916 -7.87439,19.65331 -0.1753,0.7781 -0.41701,1.84617 -0.58217,2.74348 -0.22231,1.15795 -0.41502,2.33848 -0.56071,3.40889 -0.27203,1.79847 -0.38622,3.85996 -0.56419,5.77622 -0.34532,2.5139 -0.80292,5.01173 -1.19095,7.51877 -0.69751,3.23052 -1.77052,6.36415 -2.57746,9.56762 -1.30313,4.69942 -2.55738,9.58134 -3.546,14.25455 -0.90779,4.29517 -1.65333,8.76844 -2.07813,13.05273 -0.38636,3.99095 -0.53673,7.8722 -0.3344,11.90568 0.46406,9.04798 2.77139,18.00487 6.86481,26.0948 4.46185,9.04461 10.64338,17.08608 16.99108,24.86866 3.17396,5.08401 6.61522,10.01087 10.53543,14.55066 1.25347,1.46832 2.44602,2.79157 3.80298,4.23094 7.59701,8.05554 16.38292,14.94501 25.84909,20.67153 2.48926,1.72786 4.75563,3.75093 7.20777,5.53009 10.07189,7.63244 20.71294,14.6549 32.3059,19.76483 0.79381,0.33948 1.84547,0.78229 2.75636,1.12938 2.26289,0.87741 4.57147,1.63873 6.92137,2.24757 0.37931,0.0932 1.14459,0.28948 1.67775,0.40054 3.92805,0.88033 7.95846,1.12807 11.95089,1.56669 3.18283,0.30288 6.37317,0.52305 9.56667,0.67535 0.86224,0.0303 2.00818,0.0796 2.98195,0.10213 10.26212,0.23945 20.6493,-0.38883 30.58982,-3.10018 8.49194,-2.30644 16.56634,-6.23949 23.43908,-11.75732 2.26432,-1.7637 4.37542,-3.71871 6.52626,-5.60986 13.72721,-8.67793 25.51751,-20.04308 36.3125,-32.0918 4.0734,-4.54148 8.09567,-9.35153 11.99463,-14.12657 1.00701,-1.2092 1.95453,-2.48525 2.99821,-3.65326 4.49553,-2.92057 9.25504,-5.40073 13.97352,-7.93001 3.93016,-2.65504 6.57123,-6.72463 9.05038,-10.67248 5.18607,-8.63106 8.96564,-18.12105 11.06858,-27.9702 0.85216,-4.33145 1.34259,-8.8586 0.41494,-13.21756 -0.59742,-2.64321 -2.29002,-4.82136 -3.31598,-7.29139 -1.45746,-3.24401 -2.69198,-6.61959 -3.44013,-10.09556 -0.10171,-2.47681 -0.27468,-5.00117 -0.51106,-7.38397 -0.21179,-2.18567 -0.464,-4.20056 -0.78235,-6.38453 -0.43134,-2.97803 -1.01137,-6.16336 -1.65942,-9.20035 -0.71002,-3.43456 -1.64592,-6.81786 -2.51084,-10.21312 -1.37673,-7.43742 -3.50288,-14.85397 -7.44106,-21.3702 -7.88388,-14.31405 -14.88575,-29.14941 -23.91168,-42.80721 -7.35108,-11.12939 -16.40787,-21.77212 -28.13575,-28.5667 -6.56094,-3.86906 -13.91486,-6.26568 -21.41933,-7.45548 -10.90331,-2.07108 -22.05792,-4.06238 -33.06601,-5.1575 -5.0652,-0.49409 -10.14953,-0.86052 -15.24219,-0.76758 z m -3.00196,8.53125 c 3.25495,0.0696 6.54074,0.0709 9.7304,0.80657 4.16549,0.75215 8.39525,1.10015 12.55887,1.84572 13.23766,3.07593 25.8475,8.83955 36.78177,16.91745 3.47793,2.53589 7.2418,4.65775 10.70278,7.22177 20.09747,14.23577 37.00372,33.25511 47.6754,55.53076 3.33408,6.98622 6.09732,14.26041 8.0619,21.7514 0.34448,1.5453 0.37851,3.14648 0.84826,4.67047 1.06769,3.73684 1.97128,7.52866 2.37297,11.40146 1.84315,14.30889 1.13472,28.94805 -2.124,43.00366 -0.88093,3.88773 -2.40235,7.59341 -3.94624,11.25699 -4.72275,10.85725 -11.34575,20.78965 -18.82031,29.93555 -8.48992,3.27851 -15.60523,9.24987 -21.8357,15.75217 -8.39147,8.7605 -15.44925,18.60728 -23.56613,27.63205 -0.5512,0.59402 -1.34389,1.60063 -2.12356,2.27593 -1.64112,1.28743 -3.5192,2.2474 -5.3321,3.27179 -12.40018,6.76827 -26.49382,10.05848 -40.55656,10.58031 -15.73406,0.59281 -31.49026,-2.05306 -46.43821,-6.88814 -12.88846,-4.20347 -25.26105,-10.02474 -36.67115,-17.35014 -1.99608,-1.1701 -3.66883,-2.77493 -5.42464,-4.2627 -7.65192,-6.65028 -14.87279,-13.78356 -21.80154,-21.18008 -1.65933,-1.67207 -3.63997,-2.97236 -5.38172,-4.5548 -1.59828,-1.43191 -3.32793,-2.79029 -4.46592,-4.64009 -6.57907,-9.41243 -11.57033,-19.99023 -14.17277,-31.19695 -3.5681,-14.8182 -3.52469,-30.22237 -2.40013,-45.33669 0.70566,-9.33089 1.80355,-18.62635 2.88915,-27.91815 0.48232,-2.79327 1.50391,-5.4398 2.29683,-8.15015 3.60776,-11.1315 8.30073,-22.08298 15.39235,-31.46989 5.47018,-7.27425 12.48228,-13.48079 20.70281,-17.46713 5.67738,-2.81262 11.82494,-4.5643 18.06173,-5.59864 1.90075,-0.35699 3.80151,-0.71398 5.70226,-1.07097 -9.56965,8.16741 -19.19168,16.30207 -28.12697,25.1707 -6.98957,7.01034 -13.53631,14.6438 -18.04162,23.52121 -5.16169,9.92957 -7.37837,21.08045 -8.49274,32.13008 -0.80312,8.21972 -1.10209,16.35164 -1.22018,24.58191 -0.0659,2.11968 0.0225,4.23606 0.32579,6.33634 0.36318,3.0163 0.88253,6.01271 1.52252,8.98242 0.096,0.42403 0.3015,1.34677 0.40852,1.78463 0.39496,1.6679 0.8838,3.49884 1.32976,5.03568 1.15385,3.95076 2.59767,7.97763 4.16016,11.67969 3.22544,7.6439 7.29128,14.92691 12.03906,21.72851 0.36617,0.52429 0.89404,1.25845 1.32226,1.86328 0.36938,0.48857 0.91894,1.24191 1.35743,1.83203 0.52503,0.68537 1.21092,1.60195 1.82185,2.36278 14.51332,18.40489 33.98049,32.98946 55.97335,41.19665 14.9392,5.53209 31.36548,7.95236 47.30636,5.89761 3.70043,-0.47376 7.36923,-1.18565 10.98047,-2.1211 0.55111,-0.14925 1.41791,-0.3741 2.09251,-0.57091 4.82866,-1.36481 9.5108,-3.20111 14.07044,-5.28448 4.19173,-1.58458 8.24609,-3.52594 12.13002,-5.75984 1.09484,-0.6259 2.37897,-1.40361 3.52148,-2.13086 1.2692,-0.80681 2.70886,-1.76667 4.00457,-2.69206 2.61449,-1.85057 5.13847,-3.82855 7.52636,-5.87089 11.40856,-9.78365 20.75454,-21.70717 29.17357,-34.09056 3.68245,-5.37519 7.10794,-10.91937 10.6249,-16.40191 2.87767,-4.30561 5.43518,-8.8505 7.21256,-13.72757 0.91789,-2.43373 1.68233,-4.95871 2.28418,-7.40905 0.5483,-2.20904 1.00465,-4.64907 1.31448,-6.77085 0.81146,-5.65042 0.96516,-11.38223 0.60938,-17.07617 -0.12596,-1.95489 -0.30555,-4.1048 -0.56426,-6.12518 -0.45027,-3.8293 -1.12336,-7.62954 -1.93379,-11.39826 -0.13054,-0.58564 -0.34066,-1.49536 -0.50172,-2.2053 -2.81171,-11.78394 -6.99928,-23.20635 -11.91812,-34.26472 -2.03605,-4.62937 -4.37851,-9.12874 -7.17719,-13.34589 -7.87929,-12.0541 -18.59781,-22.10415 -30.67862,-29.87412 -15.08876,-9.77476 -32.14729,-16.20047 -49.6257,-20.17755 -5.04562,-1.21363 -10.21847,-1.99563 -15.41935,-1.89414 -6.83646,0.0273 -13.6164,1.3188 -20.1184,3.38343 -1.78657,0.52714 -3.57315,1.05428 -5.35973,1.58141 3.40413,-3.56676 6.57751,-7.36772 10.25586,-10.66211 2.82202,-2.46984 6.0348,-4.64456 9.67225,-5.67607 2.44634,-0.37044 4.95306,-0.24881 7.4215,-0.3083 z m -26.85742,7.18945 c -4.80798,6.25795 -10.88165,11.5555 -17.83866,15.30114 -8.1351,4.52717 -17.02065,7.53973 -25.98556,9.92933 -0.5793,0.0963 -1.25304,-0.10212 -1.73213,-0.36086 -0.30786,-0.55531 -0.61703,-1.10988 -0.92607,-1.66453 0.43861,-0.81378 0.884,-1.66196 1.75586,-2.08398 9.92312,-6.99177 20.16622,-13.52393 30.52344,-19.84571 4.93598,-2.25185 10.11157,-3.90452 15.31385,-5.41506 0.95333,-0.28742 1.90665,-0.57485 2.85998,-0.86228 -1.32357,1.66732 -2.64714,3.33463 -3.97071,5.00195 z m 98.88672,6.58399 c 3.72002,2.03933 7.26497,4.50246 10.24561,7.52021 0.66748,1.4223 1.33496,2.8446 2.00244,4.2669 -1.56417,-0.47018 -3.17424,-0.84901 -4.71019,-1.37534 -1.06622,-0.81294 -2.07911,-1.61163 -3.10082,-2.35709 -2.14737,-1.64107 -4.41243,-3.14545 -6.58485,-4.73322 -0.88563,-1.30963 -1.77125,-2.61926 -2.65688,-3.92889 1.60157,0.20248 3.20313,0.40495 4.80469,0.60743 z m -73.73242,6.46679 c 13.48342,-0.0356 26.77367,3.50323 39.05171,8.9137 13.65566,6.07806 26.3016,14.34329 37.6143,24.09412 3.94753,3.86078 7.29337,8.28755 10.44274,12.80812 7.46214,10.89802 13.1196,22.99026 17.09583,35.57156 3.98252,12.6984 6.16726,26.08702 5.30608,39.41188 -0.66901,9.98668 -3.25927,19.98187 -8.51326,28.56923 -1.91451,3.28824 -3.61433,6.6968 -5.5968,9.94674 -9.99211,16.91462 -22.83053,32.37504 -38.75433,44.00909 -12.8479,9.42005 -27.79617,16.16544 -43.58144,18.6547 -13.81104,2.24843 -28.12068,1.1211 -41.46023,-3.07122 -16.39848,-5.12074 -31.1761,-14.71381 -43.40819,-26.68324 -12.31873,-12.04352 -22.25043,-26.38503 -30.07156,-41.69718 -4.08186,-7.86674 -5.56594,-16.81044 -5.77423,-25.59457 -0.23842,-10.63325 1.26306,-21.25529 2.39743,-31.763 0.45889,-3.92308 0.61286,-7.90034 1.62109,-11.73829 2.41172,-9.52216 7.65641,-18.06472 13.73871,-25.67562 9.9483,-12.33717 22.13911,-22.65066 34.86862,-32.00149 8.38747,-6.11788 17.07671,-11.83007 26.0259,-17.09054 8.98035,-4.43222 18.99935,-6.62125 28.99763,-6.66399 z"
       style="fill:#558139;fill-opacity:1;stroke-width:0.789474"
       id="path39" />
  </g>
</svg>
