<svg width="200" height="196" viewBox="0 0 200 196" fill="none" xmlns="http://www.w3.org/2000/svg">
<path d="M196.572 113.063C197.365 110.857 196.848 108.968 196.392 107.301C195.949 105.681 195.566 104.282 196.248 102.625C200.238 92.054 201.024 83.5612 198.71 75.95C198.778 75.8496 198.839 75.7492 198.896 75.6504C200.358 73.1154 199.222 70.5869 196.189 63.8274C195.865 63.1034 195.516 62.3291 195.146 61.4982C194.801 60.7239 194.42 59.8994 193.948 58.9081C193.505 57.7127 192.929 56.5303 192.191 55.2976C191.328 53.545 190.439 51.7357 189.62 49.9343L189.51 49.693C188.125 46.6429 186.816 43.7628 184.082 43.1877C183.997 43.1699 183.777 43.0808 183.209 42.7827C182.25 41.1581 181.091 39.5513 179.23 38.5859C178.393 38.1307 177.553 37.7469 176.739 37.3759C174.436 36.3247 172.261 35.3333 170.64 32.8954C169.692 31.078 168.233 29.8551 166.822 28.6741C165.51 27.5743 164.271 26.536 163.587 25.0944C161.556 21.1599 159.024 20.1458 156.341 19.0722C155.106 18.5782 153.829 18.0663 152.499 17.2321C150.499 15.9671 148.535 14.5838 146.636 13.2458C143.426 10.9846 140.106 8.64718 136.489 6.78615C130.382 3.08654 124.732 3.12544 119.267 3.16106C114.683 3.19508 110.353 3.22099 105.677 1.22055C101.512 -1.0488 97.3498 0.302145 93.3276 1.6093C89.5469 2.83708 85.9754 3.99686 82.2937 2.46778L82.2434 2.44834C80.2598 1.76157 78.2096 1.05208 75.9745 1.29993C72.0721 1.72106 68.1858 2.9991 64.4265 4.23659C63.6999 4.47632 62.9748 4.71441 62.2531 4.94604C54.4483 6.4087 46.3661 8.37512 40.091 12.789C33.9163 17.1347 29.6263 23.645 26.5948 33.2794L26.5672 33.3879C25.9557 36.723 24.0273 40.047 22.1622 43.2619C20.1721 46.6926 18.1155 50.2383 17.5674 53.9168L17.5609 53.9734C17.3566 56.3529 15.7281 58.7226 14.1516 61.0145C12.9952 62.6958 11.8014 64.4339 11.1737 66.1866L11.091 66.4199L11.1381 66.6628C11.7252 69.7307 10.5396 72.3272 9.28421 75.0776C8.00776 77.8718 6.68912 80.7598 7.07514 84.3558C7.12704 86.1473 6.40042 87.7897 5.62998 89.5279C4.56276 91.9382 3.45982 94.4276 4.29025 97.5443C4.61788 100.904 3.38682 104.266 2.19632 107.521C0.185097 113.017 -1.89422 118.701 3.08027 124.687C4.94064 126.927 6.58689 129.506 8.18119 131.999C10.1016 135.004 12.0852 138.11 14.492 140.72L14.5667 140.793C16.9558 142.855 18.375 145.458 19.7456 147.975C21.3384 150.898 22.9863 153.923 26.1379 156.017C29.917 158.431 34.3641 162.747 35.8045 166.967C36.6658 170.809 38.9478 172.187 41.1554 173.521C41.9712 174.013 42.8146 174.523 43.5916 175.148C44.6085 176.02 45.5168 177.031 46.3975 178.007C47.1112 178.799 47.8475 179.619 48.6471 180.372C51.2536 183.134 54.1404 183.575 56.9336 184.001C58.3982 184.224 59.9115 184.456 61.3664 185.034L61.4621 185.066C65.4034 186.14 69.5896 187.185 73.5129 187.551C76.2281 188.215 78.9124 189.322 81.5091 190.392C85.7406 192.137 90.112 193.941 94.8317 193.94C94.8999 193.94 94.968 193.94 95.0361 193.938C97.1657 194.353 99.1364 194.194 101.044 194.04C102.799 193.898 104.456 193.765 106.177 194.066C110.243 195.035 114.676 195.418 118.965 195.788C119.599 195.843 120.228 195.898 120.851 195.953L121.368 196L121.67 195.577C122.643 194.217 124.09 193.624 125.976 193.812L126.026 193.815C129.384 193.969 132.378 192.334 135.278 190.758C137.553 189.521 139.702 188.351 141.918 188.018C145.76 187.635 147.926 185.053 149.834 182.776C151.481 180.813 153.035 178.96 155.526 178.415C157.399 177.962 158.371 176.266 159.399 174.471C160.533 172.492 161.819 170.248 164.57 169.059L164.625 169.033C168.146 167.219 169.38 165.648 170.371 164.386C171.641 162.768 172.482 161.699 178.327 160.849L178.59 160.81L178.791 160.636C180.88 158.832 182.207 156.705 183.489 154.649C184.836 152.492 186.106 150.456 188.198 148.776L188.258 148.724C191.656 145.473 193.657 141.493 194.209 136.888C194.588 133.492 195.868 130.498 197.222 127.327C197.842 125.875 198.483 124.375 199.032 122.83C200.492 119.383 198.883 117.588 197.709 116.278C196.653 115.107 196.124 114.43 196.572 113.061V113.063ZM185.768 144.671C181.454 153.637 175.981 156.684 169.646 160.21C165.979 162.251 162.187 164.362 158.223 167.801L158.129 167.895C143.403 185.046 128.29 190.394 111.662 190.394C99.5039 190.392 86.5347 187.533 72.3235 184.339C72.0299 184.272 70.1485 183.613 70.0074 183.577C48.8995 178.318 41.6399 168.295 29.665 151.758C29.0114 150.854 28.3432 149.933 27.6457 148.976C25.5258 146.206 22.8317 143.249 19.9804 140.12C15.1826 134.856 10.2212 129.412 7.68134 124.456C3.40918 116.881 4.31905 113.719 7.02285 104.328C8.05441 100.745 9.33572 96.2939 10.6689 90.4093C11.7751 88.1951 12.2147 85.8157 11.9762 83.3356L11.9697 83.287C10.8782 76.0386 15.0563 69.0929 19.0965 62.3754C21.1628 58.9398 23.3005 55.3862 24.679 51.8644C25.9506 48.7755 27.0552 45.4031 28.2587 40.9243C36.0244 11.2918 66.6985 5.79747 91.0475 6.39833C94.8315 6.59432 98.6543 6.60242 102.351 6.61052C113.03 6.6332 123.115 6.65588 133.119 10.7539L133.178 10.775C139.92 13.0055 146.268 18.4011 152.409 23.6201C156.486 27.0865 160.704 30.6694 165.028 33.3163C170.296 36.4149 174.665 39.4778 178.371 42.6707C178.803 44.2986 181.151 46.9762 181.988 47.6305C183.626 49.4204 185.164 51.3366 186.562 53.3256C189.47 57.4657 192.479 61.747 193.716 67.4777C194.166 69.5591 195.762 72.1054 195.742 77.3874C195.971 85.8914 194.179 93.3035 191.425 101.749C190.586 104.271 191.141 106.816 191.871 109.206C195.919 121.689 193.895 133.571 185.855 144.528L185.768 144.671Z" fill="#B37A51"/>
<path d="M158.48 33.0072C136.123 17.7554 129.847 9.21906 100.853 10.2864C76.804 8.83669 44.1465 12.6157 36.1536 39.5544C34.7604 44.2695 33.1725 48.9117 30.0196 52.7702C24.3931 61.0262 15.5602 70.2981 15.5859 80.6565C16.7407 91.2077 11.8393 100.617 9.80031 110.67C8.31139 122.436 23.23 132.323 27.4744 143.054C34.5102 156.239 44.683 168.13 58.5898 174.34C81.6309 185.345 107.606 192.84 132.494 182.072C139.684 178.858 147.372 173.545 152.938 167.706C155.973 164.599 159.001 161.504 162.882 159.401C166.694 157.338 170.676 155.583 174.346 153.269C189.685 144.102 191.295 124.142 187.302 108.352C185.001 100.005 190.426 92.2659 190.668 83.929C193.962 60.9574 177.418 43.2238 158.479 33.008L158.48 33.0072ZM185.319 98.2715C183.027 106.685 187.648 115.023 187.085 123.555C187.268 132.409 182.871 140.195 177.793 147.312C177.189 148.158 173.733 151.132 172.594 151.859C164.767 156.239 156.625 159.829 150.734 166.826C137.131 180.907 117.166 186.884 97.931 184.59C83.1618 182.924 69.2811 177.104 56.0939 170.56C42.8784 163.684 34.107 151.212 27.329 138.362C22.4955 128.232 8.6086 120.049 12.6927 107.487C13.9578 102.769 15.6154 98.1666 16.8577 93.4369C18.8916 86.3698 16.1781 78.5641 19.9523 72.0037C24.8975 61.2854 34.6065 53.2595 37.5359 41.6082C45.5919 13.6813 79.5806 10.8645 103.925 12.5186C113.689 12.6028 123.823 12.9008 132.51 17.9042C139.08 21.3301 144.75 26.0487 150.739 30.2974C178.344 46.2848 196.998 64.2465 185.316 98.2736L185.319 98.2715Z" fill="#B37A51"/>
<path d="M148.39 52.6334C136.46 44.7854 126.027 34.0658 111.798 30.418C92.6573 25.9732 66.7553 27.2368 56.0137 46.2272C48.6207 61.2684 35.6095 74.1475 34.6446 91.6124C34.0639 97.9829 33.3519 104.333 31.5191 110.507C30.3578 114.958 34.5132 118.739 36.2194 122.558C44.9422 143.489 64.3988 156.347 85.4307 163.079C97.0729 166.621 109.808 171.092 121.877 167.002C134.447 162.326 141.489 150.239 151.722 142.258C157.305 137.624 162.018 132.279 165.666 125.977C174.707 112.839 167.501 101.92 169.81 87.9156C172.35 72.5551 160.573 60.1201 148.393 52.635L148.39 52.6334ZM163.148 126.709C159.069 133.414 153.454 138.639 147.578 143.659C139.209 150.689 133.068 160.362 122.66 164.714C105.234 171.205 79.7017 160.075 64.2391 151.542C53.4161 145.403 44.7563 136.412 39.5906 125.083C37.5356 119.825 31.8298 115.106 33.5912 109.111C35.4791 102.745 35.9349 96.148 36.6502 89.5992C37.7352 76.7512 46.1254 66.6549 52.5355 56.034C54.545 52.5029 56.1281 48.7384 58.5204 45.4148C75.1402 22.8819 114.039 27.0447 133.475 43.8112C144.349 52.9584 159.609 59.1489 165.69 72.684C168.194 78.0697 168.725 83.3795 168.018 88.7038C166.016 103.669 173.059 112.264 163.148 126.709L163.148 126.709Z" fill="#B37A51"/>
<path d="M109.086 37.2783C91.8658 32.5793 71.4053 37.2864 60.8256 52.344C54.075 62.3383 45.7059 71.8026 43.0199 83.8569C41.8083 91.9852 40.5886 100.032 38.4783 107.987C36.5514 114.733 41.8957 119.857 45.3812 124.999C57.1825 147.62 83.547 156.666 107.178 161.234C126.539 164.632 136.45 144.288 149.924 134.362C156.435 128.776 160.348 121.876 161.155 113.278C161.558 101.091 167.318 88.2881 161.547 76.6389C155.392 63.5346 123.282 40.7769 109.089 37.2779L109.086 37.2783ZM161.972 91.0315C159.304 105.501 161.435 122.775 148.658 132.904C134.655 143.237 125.397 163.399 105.289 158.959C85.1634 154.368 62.6293 147.515 50.5839 129.582C46.9848 122.756 39.0388 116.962 40.3704 108.569C46.6215 78.5861 43.285 79.1725 62.6297 53.2272C72.7913 39.2451 91.9236 34.9413 108.162 39.0979C124.252 43.5506 136.994 55.1596 149.854 65.2268C157.38 71.5215 163.361 80.9049 161.973 91.0303L161.972 91.0315Z" fill="#B37A51"/>
<path d="M84.9788 45.808C75.1208 51.0187 65.9017 58.0033 58.6159 66.499C51.7744 74.1898 49.9176 83.7968 49.4243 93.7438C47.624 105.194 51.6172 115.854 55.8116 126.297C59.8486 140.4 75.6996 144.8 88.0165 149.3C112.774 157.397 126.946 148.373 143.286 130.387C158.81 115.046 159.03 89.6088 148.455 71.5003C134.951 51.7858 109.016 35.2253 84.9767 45.8072L84.9788 45.808ZM138.604 132.747C121.022 152.937 102.352 154.598 78.5471 144.008C70.0954 140.51 60.6995 135.957 57.7182 126.59C50.9743 111.769 49.3052 99.9219 52.1793 83.8296C55.4588 66.7942 71.3116 55.1853 85.7694 47.4716C104.55 39.0502 124.412 48.4176 138.091 61.8556C158.715 79.3686 159.761 115.227 138.605 132.747H138.604Z" fill="#B37A51"/>
<path d="M94.1801 62.7553C88.012 65.8815 81.8502 70.1074 77.3086 75.4901C69.2833 81.5725 67.1018 86.84 66.6073 96.8019C65.36 104.755 69.5721 111.79 74.138 117.935C83.0394 130.095 99.3154 136.521 113.634 130.456C123.072 127.071 127.79 117.927 133.493 110.439C141.002 101.211 134.553 83.2121 127.878 74.8959C119.504 66.3725 106.546 57.2598 94.1805 62.7558L94.1801 62.7553ZM131.858 84.1334C135.03 92.3136 138.308 103.15 131.836 110.551C127.165 116.638 123.446 123.872 116.417 127.659C99.7332 137.093 80.4631 127.403 71.6605 111.929C66.957 104.938 67.4241 97.4886 68.8205 89.8301C69.5601 82.8505 74.9516 79.6642 79.3874 75.027C85.3984 69.1586 93.7675 62.1495 102.571 62.3651C114.831 64.2165 127.204 72.3884 131.859 84.1334H131.858Z" fill="#B37A51"/>
<path d="M90.0525 72.3134C81.6411 77.3898 73.267 85.5131 72.7463 95.7649C70.6783 108.733 81.6992 120.825 93.1521 125.232C100.636 126.983 108.971 125.569 115.796 122.334C121.851 117.769 126.518 111.996 130.208 105.446C135.343 96.9698 127.295 87.3935 124.965 79.5957C121.805 72.0977 112.988 69.5305 105.782 67.5882C99.8067 65.8194 94.6523 68.8289 90.0525 72.3133V72.3134ZM129.138 92.5707C131.405 97.4318 131.101 102.077 128.259 106.52C124.812 111.911 120.864 116.915 115.767 120.893C103.103 127.783 87.5076 125.738 79.3041 113.145C75.8008 108.697 72.86 103.402 73.7942 97.5724C74.3246 93.8193 74.3003 89.2579 76.8402 86.2533C80.2171 82.6444 82.6258 78.0893 87.1363 75.569C90.3753 73.758 93.0967 71.1519 96.4853 69.582C104.037 66.4315 112.252 70.5685 118.852 74.2437C125.3 78.2511 125.685 86.4457 129.138 92.5699L129.138 92.5707Z" fill="#B37A51"/>
<path d="M80.7849 86.4908C79.4647 87.6441 78.7802 89.1473 78.6277 90.89C78.0179 96.9238 75.0497 103.481 79.8815 108.568C84.561 113.569 89.4833 119.585 96.1625 121.793C101.943 122.577 107.857 121.289 113.175 118.124C119.325 112.485 130.653 104.381 126.611 94.8992C124.903 91.3939 125.228 87.1308 122.783 83.93C121.971 82.8383 121.205 81.7012 120.542 80.5187C117.724 76.1581 111.838 75.2334 107.375 73.2007C99.5149 70.1182 92.5941 75.402 86.6237 79.939C84.2832 81.7904 83.01 84.5455 80.7849 86.4911V86.4908ZM111.918 76.6944C118.993 78.0744 122.736 85.1075 124.207 91.6128C124.597 93.5371 125.589 95.3383 126.024 97.2576C127.242 104.822 117.794 112.939 112.296 117.106C98.2759 125.68 89.9554 118.329 80.6604 107.582C76.5731 102.35 79.366 96.5577 79.9272 90.8059C80.1073 89.3934 80.6149 88.177 81.6887 87.2553C85.7451 82.4041 90.3061 77.7097 96.1838 75.0989C101.395 72.1606 106.83 74.1578 111.918 76.6944L111.918 76.6944Z" fill="#B37A51"/>
<path d="M82.4458 97.0151C80.7459 101.28 81.312 104.293 84.7684 107.406C88.8119 110.255 91.7328 115.082 96.1075 117.165C103.711 118.801 111.767 116.122 116.446 109.97C119.789 106.479 125.667 101.921 122.852 96.5291C121.064 93.6653 121.311 90.0889 119.674 87.1539C118.855 85.8078 117.822 84.5638 117.185 83.1417C115.64 79.6947 111.529 79.4615 108.499 77.984C98.435 73.6218 90.5862 82.0335 84.4037 88.8529C84.2398 89.0343 84.0695 89.2108 83.8684 89.3501C82.0665 90.6006 84.5496 93.6618 82.446 97.0148L82.4458 97.0151ZM84.8543 89.4424C85.0619 89.3307 85.2436 89.1768 85.4074 89.0067C87.357 86.9723 88.9319 84.4599 91.1992 82.6507C98.9733 75.4007 106.26 76.9117 114.964 81.478C116.496 82.181 116.537 84.0356 117.526 85.2148C120.631 88.9209 120.516 93.9295 122.704 98.0517C123.508 99.5678 122.71 101.39 121.752 102.935C118.608 107.307 114.67 111.133 110.476 114.526C105.073 116.854 96.871 119.115 92.5731 113.812C88.773 108.936 79.5408 105.157 82.8608 97.6674C83.7107 95.769 84.306 93.8576 83.8746 91.7016C83.7075 90.8755 83.907 89.949 84.8542 89.442L84.8543 89.4424Z" fill="#B37A51"/>
<path d="M99.5235 113.51C110.731 114.989 108.608 108.674 116.539 104.689C117.775 104.122 119.699 99.6664 118.881 98.2992C117.538 95.944 118.124 93.1076 116.959 90.6926C114.919 87.095 113.125 82.2292 108.794 81.2573C95.8641 78.6753 102.996 82.9758 93.803 85.3035C90.6305 85.9563 88.3923 87.7996 87.5959 91.1171C86.9212 95.0435 84.6991 98.7789 86.7736 102.739C88.522 106.275 95.5579 112.874 99.5236 113.511L99.5235 113.51ZM87.2992 95.38C88.2302 90.8137 89.7418 86.2266 94.8897 85.6759C98.7191 85.6565 99.428 80.2674 103.219 81.3754C106.725 82.0234 111.387 81.5747 113.075 85.5366C114.596 88.2352 116.77 90.6229 117.008 93.8382C118.096 97.9977 119.409 102.93 114.361 105.261C111.185 106.484 109.403 111.321 106.506 112.267C100.299 114.914 94.6288 110.718 90.5543 106.309C86.8839 103.473 85.9596 99.7638 87.2991 95.3808L87.2992 95.38Z" fill="#B37A51"/>
<path d="M110.71 93.026C108.288 91.6767 104.84 91.8387 102.864 89.814C101.661 88.5894 101.066 88.6153 99.3512 89.5516C95.6045 90.4052 89.9747 92.6049 91.0257 96.7659C90.6802 99.5196 90.0817 99.5633 92.7919 101.021C94.821 102.032 95.2086 103.955 96.2142 105.641C97.2782 107.225 99.2894 106.981 100.999 107.3C106.768 108.463 110.886 103.132 112.065 98.7522C113.019 96.4505 111.465 94.8501 110.709 93.0261L110.71 93.026ZM104.626 106.383C102.689 107.494 97.2493 105.958 96.4757 104.256C95.7345 102.57 94.9187 101.034 92.9091 100.155C92.1906 99.8405 91.0504 99.0468 91.9441 97.7785C92.0852 97.5793 92.1192 97.2424 92.0317 97.035C90.9288 93.9526 94.9722 91.1862 98.2404 90.7163C98.5729 90.6694 99.0092 90.718 99.2233 90.5511C101.972 88.2931 102.751 92.2859 107.494 92.6504C110.609 93.0699 111.869 96.4617 110.981 99.086C110.126 102.177 107.923 104.681 104.626 106.383L104.626 106.383Z" fill="#B37A51"/>
<path d="M103.207 101.916C104.376 101.315 105.635 101.081 106.793 101.184C110.466 101.406 109.887 94.3697 107.338 94.3875C104.665 93.9453 102.135 93.103 99.0658 93.9534C95.3224 94.99 93.8415 94.9091 95.8981 100.389C96.182 101.147 96.1723 102.521 97.1438 102.354C99.1907 102.006 101.129 102.982 103.207 101.916L103.207 101.916ZM102.186 101.353C98.6117 103.352 93.6355 98.6525 96.8941 95.4632C99.971 94.1561 110.226 93.0417 108.209 98.5522C108.363 100.694 103.704 100.033 102.186 101.353V101.353Z" fill="#B37A51"/>
<path d="M100.105 98.1388C98.806 98.7559 99.7223 100.206 100.908 100.194C102.491 100.128 105.667 97.5184 104.72 95.9017C103.117 95.4206 101.335 97.204 100.105 98.1386L100.105 98.1388Z" fill="#B37A51"/>
<path d="M95.4712 109.741C96.1491 110.204 96.9277 110.823 97.8149 110.93C97.9089 110.966 98.3128 111.089 98.4296 111.108C102.118 111.708 106.632 110.457 108.923 107.386C110.346 103.871 116.501 103.897 115.486 99.6077C114.894 94.1084 115.075 86.7854 108.134 85.5691C107.965 85.4217 107.722 85.3942 107.506 85.3521C105.667 84.0157 101.75 82.255 101.075 85.6971C99.7337 89.6284 93.3691 87.4287 91.1813 90.7428C86.0982 98.3071 89.0582 104.333 95.4713 109.741L95.4712 109.741ZM91.7829 90.6114C94.8386 88.3388 99.5437 89.3398 101.986 86.157C102.893 83.6982 103.071 83.9071 105.449 84.8288C107.066 85.7181 108.769 86.4016 110.552 86.9524C113.244 88.7746 114.073 91.3648 113.977 94.6286C113.343 97.4827 116.743 101.722 113.054 103.192C109.287 104.333 108.403 108.672 104.804 109.837C99.0833 111.704 96.7282 110.802 92.941 106.32C87.9696 102.311 88.286 95.3475 91.7829 90.6112V90.6114Z" fill="#B37A51"/>
<path d="M186.32 83.5052C187.528 66.2692 175.424 51.9649 161.543 43.2553C160.617 42.6543 159.615 42.0485 158.575 41.4298C155.304 35.1111 149.505 31.7855 143.157 29.2879C127.984 12.9621 114.241 13.4286 91.6329 13.8321C76.1404 13.8159 58.9866 19.3231 48.4547 31.5898C40.1666 41.8138 35.2666 54.2766 27.7346 65.0757C19.7367 77.5174 20.6145 92.6477 16.5416 106.408C14.7673 112.456 14.2272 118.093 18.6648 123.1C21.6378 127.119 24.4163 131.28 27.3648 135.318C33.3252 145.56 39.5829 155.662 49.801 162.273C77.9742 181.566 119.856 192.521 147.522 166.614C153.572 160.692 159.86 155.117 166.862 150.267C179.969 141.417 184.543 124.794 183.774 109.531C184.315 106.216 184.135 102.981 183.24 99.7949C183.884 94.3719 186.453 89.1089 186.32 83.5064L186.32 83.5052ZM158.334 43.9921C159.234 46.0622 160.163 48.2035 161.584 49.8978C164.333 53.1795 166.447 56.7365 168.167 60.4461C161.261 53.3238 151.709 49.2289 144.322 42.5848C124.492 20.5104 116.901 23.0001 88.6204 23.1423C86.4697 23.2492 84.447 23.4355 82.535 23.6946C89.0339 21.2358 95.6985 20.0193 102.595 20.0177C114.484 20.0177 127.284 23.4727 143.318 31.0988C144.849 32.6603 146.353 34.238 147.873 35.7638C151.062 38.5061 154.534 40.902 158.02 43.273C158.125 43.5127 158.231 43.7525 158.335 43.9922L158.334 43.9921ZM181.541 105.553C181.798 107.867 181.923 110.22 181.915 112.58C180.903 115.283 179.473 117.82 178.151 119.953L178.125 119.992C176.286 122.55 174.349 125.088 172.33 127.613C176.423 115.319 172.297 102.208 175.818 89.6405C176.135 88.6881 176.393 87.7373 176.605 86.7897C177.894 91.0239 179.391 95.2174 181.38 99.1729C181.049 101.261 180.989 103.375 181.541 105.553L181.541 105.553ZM173.671 89.4835C169.778 101.972 174.724 115.039 169.838 127.413C168.911 130.741 167.292 133.518 165.261 135.963C164.689 136.603 164.115 137.243 163.529 137.883C158.151 143.374 150.795 147.276 145.253 152.612C140.642 157.666 133.325 163.895 127.564 166.137C96.4212 178.115 54.9221 163.668 40.0864 133.761C36.8101 127.617 33.2354 121.628 28.115 116.735C26.467 115.162 26.0632 113.419 27.0542 111.375C33.9522 95.4169 28.947 80.4271 40.9461 64.924C46.6503 55.764 50.7443 47.9584 55.4171 41.7529C56.1681 41.0823 56.9336 40.4263 57.7219 39.7962C59.9245 37.7439 62.3835 36.1565 64.6087 34.4283C67.3822 32.274 69.9272 30.066 72.7461 28.4107C78.0094 26.5091 84.4809 25.4303 92.8176 25.2488C110.654 25.2991 125.636 23.8996 137.985 39.1758C141.597 42.8398 145.09 46.661 149.556 49.3563C157.8 53.8252 166.643 60.5718 171.445 68.9041C172.547 72.27 173.484 75.6814 174.409 79.0539C174.623 79.8362 174.838 80.6218 175.056 81.409C175.077 84.0104 174.647 86.7072 173.674 89.4822L173.671 89.4835ZM142.752 158.069C142.692 158.118 138.431 161.881 136.486 163.104C134.36 164.44 130.266 167.349 127.843 168.013C127.144 168.205 124.835 168.775 124.765 168.804C125.347 168.444 133.758 164.255 142.752 158.069L142.752 158.069ZM118.283 171.259C109.131 174.057 100.737 175.477 93.2197 175.477C80.1321 175.477 69.9659 171.122 63.0044 162.534C62.2162 161.523 61.3728 160.527 60.4791 159.542C77.177 170.629 98.8429 175.236 118.281 171.259L118.283 171.259ZM28.8708 75.824C27.9658 71.3 29.8407 67.5841 33.8908 65.8558C37.1898 62.5693 40.2552 58.816 43.2202 55.1865C44.4335 53.7011 45.658 52.2028 46.9118 50.7176C44.0052 55.6044 41.0306 60.9205 37.4527 66.4861C32.5511 74.1641 29.8182 82.5951 29.1389 91.6787C29.0286 98.5581 27.8689 105.352 24.7222 111.547C23.8626 113.614 23.8691 115.52 25.5608 117.109C31.3331 122.529 35.1497 129.287 38.8348 136.103C40.494 139.263 42.4452 142.247 44.6395 145.048C37.7789 139.16 30.9747 133.027 26.6881 126.073C21.2645 117.276 20.6965 108.333 24.9526 98.731C28.0051 91.9118 30.5904 84.4184 28.8712 75.824H28.8708ZM56.8314 39.2119C59.712 34.7882 63.2527 31.2391 72.7118 27.6435C70.5303 29.0689 66.1559 32.2778 63.937 33.98C61.6338 35.7504 59.0549 37.2666 56.8314 39.2119ZM151.347 35.1186C153.833 36.2638 155.369 38.1331 156.547 40.234C152.871 38.0667 149.003 35.7228 146.366 32.9661C146.182 32.7426 145.999 32.5239 145.816 32.3052C147.618 33.1929 149.46 34.1291 151.346 35.1188L151.347 35.1186ZM46.3431 157.101C35.3689 148.168 30.3963 134.545 21.5423 123.805C20.3712 122.159 19.3186 120.427 18.2416 118.718C14.9264 112.164 20.7653 101 21.393 93.6666C22.4862 82.5888 25.044 71.6213 31.5496 62.3659C40.7429 49.0319 45.6927 32.1148 60.8094 23.9492C71.2334 17.577 83.5682 15.5311 95.6228 15.745C107.401 16.1208 120.181 15.1489 130.84 20.9379C134.427 22.8687 137.55 25.4748 140.492 28.2916C139.103 27.7943 137.702 27.3213 136.307 26.8516C132.656 25.6205 128.882 24.3457 125.495 22.6954C118.396 19.621 111.211 18.0627 104.139 18.0627C95.9778 18.0627 87.7951 20.0858 79.4094 24.2019C63.7803 27.1807 56.274 35.6504 49.1959 46.9616C42.6919 53.3404 36.5903 60.0688 30.928 66.3166L30.7529 66.5093L30.675 66.5952L30.5728 66.6503C26.8765 68.6539 27.2495 72.3229 27.7669 77.3992C28.3232 82.8529 29.0142 89.6385 24.5717 96.7592C21.2062 105.219 20.2638 112.066 21.6068 118.299C22.9822 124.681 26.7484 130.473 33.4616 136.525C40.2201 141.292 46.249 147.528 52.0782 153.56C59.5633 161.306 67.2984 169.295 76.5095 174.015C65.4996 169.983 55.1031 164.071 46.3433 157.101L46.3431 157.101ZM164.891 149.362C160.496 152.626 155.773 155.497 152.025 159.548C133.095 181.949 104.379 183.572 78.6269 174.768C83.8981 175.824 89.288 176.365 94.6646 176.365C106.55 176.365 118.408 173.723 128.956 168.726C139.728 163.622 149.152 156.03 156.22 146.77C161.769 142.814 167.227 138.799 170.24 132.537C173.969 128.502 177.461 124.221 179.996 119.737C180.686 118.518 181.286 117.311 181.8 116.117C180.987 129.053 175.885 141.801 164.89 149.362L164.891 149.362ZM183.678 89.4341C183.253 91.7537 182.538 94.0278 181.973 96.3101C181.759 95.8355 181.531 95.3609 181.284 94.8863C179.341 91.7666 178.001 88.4183 176.952 84.9944C178.029 78.1089 176.366 71.4075 172.07 65.2912C171.953 65.113 171.831 64.9397 171.713 64.7647C170.946 62.523 170.028 60.3345 168.866 58.2533C167.742 56.4083 166.492 54.5763 165.28 52.8041C163.516 50.2205 161.707 47.564 160.218 44.7683C166.731 49.2148 173.087 53.8084 177.502 60.6583C183.675 69.4148 185.477 79.038 183.678 89.4341L183.678 89.4341Z" fill="#B37A51"/>
<path d="M149.059 102.062C148.175 100.511 147.575 98.8868 147.14 97.2299C147.007 93.574 146.402 89.9019 145.382 86.3822C145.005 84.2765 144.472 82.1982 143.533 80.2497C142.571 78.5587 141.635 76.7785 140.646 74.8947C135.704 65.4901 130.591 55.7666 120.454 53.4942C109.605 51.3301 103.758 50.8685 100.227 51.4532C93.1912 51.5164 86.2068 53.8263 79.935 59.2071C75.41 62.5471 70.4303 66.1739 66.4293 70.4616C64.8819 71.8691 63.5795 73.5116 62.5366 75.3923C60.3519 78.7826 58.9067 82.5681 58.7056 86.8832C58.5434 87.7951 58.4023 88.6941 58.2742 89.585C58.2028 89.8409 58.1298 90.0984 58.0584 90.3544C55.765 98.4955 53.5999 106.186 57.8573 114.313C58.957 116.533 60.8709 119.256 63.2975 122.152C66.5089 127.494 71.0147 131.863 76.6815 135.239C82.8172 140.213 89.2239 144.123 94.0508 144.899C109.245 146.901 115.783 143.838 120.928 138.883C127.537 134.769 133.131 128.4 138.067 122.236C139.426 121.362 140.908 120.511 142.537 119.693C144.431 118.825 147.237 114.09 148.679 109.348C149.693 106.008 149.831 103.355 149.059 102.062L149.059 102.062ZM144.64 108.471C143.087 113.501 140.303 117.958 136.949 122.043C136.862 122.085 136.776 122.127 136.687 122.169C132.196 123.898 128.656 128.242 125.234 132.444C123.839 134.156 122.475 135.826 121.072 137.309C108.442 145.564 90.0708 142.251 76.7316 133.466C73.8364 131.06 70.9152 128.271 67.9713 125.091C66.9804 124.325 66.0574 123.533 65.1978 122.717C64.4388 121.672 63.7446 120.603 63.1282 119.51C57.1857 109.297 58.8561 97.696 60.1244 86.5274C63.1558 75.6358 68.4142 66.5247 80.6547 65.2144C82.1388 65.2063 83.451 64.9018 84.6463 64.4013C83.0682 65.4865 81.5322 66.6269 80.0366 67.7542C66.1364 79.6954 63.712 83.2217 63.4977 101.652C65.337 124.134 92.2481 144.105 113.955 133.832C124.215 130.032 130.654 120.574 136.183 111.673C143.099 101.836 139.213 88.6522 134.639 78.5853C129.431 67.4378 117.854 61.1548 106.204 58.5694C99.6785 56.8896 93.7554 58.8788 88.3248 62.0487C89.5477 60.9991 91.1713 59.7567 92.2758 58.5645C94.5287 56.1348 96.3306 53.6905 99.3864 52.8094C101.073 52.6992 102.766 52.7122 104.448 52.8499C104.529 52.8725 104.609 52.8904 104.692 52.9147C106.086 53.1706 107.556 53.3649 109.085 53.5464C113.894 54.6073 118.483 56.692 122.452 59.7435C133.333 66.4155 141.378 76.5002 144.45 88.1337C144.481 88.409 144.516 88.6828 144.537 88.963L144.562 89.0553C144.764 89.8296 144.97 90.6168 145.175 91.4121C146.15 96.8708 146.046 102.615 144.639 108.47L144.64 108.471ZM91.2395 61.8377C103.471 55.7309 117.93 62.5002 127.462 70.758C135.995 79.5502 142.836 98.9147 135.384 110.585C118.214 143.514 83.3239 143.359 66.6114 110.307C63.4649 103.71 65.1777 96.0477 65.7972 89.0552C67.0088 77.8882 82.1219 67.274 91.2387 61.8377L91.2395 61.8377ZM133.222 65.0692C133.994 66.4363 134.837 67.7904 135.687 69.1235C129.851 62.6705 122.397 57.247 114.396 54.1711C121.979 55.1494 129.766 57.0008 133.222 65.0689L133.222 65.0692ZM87.8182 55.6679C90.496 54.4628 93.2969 53.6399 96.1436 53.1783C95.3311 53.8537 94.6936 54.6652 93.993 55.5577C91.646 58.5544 88.7234 62.2832 77.707 65.0706C75.4606 65.5323 73.4236 66.2012 71.5825 67.0613C76.5942 62.6505 82.4786 58.9998 87.8183 55.6675L87.8182 55.6679ZM57.5934 96.8687C57.2706 104.911 58.4952 111.949 61.1324 117.957C57.0711 111.971 55.882 104.917 57.5934 96.8687ZM114.129 142.241C110.413 143.826 106.618 144.616 102.756 144.616C96.7694 144.616 90.6192 142.713 84.3357 138.921C90.1292 141.152 96.7727 142.614 104.183 143.291C108.514 143.63 112.494 142.856 116.179 141.328C115.518 141.697 114.838 142.01 114.129 142.242L114.129 142.241ZM126.263 132.965C128.603 130.242 131.208 127.352 134.746 124.591C132.07 127.542 129.15 130.307 126.263 132.965ZM139.167 120.846C140.023 119.762 140.862 118.69 141.683 117.645C145.087 112.777 146.792 106.93 147.113 100.88C148.076 108.585 146.951 116.078 139.167 120.845L139.167 120.846Z" fill="#B37A51"/>
</svg>
