<svg width="45" height="45" viewBox="0 0 45 45" fill="none" xmlns="http://www.w3.org/2000/svg">
<g clip-path="url(#clip0_353_10330)">
<path d="M0.00537109 14C0.00537109 6.26801 6.27338 0 14.0054 0H30.0093C37.7413 0 44.0093 6.26801 44.0093 14V30.0039C44.0093 37.7359 37.7413 44.0039 30.0093 44.0039H14.0054C6.27338 44.0039 0.00537109 37.7359 0.00537109 30.0039V14Z" fill="#E4E4E4"/>
<mask id="mask0_353_10330" style="mask-type:alpha" maskUnits="userSpaceOnUse" x="-11" y="7" width="48" height="50">
<rect x="-10.5942" y="7.0625" width="47.5875" height="49.0575" rx="11.4121" fill="#C4C4C4"/>
</mask>
<g mask="url(#mask0_353_10330)">
<rect x="-10.5942" y="7.0625" width="47.5875" height="49.0575" rx="11.4121" fill="url(#paint0_linear_353_10330)"/>
<rect x="-9.53076" y="7.0625" width="47.404" height="49.0575" rx="11.4121" fill="url(#paint1_linear_353_10330)"/>
<circle opacity="0.7" cx="27.2242" cy="16.9959" r="1.15239" fill="url(#paint2_radial_353_10330)"/>
<ellipse cx="14.6588" cy="31.4905" rx="15.5875" ry="15.4871" fill="url(#paint3_linear_353_10330)"/>
<ellipse cx="15.9828" cy="31.5911" rx="15.4306" ry="15.5875" fill="url(#paint4_angular_353_10330)"/>
<circle cx="15.9827" cy="31.5911" r="13.2595" fill="url(#paint5_linear_353_10330)"/>
<circle cx="15.5185" cy="31.5908" r="8.31002" fill="url(#paint6_linear_353_10330)"/>
<path d="M21.6892 29.1186C21.1454 31.0735 17.9433 32.4119 14.9952 31.5919C12.0472 30.7718 10.4498 28.2726 10.9936 26.3177C11.5374 24.3628 14.3029 23.7148 17.2509 24.5349C20.1989 25.3549 22.233 27.1637 21.6892 29.1186Z" fill="url(#paint7_linear_353_10330)"/>
<path d="M8.97841 30.8447C9.65462 29.2125 10.2912 32.7497 14.2633 33.8546C19.0429 35.1842 22.6493 31.9443 22.3532 33.8547C22.298 34.2109 20.9693 35.5267 20.8583 35.8483C20.7563 36.1442 21.8761 35.4487 21.7328 35.7153C20.1298 38.698 16.1201 39.8486 13.6356 39.1575C11.2375 38.4905 8.57004 36.0373 8.54421 33.0066C8.54127 32.6623 9.54599 34.212 9.6155 33.8546C9.68633 33.4904 8.82342 31.2188 8.97841 30.8447Z" fill="url(#paint8_linear_353_10330)"/>
</g>
</g>
<defs>
<linearGradient id="paint0_linear_353_10330" x1="-4.87405" y1="5.18964" x2="6.56879" y2="57.9744" gradientUnits="userSpaceOnUse">
<stop stop-color="#8E9394"/>
<stop offset="1" stop-color="#D9DDDF"/>
</linearGradient>
<linearGradient id="paint1_linear_353_10330" x1="14.1712" y1="7.0625" x2="17.4346" y2="79.5832" gradientUnits="userSpaceOnUse">
<stop stop-color="white"/>
<stop offset="1" stop-color="white" stop-opacity="0"/>
</linearGradient>
<radialGradient id="paint2_radial_353_10330" cx="0" cy="0" r="1" gradientUnits="userSpaceOnUse" gradientTransform="translate(27.3648 16.9247) rotate(96.5561) scale(1.23161)">
<stop offset="0.238096" stop-color="#E3E3E3"/>
<stop offset="0.354168" stop-color="#929292"/>
<stop offset="1" stop-color="#383838"/>
</radialGradient>
<linearGradient id="paint3_linear_353_10330" x1="17.0099" y1="29.9077" x2="-7.2216" y2="29.6004" gradientUnits="userSpaceOnUse">
<stop stop-color="#232323"/>
<stop offset="0.928496" stop-color="#D9DDDF"/>
</linearGradient>
<radialGradient id="paint4_angular_353_10330" cx="0" cy="0" r="1" gradientUnits="userSpaceOnUse" gradientTransform="translate(15.9827 31.5911) rotate(-149.651) scale(22.4465 22.18)">
<stop offset="0.11888" stop-color="#EEEEEE"/>
<stop offset="0.399849" stop-color="#5B5B5B"/>
<stop offset="0.723923" stop-color="#DADEE0"/>
<stop offset="0.923012" stop-color="#393939"/>
</radialGradient>
<linearGradient id="paint5_linear_353_10330" x1="15.9827" y1="18.3315" x2="15.9827" y2="44.8506" gradientUnits="userSpaceOnUse">
<stop offset="0.0640976" stop-color="#8E9394"/>
<stop offset="0.935676" stop-color="white"/>
</linearGradient>
<linearGradient id="paint6_linear_353_10330" x1="11.346" y1="1.07793" x2="15.5185" y2="39.9008" gradientUnits="userSpaceOnUse">
<stop stop-color="#B8B8B8"/>
<stop offset="0.930136" stop-color="#383838"/>
</linearGradient>
<linearGradient id="paint7_linear_353_10330" x1="17.2286" y1="24.5287" x2="16.3354" y2="30.5251" gradientUnits="userSpaceOnUse">
<stop stop-color="white" stop-opacity="0.68"/>
<stop offset="0.412041" stop-color="white" stop-opacity="0.42"/>
<stop offset="1" stop-color="white" stop-opacity="0.15"/>
</linearGradient>
<linearGradient id="paint8_linear_353_10330" x1="13.7624" y1="39.1928" x2="14.8288" y2="32.7514" gradientUnits="userSpaceOnUse">
<stop stop-color="white" stop-opacity="0.68"/>
<stop offset="0.412041" stop-color="white" stop-opacity="0.42"/>
<stop offset="1" stop-color="white" stop-opacity="0.15"/>
</linearGradient>
<clipPath id="clip0_353_10330">
<path d="M0.00537109 14C0.00537109 6.26801 6.27338 0 14.0054 0H30.0093C37.7413 0 44.0093 6.26801 44.0093 14V30.0039C44.0093 37.7359 37.7413 44.0039 30.0093 44.0039H14.0054C6.27338 44.0039 0.00537109 37.7359 0.00537109 30.0039V14Z" fill="white"/>
</clipPath>
</defs>
</svg>
