<svg width="45" height="45" viewBox="0 0 45 45" fill="none" xmlns="http://www.w3.org/2000/svg">
<g clip-path="url(#clip0_353_8776)">
<path d="M0.00927734 14C0.00927734 6.26801 6.27729 0 14.0093 0H30.0119C37.7439 0 44.0119 6.26801 44.0119 14V30.0039C44.0119 37.7359 37.7439 44.0039 30.0119 44.0039H14.0093C6.2773 44.0039 0.00927734 37.7359 0.00927734 30.0039V14Z" fill="url(#paint0_linear_353_8776)"/>
<g filter="url(#filter0_d_353_8776)">
<path fill-rule="evenodd" clip-rule="evenodd" d="M-7.08658 33.1825L-5.5999 32.3271C-5.24664 32.1277 -4.96098 31.8273 -4.77956 31.4644C-4.59814 31.1015 -4.52922 30.6928 -4.58163 30.2905C-4.85318 28.413 -4.85318 26.5062 -4.58163 24.6287C-4.53224 24.1912 -4.62044 23.7491 -4.83397 23.364C-5.04749 22.9789 -5.37572 22.67 -5.77301 22.4801L-7.05603 21.7367C-7.46898 21.4996 -7.78576 21.1252 -7.95133 20.6787C-8.1169 20.2323 -8.12078 19.7419 -7.9623 19.2928C-7.52053 18.0365 -6.97206 16.8203 -6.32288 15.6575C-6.17013 15.3723 -5.99703 15.077 -5.82392 14.7919C-5.15928 13.6659 -4.40321 12.5965 -3.56335 11.5944C-3.2211 11.2147 -2.75253 10.9723 -2.24488 10.9124C-1.73723 10.8525 -1.2251 10.979 -0.803829 11.2686L0.509743 12.0221C0.859314 12.2234 1.26078 12.3163 1.66323 12.2891C2.06569 12.2619 2.451 12.1158 2.77031 11.8694C4.24704 10.6922 5.88652 9.73527 7.63767 9.0283C8.00768 8.87395 8.32389 8.61382 8.5467 8.28051C8.7695 7.9472 8.88898 7.55554 8.89015 7.15462V5.43369C8.88228 4.95144 9.04581 4.48205 9.35163 4.1091C9.65744 3.73614 10.0857 3.48383 10.5601 3.39708C13.4962 2.86764 16.5034 2.86764 19.4395 3.39708C19.9139 3.48383 20.3421 3.73614 20.648 4.1091C20.9538 4.48205 21.1173 4.95144 21.1094 5.43369V7.15462C21.1139 7.56021 21.2394 7.95522 21.4698 8.28904C21.7002 8.62286 22.025 8.88028 22.4026 9.0283C24.1645 9.73263 25.8144 10.6897 27.3005 11.8694C27.6199 12.1158 28.0052 12.2619 28.4076 12.2891C28.8101 12.3163 29.2115 12.2234 29.5611 12.0221L31.058 11.1667C31.4706 10.926 31.9546 10.8379 32.4256 10.918C32.8965 10.998 33.3243 11.2411 33.6342 11.6046C34.4917 12.6048 35.2648 13.6743 35.9457 14.8021C36.1188 15.0872 36.2919 15.3825 36.4446 15.6676C37.0909 16.834 37.6359 18.0537 38.0739 19.3132C38.227 19.7596 38.2204 20.2453 38.0551 20.6874C37.8898 21.1294 37.5761 21.5003 37.1676 21.7367L35.6911 22.5921C35.3379 22.7916 35.0522 23.092 34.8708 23.4548C34.6894 23.8177 34.6204 24.2264 34.6728 24.6287C34.9444 26.5062 34.9444 28.413 34.6728 30.2905C34.6204 30.6928 34.6894 31.1015 34.8708 31.4644C35.0522 31.8273 35.3379 32.1277 35.6911 32.3271L37.1676 33.1825C37.5761 33.4189 37.8898 33.7898 38.0551 34.2318C38.2204 34.6739 38.227 35.1596 38.0739 35.606C37.6321 36.8624 37.0836 38.0786 36.4345 39.2414C36.2817 39.5265 36.1086 39.8218 35.9355 40.1069C35.2546 41.2348 34.4815 42.3042 33.624 43.3044C33.316 43.6671 32.8907 43.9105 32.422 43.9924C31.9533 44.0742 31.4707 43.9893 31.058 43.7525L29.5713 42.8869C29.2217 42.6856 28.8203 42.5927 28.4178 42.6199C28.0154 42.6471 27.63 42.7932 27.3107 43.0397C25.8221 44.2238 24.1687 45.1843 22.4026 45.8909C22.0326 46.0453 21.7164 46.3054 21.4936 46.6387C21.2708 46.972 21.1513 47.3637 21.1502 47.7646V49.4855C21.158 49.9678 20.9945 50.4372 20.6887 50.8101C20.3829 51.1831 19.9546 51.4354 19.4802 51.5221C16.5441 52.0516 13.537 52.0516 10.6008 51.5221C10.1264 51.4354 9.69817 51.1831 9.39235 50.8101C9.08654 50.4372 8.92301 49.9678 8.93088 49.4855V47.7646C8.9264 47.359 8.80092 46.964 8.57052 46.6302C8.34012 46.2964 8.0153 46.0389 7.63767 45.8909C5.87583 45.1866 4.22589 44.2295 2.73977 43.0499C2.42344 42.8097 2.0438 42.6673 1.64758 42.6402C1.25137 42.613 0.855862 42.7023 0.509743 42.8971L-0.976933 43.7627C-1.39053 44.0061 -1.87682 44.0957 -2.35003 44.0156C-2.82323 43.9355 -3.25294 43.6908 -3.56335 43.3248C-4.4208 42.3246 -5.19394 41.2551 -5.87483 40.1273C-6.04794 39.8422 -6.22104 39.5469 -6.37379 39.2618C-7.01704 38.0917 -7.55871 36.8687 -7.99284 35.606C-8.14598 35.1596 -8.13933 34.6739 -7.97403 34.2318C-7.80873 33.7898 -7.49504 33.4189 -7.08658 33.1825ZM17.5582 42.1761L17.5582 36.0629C20.4828 35.2083 22.7883 32.903 23.6431 29.9785L29.7562 29.9785C28.6981 36.2049 23.7846 41.1183 17.5582 42.1761ZM29.7563 24.9417H23.6434C22.7888 22.0168 20.4831 19.7111 17.5582 18.8564L17.5582 12.7433C23.7849 13.8012 28.6986 18.715 29.7563 24.9417ZM6.437 29.9784L0.32338 29.9784C1.38139 36.2049 6.29496 41.1183 12.5215 42.1762V36.0628C9.59708 35.2081 7.29175 32.9028 6.437 29.9784ZM6.43679 24.9416L0.323269 24.9416C1.38104 18.7149 6.29475 13.8011 12.5215 12.7432V18.8566C9.59685 19.7113 7.29138 22.0169 6.43679 24.9416ZM10.6931 27.4597C10.6931 29.8604 12.6393 31.8067 15.0401 31.8067C17.4408 31.8067 19.3871 29.8604 19.3871 27.4597C19.3871 25.0589 17.4408 23.1127 15.0401 23.1127C12.6393 23.1127 10.6931 25.0589 10.6931 27.4597Z" fill="url(#paint1_linear_353_8776)"/>
<path fill-rule="evenodd" clip-rule="evenodd" d="M-6.2274 33.0648L-4.74652 32.2127C-4.39463 32.0141 -4.1101 31.7148 -3.92938 31.3534C-3.74867 30.9919 -3.68001 30.5848 -3.73222 30.1841C-4.00271 28.3139 -4.00271 26.4145 -3.73222 24.5444C-3.68303 24.1085 -3.77088 23.6682 -3.98357 23.2846C-4.19627 22.901 -4.52322 22.5933 -4.91895 22.4041L-6.19698 21.6637C-6.60831 21.4274 -6.92385 21.0546 -7.08878 20.6098C-7.2537 20.1651 -7.25757 19.6766 -7.0997 19.2293C-6.65966 17.9778 -6.11333 16.7664 -5.46667 15.6081C-5.31453 15.3241 -5.1421 15.0299 -4.96967 14.7459C-4.30762 13.6243 -3.5545 12.5591 -2.71791 11.5609C-2.377 11.1827 -1.91026 10.9412 -1.40459 10.8815C-0.898918 10.8218 -0.388786 10.9479 0.0308456 11.2363L1.33929 11.9869C1.6875 12.1874 2.0874 12.28 2.48829 12.2529C2.88917 12.2258 3.27298 12.0803 3.59105 11.8348C5.06202 10.6622 6.69511 9.709 8.43942 9.00479C8.80799 8.85104 9.12297 8.59192 9.3449 8.25991C9.56684 7.9279 9.68585 7.53777 9.68701 7.13842V5.42419C9.67918 4.94383 9.84207 4.47627 10.1467 4.10477C10.4513 3.73327 10.8779 3.48194 11.3505 3.39553C14.2751 2.86816 17.2705 2.86816 20.1952 3.39553C20.6678 3.48194 21.0943 3.73327 21.399 4.10477C21.7036 4.47627 21.8665 4.94383 21.8586 5.42419V7.13842C21.8631 7.54242 21.9881 7.9359 22.2176 8.26841C22.4471 8.60093 22.7707 8.85734 23.1468 9.00479C24.9018 9.70637 26.5453 10.6597 28.0256 11.8348C28.3437 12.0803 28.7275 12.2258 29.1284 12.2529C29.5293 12.28 29.9292 12.1874 30.2774 11.9869L31.7684 11.1349C32.1794 10.8951 32.6616 10.8074 33.1307 10.8871C33.5998 10.9668 34.0259 11.2089 34.3346 11.5711C35.1887 12.5673 35.9588 13.6326 36.637 14.7561C36.8095 15.0401 36.9819 15.3342 37.134 15.6182C37.7777 16.7801 38.3207 17.995 38.7569 19.2495C38.9095 19.6942 38.9028 20.1781 38.7382 20.6184C38.5735 21.0587 38.2611 21.4282 37.8542 21.6637L36.3835 22.5157C36.0316 22.7144 35.747 23.0136 35.5663 23.375C35.3856 23.7365 35.317 24.1437 35.3692 24.5444C35.6397 26.4145 35.6397 28.3139 35.3692 30.1841C35.317 30.5848 35.3856 30.9919 35.5663 31.3534C35.747 31.7148 36.0316 32.0141 36.3835 32.2127L37.8542 33.0648C38.2611 33.3002 38.5735 33.6697 38.7382 34.11C38.9028 34.5504 38.9095 35.0342 38.7569 35.4789C38.3169 36.7303 37.7706 37.9418 37.1239 39.1C36.9718 39.3841 36.7993 39.6782 36.6269 39.9622C35.9487 41.0856 35.1785 42.151 34.3244 43.1472C34.0176 43.5085 33.594 43.751 33.1271 43.8325C32.6602 43.914 32.1795 43.8295 31.7684 43.5935L30.2875 42.7314C29.9393 42.5309 29.5394 42.4383 29.1385 42.4654C28.7376 42.4925 28.3538 42.638 28.0357 42.8835C26.5529 44.063 24.9059 45.0198 23.1468 45.7236C22.7782 45.8774 22.4633 46.1365 22.2413 46.4685C22.0194 46.8005 21.9004 47.1907 21.8992 47.59V49.3042C21.9071 49.7846 21.7442 50.2522 21.4395 50.6237C21.1349 50.9952 20.7083 51.2465 20.2358 51.3329C17.3111 51.8603 14.3157 51.8603 11.391 51.3329C10.9185 51.2465 10.4919 50.9952 10.1873 50.6237C9.88264 50.2522 9.71975 49.7846 9.72758 49.3042V47.59C9.72313 47.186 9.59814 46.7925 9.36864 46.46C9.13913 46.1275 8.81557 45.8711 8.43942 45.7236C6.68445 45.0221 5.04095 44.0687 3.56062 42.8937C3.24553 42.6545 2.86737 42.5126 2.4727 42.4856C2.07803 42.4585 1.68406 42.5475 1.33929 42.7415L-0.141582 43.6037C-0.553566 43.8462 -1.03796 43.9355 -1.50932 43.8557C-1.98068 43.7759 -2.40872 43.5321 -2.71791 43.1675C-3.57202 42.1712 -4.34214 41.1059 -5.02038 39.9825C-5.19281 39.6985 -5.36524 39.4043 -5.51739 39.1203C-6.15813 37.9549 -6.69769 36.7366 -7.13013 35.4789C-7.28267 35.0342 -7.27605 34.5504 -7.11139 34.11C-6.94674 33.6697 -6.63427 33.3002 -6.2274 33.0648ZM18.3213 42.0242L18.3213 35.9335C21.2342 35.0825 23.5306 32.7867 24.3825 29.8742L30.4718 29.8742C29.4179 36.0763 24.5235 40.9705 18.3213 42.0242ZM30.472 24.8571L24.3836 24.8571C23.5327 21.9427 21.2355 19.6453 18.3213 18.7939L18.3213 12.7061C24.5238 13.7598 29.4184 18.6545 30.472 24.8571ZM7.24437 29.8743L1.15389 29.8743C2.20785 36.0763 7.10214 40.9704 13.3042 42.0242V35.9331C10.392 35.0818 8.09614 32.7863 7.24437 29.8743ZM7.24319 24.8571L1.15369 24.8571C2.20724 18.6546 7.10176 13.7599 13.3042 12.7061V18.7942C10.3906 19.646 8.09402 21.9432 7.24319 24.8571ZM11.5014 27.3637C11.5014 29.7452 13.4319 31.6757 15.8134 31.6757C18.1949 31.6757 20.1254 29.7452 20.1254 27.3637C20.1254 24.9822 18.1949 23.0517 15.8134 23.0517C13.4319 23.0517 11.5014 24.9822 11.5014 27.3637Z" fill="url(#paint2_linear_353_8776)"/>
<path fill-rule="evenodd" clip-rule="evenodd" d="M-6.2274 33.0648L-4.74652 32.2127C-4.39463 32.0141 -4.1101 31.7148 -3.92938 31.3534C-3.74867 30.9919 -3.68001 30.5848 -3.73222 30.1841C-4.00271 28.3139 -4.00271 26.4145 -3.73222 24.5444C-3.68303 24.1085 -3.77088 23.6682 -3.98357 23.2846C-4.19627 22.901 -4.52322 22.5933 -4.91895 22.4041L-6.19698 21.6637C-6.60831 21.4274 -6.92385 21.0546 -7.08878 20.6098C-7.2537 20.1651 -7.25757 19.6766 -7.0997 19.2293C-6.65966 17.9778 -6.11333 16.7664 -5.46667 15.6081C-5.31453 15.3241 -5.1421 15.0299 -4.96967 14.7459C-4.30762 13.6243 -3.5545 12.5591 -2.71791 11.5609C-2.377 11.1827 -1.91026 10.9412 -1.40459 10.8815C-0.898918 10.8218 -0.388786 10.9479 0.0308456 11.2363L1.33929 11.9869C1.6875 12.1874 2.0874 12.28 2.48829 12.2529C2.88917 12.2258 3.27298 12.0803 3.59105 11.8348C5.06202 10.6622 6.69511 9.709 8.43942 9.00479C8.80799 8.85104 9.12297 8.59192 9.3449 8.25991C9.56684 7.9279 9.68585 7.53777 9.68701 7.13842V5.42419C9.67918 4.94383 9.84207 4.47627 10.1467 4.10477C10.4513 3.73327 10.8779 3.48194 11.3505 3.39553C14.2751 2.86816 17.2705 2.86816 20.1952 3.39553C20.6678 3.48194 21.0943 3.73327 21.399 4.10477C21.7036 4.47627 21.8665 4.94383 21.8586 5.42419V7.13842C21.8631 7.54242 21.9881 7.9359 22.2176 8.26841C22.4471 8.60093 22.7707 8.85734 23.1468 9.00479C24.9018 9.70637 26.5453 10.6597 28.0256 11.8348C28.3437 12.0803 28.7275 12.2258 29.1284 12.2529C29.5293 12.28 29.9292 12.1874 30.2774 11.9869L31.7684 11.1349C32.1794 10.8951 32.6616 10.8074 33.1307 10.8871C33.5998 10.9668 34.0259 11.2089 34.3346 11.5711C35.1887 12.5673 35.9588 13.6326 36.637 14.7561C36.8095 15.0401 36.9819 15.3342 37.134 15.6182C37.7777 16.7801 38.3207 17.995 38.7569 19.2495C38.9095 19.6942 38.9028 20.1781 38.7382 20.6184C38.5735 21.0587 38.2611 21.4282 37.8542 21.6637L36.3835 22.5157C36.0316 22.7144 35.747 23.0136 35.5663 23.375C35.3856 23.7365 35.317 24.1437 35.3692 24.5444C35.6397 26.4145 35.6397 28.3139 35.3692 30.1841C35.317 30.5848 35.3856 30.9919 35.5663 31.3534C35.747 31.7148 36.0316 32.0141 36.3835 32.2127L37.8542 33.0648C38.2611 33.3002 38.5735 33.6697 38.7382 34.11C38.9028 34.5504 38.9095 35.0342 38.7569 35.4789C38.3169 36.7303 37.7706 37.9418 37.1239 39.1C36.9718 39.3841 36.7993 39.6782 36.6269 39.9622C35.9487 41.0856 35.1785 42.151 34.3244 43.1472C34.0176 43.5085 33.594 43.751 33.1271 43.8325C32.6602 43.914 32.1795 43.8295 31.7684 43.5935L30.2875 42.7314C29.9393 42.5309 29.5394 42.4383 29.1385 42.4654C28.7376 42.4925 28.3538 42.638 28.0357 42.8835C26.5529 44.063 24.9059 45.0198 23.1468 45.7236C22.7782 45.8774 22.4633 46.1365 22.2413 46.4685C22.0194 46.8005 21.9004 47.1907 21.8992 47.59V49.3042C21.9071 49.7846 21.7442 50.2522 21.4395 50.6237C21.1349 50.9952 20.7083 51.2465 20.2358 51.3329C17.3111 51.8603 14.3157 51.8603 11.391 51.3329C10.9185 51.2465 10.4919 50.9952 10.1873 50.6237C9.88264 50.2522 9.71975 49.7846 9.72758 49.3042V47.59C9.72313 47.186 9.59814 46.7925 9.36864 46.46C9.13913 46.1275 8.81557 45.8711 8.43942 45.7236C6.68445 45.0221 5.04095 44.0687 3.56062 42.8937C3.24553 42.6545 2.86737 42.5126 2.4727 42.4856C2.07803 42.4585 1.68406 42.5475 1.33929 42.7415L-0.141582 43.6037C-0.553566 43.8462 -1.03796 43.9355 -1.50932 43.8557C-1.98068 43.7759 -2.40872 43.5321 -2.71791 43.1675C-3.57202 42.1712 -4.34214 41.1059 -5.02038 39.9825C-5.19281 39.6985 -5.36524 39.4043 -5.51739 39.1203C-6.15813 37.9549 -6.69769 36.7366 -7.13013 35.4789C-7.28267 35.0342 -7.27605 34.5504 -7.11139 34.11C-6.94674 33.6697 -6.63427 33.3002 -6.2274 33.0648ZM18.3213 42.0242L18.3213 35.9335C21.2342 35.0825 23.5306 32.7867 24.3825 29.8742L30.4718 29.8742C29.4179 36.0763 24.5235 40.9705 18.3213 42.0242ZM30.472 24.8571L24.3836 24.8571C23.5327 21.9427 21.2355 19.6453 18.3213 18.7939L18.3213 12.7061C24.5238 13.7598 29.4184 18.6545 30.472 24.8571ZM7.24437 29.8743L1.15389 29.8743C2.20785 36.0763 7.10214 40.9704 13.3042 42.0242V35.9331C10.392 35.0818 8.09614 32.7863 7.24437 29.8743ZM7.24319 24.8571L1.15369 24.8571C2.20724 18.6546 7.10176 13.7599 13.3042 12.7061V18.7942C10.3906 19.646 8.09402 21.9432 7.24319 24.8571ZM11.5014 27.3637C11.5014 29.7452 13.4319 31.6757 15.8134 31.6757C18.1949 31.6757 20.1254 29.7452 20.1254 27.3637C20.1254 24.9822 18.1949 23.0517 15.8134 23.0517C13.4319 23.0517 11.5014 24.9822 11.5014 27.3637Z" fill="url(#paint3_diamond_353_8776)"/>
</g>
</g>
<defs>
<filter id="filter0_d_353_8776" x="-14.103" y="3" width="52.9697" height="51.9192" filterUnits="userSpaceOnUse" color-interpolation-filters="sRGB">
<feFlood flood-opacity="0" result="BackgroundImageFix"/>
<feColorMatrix in="SourceAlpha" type="matrix" values="0 0 0 0 0 0 0 0 0 0 0 0 0 0 0 0 0 0 127 0" result="hardAlpha"/>
<feOffset dx="-5" dy="2"/>
<feGaussianBlur stdDeviation="0.5"/>
<feComposite in2="hardAlpha" operator="out"/>
<feColorMatrix type="matrix" values="0 0 0 0 0 0 0 0 0 0 0 0 0 0 0 0 0 0 0.05 0"/>
<feBlend mode="normal" in2="BackgroundImageFix" result="effect1_dropShadow_353_8776"/>
<feBlend mode="normal" in="SourceGraphic" in2="effect1_dropShadow_353_8776" result="shape"/>
</filter>
<linearGradient id="paint0_linear_353_8776" x1="44.0119" y1="0" x2="14.0216" y2="52.0739" gradientUnits="userSpaceOnUse">
<stop stop-color="#FAF1A7"/>
<stop offset="1" stop-color="#B2E04E"/>
</linearGradient>
<linearGradient id="paint1_linear_353_8776" x1="28.6957" y1="4.42846" x2="2.78481" y2="44.6591" gradientUnits="userSpaceOnUse">
<stop stop-color="#90A7B0"/>
<stop offset="1" stop-color="#111E36"/>
</linearGradient>
<linearGradient id="paint2_linear_353_8776" x1="35.6239" y1="-0.762738" x2="-20.8728" y2="97.2275" gradientUnits="userSpaceOnUse">
<stop offset="0.134198" stop-color="#FDFEFF"/>
<stop offset="0.399966" stop-color="#C8CEDE"/>
<stop offset="0.768375" stop-color="#8B90AB"/>
</linearGradient>
<radialGradient id="paint3_diamond_353_8776" cx="0" cy="0" r="1" gradientUnits="userSpaceOnUse" gradientTransform="translate(15.8134 27.3642) rotate(-122.623) scale(41.8984 65.5224)">
<stop offset="0.0819565" stop-color="white"/>
<stop offset="0.859375" stop-color="white" stop-opacity="0"/>
</radialGradient>
<clipPath id="clip0_353_8776">
<path d="M0.00927734 14C0.00927734 6.26801 6.27729 0 14.0093 0H30.0119C37.7439 0 44.0119 6.26801 44.0119 14V30.0039C44.0119 37.7359 37.7439 44.0039 30.0119 44.0039H14.0093C6.2773 44.0039 0.00927734 37.7359 0.00927734 30.0039V14Z" fill="white"/>
</clipPath>
</defs>
</svg>
