<svg width="45" height="45" viewBox="0 0 45 45" fill="none" xmlns="http://www.w3.org/2000/svg">
<g clip-path="url(#clip0_353_10448)">
<path d="M0.0117188 14C0.0117188 6.26801 6.27973 0 14.0117 0H30.0156C37.7476 0 44.0156 6.26801 44.0156 14V30.0039C44.0156 37.7359 37.7476 44.0039 30.0156 44.0039H14.0117C6.27973 44.0039 0.0117188 37.7359 0.0117188 30.0039V14Z" fill="#E4E4E4"/>
<g filter="url(#filter0_d_353_10448)">
<path fill-rule="evenodd" clip-rule="evenodd" d="M-5.28292 32.3109L-3.9154 31.5241C-3.59045 31.3407 -3.32769 31.0644 -3.16081 30.7306C-2.99393 30.3968 -2.93053 30.0208 -2.97874 29.6508C-3.22853 27.9238 -3.22853 26.1699 -2.97874 24.443C-2.93331 24.0405 -3.01444 23.6339 -3.21086 23.2797C-3.40727 22.9255 -3.70919 22.6413 -4.07463 22.4666L-5.25483 21.7829C-5.63467 21.5647 -5.92607 21.2204 -6.07837 20.8097C-6.23067 20.399 -6.23424 19.9479 -6.08846 19.5349C-5.6821 18.3793 -5.17759 17.2605 -4.58043 16.191C-4.43993 15.9287 -4.2807 15.6571 -4.12147 15.3948C-3.5101 14.3591 -2.81462 13.3754 -2.04208 12.4537C-1.72726 12.1044 -1.29624 11.8815 -0.829281 11.8264C-0.36232 11.7712 0.108765 11.8876 0.496273 12.154L1.70457 12.8471C2.02612 13.0322 2.39541 13.1177 2.76561 13.0927C3.1358 13.0677 3.49023 12.9333 3.78396 12.7066C5.14233 11.6238 6.65041 10.7436 8.2612 10.0933C8.60155 9.95134 8.89243 9.71207 9.09737 9.40548C9.30232 9.09889 9.41222 8.73864 9.41329 8.36986V6.7869C9.40606 6.34332 9.55648 5.91157 9.83779 5.56852C10.1191 5.22546 10.513 4.99338 10.9494 4.91358C13.6502 4.42659 16.4163 4.42659 19.1171 4.91358C19.5535 4.99338 19.9474 5.22546 20.2287 5.56852C20.51 5.91157 20.6605 6.34332 20.6532 6.7869V8.36986C20.6573 8.74293 20.7728 9.10628 20.9847 9.41333C21.1966 9.72039 21.4954 9.95716 21.8428 10.0933C23.4634 10.7412 24.9811 11.6215 26.3481 12.7066C26.6419 12.9333 26.9963 13.0677 27.3665 13.0927C27.7367 13.1177 28.106 13.0322 28.4275 12.8471L29.8044 12.0603C30.1839 11.8389 30.6292 11.7579 31.0624 11.8315C31.4956 11.9051 31.8891 12.1287 32.1742 12.4631C32.9629 13.3831 33.6741 14.3668 34.3004 15.4042C34.4596 15.6665 34.6189 15.9381 34.7594 16.2004C35.3538 17.2732 35.8552 18.3951 36.258 19.5536C36.3989 19.9642 36.3928 20.411 36.2407 20.8176C36.0887 21.2242 35.8001 21.5654 35.4244 21.7829L34.0662 22.5696C33.7413 22.7531 33.4785 23.0294 33.3116 23.3632C33.1448 23.6969 33.0814 24.0729 33.1296 24.443C33.3793 26.1699 33.3793 27.9238 33.1296 29.6508C33.0814 30.0208 33.1448 30.3968 33.3116 30.7306C33.4785 31.0644 33.7413 31.3407 34.0662 31.5241L35.4244 32.3109C35.8001 32.5284 36.0887 32.8695 36.2407 33.2762C36.3928 33.6828 36.3989 34.1296 36.258 34.5402C35.8517 35.6958 35.3471 36.8145 34.75 37.8841C34.6095 38.1463 34.4503 38.418 34.291 38.6802C33.6647 39.7176 32.9535 40.7014 32.1648 41.6213C31.8815 41.955 31.4903 42.1788 31.0591 42.2541C30.6279 42.3294 30.184 42.2513 29.8044 42.0335L28.4369 41.2373C28.1153 41.0522 27.746 40.9667 27.3758 40.9917C27.0057 41.0167 26.6512 41.1511 26.3575 41.3778C24.9882 42.467 23.4673 43.3505 21.8428 44.0005C21.5024 44.1424 21.2116 44.3817 21.0066 44.6883C20.8017 44.9949 20.6918 45.3551 20.6907 45.7239V47.3069C20.6979 47.7505 20.5475 48.1822 20.2662 48.5253C19.9849 48.8683 19.591 49.1004 19.1546 49.1802C16.4538 49.6672 13.6877 49.6672 10.9869 49.1802C10.5505 49.1004 10.1566 48.8683 9.87525 48.5253C9.59395 48.1822 9.44353 47.7505 9.45076 47.3069V45.7239C9.44664 45.3508 9.33122 44.9875 9.11929 44.6804C8.90735 44.3734 8.60856 44.1366 8.2612 44.0005C6.64057 43.3526 5.12287 42.4723 3.75586 41.3872C3.46488 41.1663 3.11567 41.0353 2.75121 41.0104C2.38675 40.9854 2.02294 41.0675 1.70457 41.2467L0.337044 42.0428C-0.0434036 42.2668 -0.490719 42.3492 -0.925999 42.2755C-1.36128 42.2018 -1.75655 41.9768 -2.04208 41.6401C-2.8308 40.7201 -3.54197 39.7363 -4.1683 38.699C-4.32753 38.4367 -4.48676 38.1651 -4.62726 37.9028C-5.21896 36.8266 -5.71722 35.7016 -6.11655 34.5402C-6.25742 34.1296 -6.2513 33.6828 -6.09925 33.2762C-5.9472 32.8695 -5.65865 32.5284 -5.28292 32.3109ZM17.3864 40.5833L17.3864 34.9605C20.0765 34.1745 22.1972 32.0539 22.9835 29.3638L28.6061 29.3638C27.6329 35.0908 23.1135 39.6102 17.3864 40.5833ZM28.6063 24.7308L22.9836 24.7308C22.1975 22.0405 20.0767 19.9197 17.3864 19.1336L17.3864 13.5103C23.1138 14.4835 27.6334 19.0033 28.6063 24.7308ZM7.15677 29.3638L1.53318 29.3638C2.50644 35.091 7.02611 39.6104 12.7534 40.5834V34.9604C10.0635 34.1742 7.94297 32.0537 7.15677 29.3638ZM7.15664 24.7308L1.53301 24.7308C2.50592 19.0031 7.02579 14.4832 12.7534 13.5102V19.1337C10.0633 19.92 7.94273 22.0407 7.15664 24.7308ZM11.4417 27.0471C11.4417 29.051 13.0662 30.6755 15.0701 30.6755C17.0741 30.6755 18.6986 29.051 18.6986 27.0471C18.6986 25.0431 17.0741 23.4186 15.0701 23.4186C13.0662 23.4186 11.4417 25.0431 11.4417 27.0471Z" fill="url(#paint0_linear_353_10448)"/>
<path fill-rule="evenodd" clip-rule="evenodd" d="M-4.49697 32.1152L-3.13478 31.3315C-2.8111 31.1488 -2.54937 30.8735 -2.38314 30.5411C-2.21691 30.2086 -2.15376 29.8341 -2.20177 29.4655C-2.45059 27.7453 -2.45059 25.9982 -2.20177 24.278C-2.15652 23.8771 -2.23734 23.472 -2.43299 23.1192C-2.62863 22.7664 -2.92938 22.4833 -3.29339 22.3093L-4.46899 21.6282C-4.84735 21.411 -5.13761 21.068 -5.28931 20.6589C-5.44102 20.2498 -5.44458 19.8005 -5.29936 19.389C-4.89459 18.2379 -4.39204 17.1236 -3.79722 16.0582C-3.65727 15.7969 -3.49866 15.5264 -3.34005 15.2651C-2.73106 14.2335 -2.0383 13.2536 -1.26877 12.3355C-0.955173 11.9876 -0.525841 11.7655 -0.0606995 11.7106C0.404438 11.6556 0.873688 11.7716 1.25969 12.0369L2.46326 12.7273C2.78356 12.9118 3.15141 12.9969 3.52016 12.972C3.88892 12.9471 4.24197 12.8132 4.53455 12.5874C5.88762 11.5089 7.38982 10.632 8.99433 9.98429C9.33335 9.84287 9.62309 9.60452 9.82724 9.29913C10.0314 8.99374 10.1409 8.63489 10.1419 8.26756V6.69077C10.1347 6.24892 10.2846 5.81885 10.5648 5.47714C10.845 5.13542 11.2374 4.90424 11.6721 4.82475C14.3623 4.33967 17.1176 4.33967 19.8079 4.82475C20.2426 4.90424 20.635 5.13542 20.9152 5.47714C21.1954 5.81885 21.3452 6.24892 21.338 6.69077V8.26756C21.3421 8.63917 21.4571 9.0011 21.6682 9.30695C21.8793 9.61281 22.1769 9.84867 22.5229 9.98429C24.1373 10.6296 25.649 11.5065 27.0107 12.5874C27.3033 12.8132 27.6563 12.9471 28.0251 12.972C28.3938 12.9969 28.7617 12.9118 29.082 12.7273L30.4535 11.9436C30.8316 11.723 31.2751 11.6424 31.7066 11.7157C32.1381 11.789 32.5301 12.0117 32.814 12.3448C33.5997 13.2612 34.3081 14.2411 34.932 15.2744C35.0906 15.5357 35.2492 15.8063 35.3891 16.0675C35.9812 17.1362 36.4807 18.2537 36.8819 19.4077C37.0223 19.8167 37.0162 20.2617 36.8647 20.6668C36.7132 21.0718 36.4258 21.4116 36.0516 21.6282L34.6987 22.412C34.375 22.5947 34.1133 22.8699 33.9471 23.2024C33.7808 23.5349 33.7177 23.9094 33.7657 24.278C34.0145 25.9982 34.0145 27.7453 33.7657 29.4655C33.7177 29.8341 33.7808 30.2086 33.9471 30.5411C34.1133 30.8735 34.375 31.1488 34.6987 31.3315L36.0516 32.1152C36.4258 32.3318 36.7132 32.6717 36.8647 33.0767C37.0162 33.4817 37.0223 33.9268 36.8819 34.3358C36.4772 35.4869 35.9746 36.6013 35.3798 37.6666C35.2398 37.9279 35.0812 38.1985 34.9226 38.4597C34.2987 39.493 33.5903 40.4729 32.8047 41.3894C32.5225 41.7217 32.1328 41.9447 31.7033 42.0197C31.2738 42.0947 30.8316 42.0169 30.4535 41.7999L29.0913 41.0068C28.771 40.8224 28.4032 40.7372 28.0344 40.7622C27.6657 40.7871 27.3126 40.9209 27.02 41.1468C25.6561 42.2317 24.1411 43.1118 22.5229 43.7592C22.1839 43.9006 21.8942 44.139 21.69 44.4443C21.4859 44.7497 21.3764 45.1086 21.3753 45.4759V47.0527C21.3826 47.4946 21.2327 47.9246 20.9525 48.2663C20.6723 48.6081 20.2799 48.8392 19.8452 48.9187C17.155 49.4038 14.3996 49.4038 11.7094 48.9187C11.2747 48.8392 10.8823 48.6081 10.6021 48.2663C10.3219 47.9246 10.172 47.4946 10.1792 47.0527V45.4759C10.1751 45.1043 10.0602 44.7424 9.84907 44.4365C9.63796 44.1307 9.34033 43.8948 8.99433 43.7592C7.38001 43.1139 5.86824 42.237 4.50655 41.1561C4.21671 40.9361 3.86887 40.8056 3.50583 40.7807C3.14279 40.7559 2.7804 40.8377 2.46326 41.0161L1.10107 41.8092C0.722115 42.0323 0.276539 42.1144 -0.157043 42.041C-0.590622 41.9676 -0.984352 41.7434 -1.26877 41.408C-2.05442 40.4916 -2.76281 39.5117 -3.3867 38.4784C-3.54531 38.2171 -3.70391 37.9465 -3.84387 37.6853C-4.43326 36.6133 -4.92957 35.4927 -5.32735 34.3358C-5.46766 33.9268 -5.46157 33.4817 -5.31011 33.0767C-5.15865 32.6717 -4.87123 32.3318 -4.49697 32.1152ZM18.0841 40.3561V34.7539C20.7633 33.9711 22.8755 31.8594 23.659 29.1804L29.2602 29.1804C28.2907 34.8851 23.7889 39.3869 18.0841 40.3561ZM29.2604 24.5655L23.66 24.5655C22.8773 21.885 20.7644 19.7718 18.0841 18.9886V13.3887C23.7892 14.358 28.2913 18.8603 29.2604 24.5655ZM7.89492 29.1804L2.29287 29.1804C3.26235 34.8852 7.76432 39.387 13.4692 40.3562V34.7537C10.7903 33.9707 8.67838 31.8591 7.89492 29.1804ZM7.89394 24.5655L2.29267 24.5655C3.26174 18.8602 7.76393 14.3579 13.4692 13.3886V18.9888C10.7892 19.7722 8.67661 21.8852 7.89394 24.5655ZM12.1807 26.8713C12.1807 28.8575 13.7908 30.4676 15.777 30.4676C17.7632 30.4676 19.3733 28.8575 19.3733 26.8713C19.3733 24.8851 17.7632 23.275 15.777 23.275C13.7908 23.275 12.1807 24.8851 12.1807 26.8713Z" fill="url(#paint1_linear_353_10448)"/>
<path fill-rule="evenodd" clip-rule="evenodd" d="M-4.49697 32.1152L-3.13478 31.3315C-2.8111 31.1488 -2.54937 30.8735 -2.38314 30.5411C-2.21691 30.2086 -2.15376 29.8341 -2.20177 29.4655C-2.45059 27.7453 -2.45059 25.9982 -2.20177 24.278C-2.15652 23.8771 -2.23734 23.472 -2.43299 23.1192C-2.62863 22.7664 -2.92938 22.4833 -3.29339 22.3093L-4.46899 21.6282C-4.84735 21.411 -5.13761 21.068 -5.28931 20.6589C-5.44102 20.2498 -5.44458 19.8005 -5.29936 19.389C-4.89459 18.2379 -4.39204 17.1236 -3.79722 16.0582C-3.65727 15.7969 -3.49866 15.5264 -3.34005 15.2651C-2.73106 14.2335 -2.0383 13.2536 -1.26877 12.3355C-0.955173 11.9876 -0.525841 11.7655 -0.0606995 11.7106C0.404438 11.6556 0.873688 11.7716 1.25969 12.0369L2.46326 12.7273C2.78356 12.9118 3.15141 12.9969 3.52016 12.972C3.88892 12.9471 4.24197 12.8132 4.53455 12.5874C5.88762 11.5089 7.38982 10.632 8.99433 9.98429C9.33335 9.84287 9.62309 9.60452 9.82724 9.29913C10.0314 8.99374 10.1409 8.63489 10.1419 8.26756V6.69077C10.1347 6.24892 10.2846 5.81885 10.5648 5.47714C10.845 5.13542 11.2374 4.90424 11.6721 4.82475C14.3623 4.33967 17.1176 4.33967 19.8079 4.82475C20.2426 4.90424 20.635 5.13542 20.9152 5.47714C21.1954 5.81885 21.3452 6.24892 21.338 6.69077V8.26756C21.3421 8.63917 21.4571 9.0011 21.6682 9.30695C21.8793 9.61281 22.1769 9.84867 22.5229 9.98429C24.1373 10.6296 25.649 11.5065 27.0107 12.5874C27.3033 12.8132 27.6563 12.9471 28.0251 12.972C28.3938 12.9969 28.7617 12.9118 29.082 12.7273L30.4535 11.9436C30.8316 11.723 31.2751 11.6424 31.7066 11.7157C32.1381 11.789 32.5301 12.0117 32.814 12.3448C33.5997 13.2612 34.3081 14.2411 34.932 15.2744C35.0906 15.5357 35.2492 15.8063 35.3891 16.0675C35.9812 17.1362 36.4807 18.2537 36.8819 19.4077C37.0223 19.8167 37.0162 20.2617 36.8647 20.6668C36.7132 21.0718 36.4258 21.4116 36.0516 21.6282L34.6987 22.412C34.375 22.5947 34.1133 22.8699 33.9471 23.2024C33.7808 23.5349 33.7177 23.9094 33.7657 24.278C34.0145 25.9982 34.0145 27.7453 33.7657 29.4655C33.7177 29.8341 33.7808 30.2086 33.9471 30.5411C34.1133 30.8735 34.375 31.1488 34.6987 31.3315L36.0516 32.1152C36.4258 32.3318 36.7132 32.6717 36.8647 33.0767C37.0162 33.4817 37.0223 33.9268 36.8819 34.3358C36.4772 35.4869 35.9746 36.6013 35.3798 37.6666C35.2398 37.9279 35.0812 38.1985 34.9226 38.4597C34.2987 39.493 33.5903 40.4729 32.8047 41.3894C32.5225 41.7217 32.1328 41.9447 31.7033 42.0197C31.2738 42.0947 30.8316 42.0169 30.4535 41.7999L29.0913 41.0068C28.771 40.8224 28.4032 40.7372 28.0344 40.7622C27.6657 40.7871 27.3126 40.9209 27.02 41.1468C25.6561 42.2317 24.1411 43.1118 22.5229 43.7592C22.1839 43.9006 21.8942 44.139 21.69 44.4443C21.4859 44.7497 21.3764 45.1086 21.3753 45.4759V47.0527C21.3826 47.4946 21.2327 47.9246 20.9525 48.2663C20.6723 48.6081 20.2799 48.8392 19.8452 48.9187C17.155 49.4038 14.3996 49.4038 11.7094 48.9187C11.2747 48.8392 10.8823 48.6081 10.6021 48.2663C10.3219 47.9246 10.172 47.4946 10.1792 47.0527V45.4759C10.1751 45.1043 10.0602 44.7424 9.84907 44.4365C9.63796 44.1307 9.34033 43.8948 8.99433 43.7592C7.38001 43.1139 5.86824 42.237 4.50655 41.1561C4.21671 40.9361 3.86887 40.8056 3.50583 40.7807C3.14279 40.7559 2.7804 40.8377 2.46326 41.0161L1.10107 41.8092C0.722115 42.0323 0.276539 42.1144 -0.157043 42.041C-0.590622 41.9676 -0.984352 41.7434 -1.26877 41.408C-2.05442 40.4916 -2.76281 39.5117 -3.3867 38.4784C-3.54531 38.2171 -3.70391 37.9465 -3.84387 37.6853C-4.43326 36.6133 -4.92957 35.4927 -5.32735 34.3358C-5.46766 33.9268 -5.46157 33.4817 -5.31011 33.0767C-5.15865 32.6717 -4.87123 32.3318 -4.49697 32.1152ZM18.0841 40.3561V34.7539C20.7633 33.9711 22.8755 31.8594 23.659 29.1804L29.2602 29.1804C28.2907 34.8851 23.7889 39.3869 18.0841 40.3561ZM29.2604 24.5655L23.66 24.5655C22.8773 21.885 20.7644 19.7718 18.0841 18.9886V13.3887C23.7892 14.358 28.2913 18.8603 29.2604 24.5655ZM7.89492 29.1804L2.29287 29.1804C3.26235 34.8852 7.76432 39.387 13.4692 40.3562V34.7537C10.7903 33.9707 8.67838 31.8591 7.89492 29.1804ZM7.89394 24.5655L2.29267 24.5655C3.26174 18.8602 7.76393 14.3579 13.4692 13.3886V18.9888C10.7892 19.7722 8.67661 21.8852 7.89394 24.5655ZM12.1807 26.8713C12.1807 28.8575 13.7908 30.4676 15.777 30.4676C17.7632 30.4676 19.3733 28.8575 19.3733 26.8713C19.3733 24.8851 17.7632 23.275 15.777 23.275C13.7908 23.275 12.1807 24.8851 12.1807 26.8713Z" fill="url(#paint2_diamond_353_10448)"/>
</g>
</g>
<defs>
<filter id="filter0_d_353_10448" x="-12.2178" y="4.46094" width="49.2007" height="48.0845" filterUnits="userSpaceOnUse" color-interpolation-filters="sRGB">
<feFlood flood-opacity="0" result="BackgroundImageFix"/>
<feColorMatrix in="SourceAlpha" type="matrix" values="0 0 0 0 0 0 0 0 0 0 0 0 0 0 0 0 0 0 127 0" result="hardAlpha"/>
<feOffset dx="-5" dy="2"/>
<feGaussianBlur stdDeviation="0.5"/>
<feComposite in2="hardAlpha" operator="out"/>
<feColorMatrix type="matrix" values="0 0 0 0 0 0 0 0 0 0 0 0 0 0 0 0 0 0 0.05 0"/>
<feBlend mode="normal" in2="BackgroundImageFix" result="effect1_dropShadow_353_10448"/>
<feBlend mode="normal" in="SourceGraphic" in2="effect1_dropShadow_353_10448" result="shape"/>
</filter>
<linearGradient id="paint0_linear_353_10448" x1="27.6314" y1="5.86227" x2="3.79828" y2="42.868" gradientUnits="userSpaceOnUse">
<stop stop-color="#AFAFAF"/>
<stop offset="1" stop-color="#272727"/>
</linearGradient>
<linearGradient id="paint1_linear_353_10448" x1="39.7612" y1="-16.5117" x2="-18.0009" y2="91.1235" gradientUnits="userSpaceOnUse">
<stop offset="0.225526" stop-color="#ECECEC"/>
<stop offset="0.395503" stop-color="#CDCDCD"/>
<stop offset="0.595631" stop-color="#6F6F6F"/>
</linearGradient>
<radialGradient id="paint2_diamond_353_10448" cx="0" cy="0" r="1" gradientUnits="userSpaceOnUse" gradientTransform="translate(15.7773 26.8717) rotate(-122.624) scale(38.5395 60.2704)">
<stop offset="0.0819565" stop-color="#F5F5F5"/>
<stop offset="0.859375" stop-color="white" stop-opacity="0"/>
</radialGradient>
<clipPath id="clip0_353_10448">
<path d="M0.0117188 14C0.0117188 6.26801 6.27973 0 14.0117 0H30.0156C37.7476 0 44.0156 6.26801 44.0156 14V30.0039C44.0156 37.7359 37.7476 44.0039 30.0156 44.0039H14.0117C6.27973 44.0039 0.0117188 37.7359 0.0117188 30.0039V14Z" fill="white"/>
</clipPath>
</defs>
</svg>
