<svg width="45" height="44" viewBox="0 0 45 44" fill="none" xmlns="http://www.w3.org/2000/svg">
<g clip-path="url(#clip0_353_9337)">
<path d="M0.00244141 14C0.00244141 6.26801 6.27045 0 14.0024 0H30.0024C37.7344 0 44.0024 6.26801 44.0024 14V30C44.0024 37.732 37.7344 44 30.0024 44H14.0024C6.27045 44 0.00244141 37.732 0.00244141 30V14Z" fill="#E4E4E4"/>
<mask id="mask0_353_9337" style="mask-type:alpha" maskUnits="userSpaceOnUse" x="-10" y="2" width="84" height="114">
<rect x="-9.96436" y="16.5625" width="30.3061" height="115.301" rx="2.47471" transform="rotate(-30 -9.96436 16.5625)" fill="#EBB854"/>
</mask>
<g mask="url(#mask0_353_9337)">
<path fill-rule="evenodd" clip-rule="evenodd" d="M-7.82141 15.3251C-9.00504 16.0085 -9.41058 17.522 -8.72721 18.7056L46.4485 114.273C47.1319 115.456 48.6454 115.862 49.829 115.179L71.7885 102.5C72.9721 101.817 73.3777 100.303 72.6943 99.1197L17.5186 3.55259C16.8352 2.36895 15.3217 1.96341 14.1381 2.64678L-7.82141 15.3251ZM7.61067 25.6732C8.36357 26.9773 9.80998 27.5517 10.8413 26.9563C11.8726 26.3609 12.0984 24.821 11.3455 23.5169C10.5926 22.2129 9.14615 21.6384 8.11482 22.2339C7.08348 22.8293 6.85777 24.3691 7.61067 25.6732Z" fill="url(#paint0_linear_353_9337)"/>
<path fill-rule="evenodd" clip-rule="evenodd" d="M-6.52454 14.5759C-7.70817 15.2592 -8.11371 16.7727 -7.43034 17.9564L47.7453 113.523C48.4287 114.707 49.9422 115.113 51.1259 114.429L71.7885 102.5C72.9721 101.816 73.3777 100.303 72.6943 99.1192L17.5186 3.55209C16.8352 2.36846 15.3217 1.96292 14.1381 2.64629L-6.52454 14.5759ZM7.61067 25.6728C8.36357 26.9768 9.80998 27.5513 10.8413 26.9558C11.8726 26.3604 12.0984 24.8205 11.3455 23.5165C10.5926 22.2124 9.14615 21.638 8.11482 22.2334C7.08348 22.8288 6.85777 24.3687 7.61067 25.6728Z" fill="#C7C7C7"/>
<path d="M0.704102 13.7502L55.3267 108.359L50.4748 111.161C50.1789 111.332 49.8006 111.23 49.6297 110.934L-4.37425 17.3966C-4.54509 17.1007 -4.4437 16.7223 -4.14779 16.5515L0.704102 13.7502Z" fill="url(#paint1_linear_353_9337)"/>
<path fill-rule="evenodd" clip-rule="evenodd" d="M12.371 8.96411L18.5749 5.3823L18.9331 6.00269L12.7292 9.5845L12.371 8.96411Z" fill="black"/>
<path fill-rule="evenodd" clip-rule="evenodd" d="M49.9723 111.45C49.801 111.549 49.5819 111.491 49.483 111.319L-4.78383 17.3262C-4.88274 17.1549 -4.82405 16.9359 -4.65273 16.8369C-4.48142 16.738 -4.26235 16.7967 -4.16345 16.9681L50.1034 110.961C50.2023 111.132 50.1436 111.351 49.9723 111.45Z" fill="url(#paint2_linear_353_9337)"/>
<path fill-rule="evenodd" clip-rule="evenodd" d="M18.2666 19.1758L24.4704 15.594L24.8286 16.2144L18.6247 19.7962L18.2666 19.1758Z" fill="black"/>
<path fill-rule="evenodd" clip-rule="evenodd" d="M24.1621 29.3875L30.3659 25.8056L30.7241 26.426L24.5202 30.0078L24.1621 29.3875Z" fill="black"/>
<path fill-rule="evenodd" clip-rule="evenodd" d="M30.0581 39.5989L36.2619 36.0171L36.6201 36.6375L30.4162 40.2193L30.0581 39.5989Z" fill="black"/>
<path fill-rule="evenodd" clip-rule="evenodd" d="M14.3824 9.58287L19.3455 6.71742L19.4888 6.96558L14.5257 9.83103L14.3824 9.58287Z" fill="black" fill-opacity="0.5"/>
<path fill-rule="evenodd" clip-rule="evenodd" d="M14.9722 10.6041L19.9353 7.73866L20.0786 7.98682L15.1155 10.8523L14.9722 10.6041Z" fill="black" fill-opacity="0.5"/>
<path fill-rule="evenodd" clip-rule="evenodd" d="M15.5616 11.6254L20.5247 8.7599L20.668 9.00806L15.7049 11.8735L15.5616 11.6254Z" fill="black" fill-opacity="0.5"/>
<path fill-rule="evenodd" clip-rule="evenodd" d="M16.1509 12.6463L21.1141 9.7809L21.2573 10.0291L16.2942 12.8945L16.1509 12.6463Z" fill="black" fill-opacity="0.5"/>
<path fill-rule="evenodd" clip-rule="evenodd" d="M16.7408 13.6676L21.7039 10.8021L21.8472 11.0503L16.8841 13.9157L16.7408 13.6676Z" fill="black" fill-opacity="0.5"/>
<path fill-rule="evenodd" clip-rule="evenodd" d="M17.3301 14.6888L22.2933 11.8234L22.4365 12.0715L17.4734 14.937L17.3301 14.6888Z" fill="black" fill-opacity="0.5"/>
<path fill-rule="evenodd" clip-rule="evenodd" d="M17.92 15.7098L22.8831 12.8444L23.0264 13.0925L18.0633 15.958L17.92 15.7098Z" fill="black" fill-opacity="0.5"/>
<path fill-rule="evenodd" clip-rule="evenodd" d="M18.5093 16.7311L23.4725 13.8656L23.6157 14.1138L18.6526 16.9792L18.5093 16.7311Z" fill="black" fill-opacity="0.5"/>
<path fill-rule="evenodd" clip-rule="evenodd" d="M19.0992 17.7523L24.0623 14.8869L24.2056 15.135L19.2425 18.0005L19.0992 17.7523Z" fill="black" fill-opacity="0.5"/>
<path fill-rule="evenodd" clip-rule="evenodd" d="M20.2784 19.7945L25.2415 16.9291L25.3848 17.1772L20.4217 20.0427L20.2784 19.7945Z" fill="black" fill-opacity="0.5"/>
<path fill-rule="evenodd" clip-rule="evenodd" d="M26.1739 30.0062L31.137 27.1408L31.2803 27.3889L26.3172 30.2544L26.1739 30.0062Z" fill="black" fill-opacity="0.5"/>
<path fill-rule="evenodd" clip-rule="evenodd" d="M32.0694 40.2176L37.0325 37.3522L37.1758 37.6003L32.2127 40.4658L32.0694 40.2176Z" fill="black" fill-opacity="0.5"/>
<path fill-rule="evenodd" clip-rule="evenodd" d="M20.8677 20.8158L25.8308 17.9503L25.9741 18.1985L21.011 21.0639L20.8677 20.8158Z" fill="black" fill-opacity="0.5"/>
<path fill-rule="evenodd" clip-rule="evenodd" d="M26.7637 31.0272L31.7268 28.1618L31.8701 28.4099L26.907 31.2754L26.7637 31.0272Z" fill="black" fill-opacity="0.5"/>
<path fill-rule="evenodd" clip-rule="evenodd" d="M32.6592 41.2389L37.6224 38.3734L37.7656 38.6216L32.8025 41.487L32.6592 41.2389Z" fill="black" fill-opacity="0.5"/>
<path fill-rule="evenodd" clip-rule="evenodd" d="M21.4576 21.8368L26.4207 18.9713L26.564 19.2195L21.6009 22.0849L21.4576 21.8368Z" fill="black" fill-opacity="0.5"/>
<path fill-rule="evenodd" clip-rule="evenodd" d="M27.3531 32.0484L32.3162 29.183L32.4595 29.4312L27.4964 32.2966L27.3531 32.0484Z" fill="black" fill-opacity="0.5"/>
<path fill-rule="evenodd" clip-rule="evenodd" d="M33.2486 42.2601L38.2117 39.3947L38.355 39.6428L33.3919 42.5083L33.2486 42.2601Z" fill="black" fill-opacity="0.5"/>
<path fill-rule="evenodd" clip-rule="evenodd" d="M22.0469 22.858L27.01 19.9926L27.1533 20.2407L22.1902 23.1062L22.0469 22.858Z" fill="black" fill-opacity="0.5"/>
<path fill-rule="evenodd" clip-rule="evenodd" d="M27.9425 33.0697L32.9056 30.2042L33.0488 30.4524L28.0857 33.3178L27.9425 33.0697Z" fill="black" fill-opacity="0.5"/>
<path fill-rule="evenodd" clip-rule="evenodd" d="M33.838 43.2811L38.8011 40.4157L38.9443 40.6638L33.9812 43.5293L33.838 43.2811Z" fill="black" fill-opacity="0.5"/>
<path fill-rule="evenodd" clip-rule="evenodd" d="M22.6363 23.8793L27.5994 21.0138L27.7427 21.262L22.7796 24.1274L22.6363 23.8793Z" fill="black" fill-opacity="0.5"/>
<path fill-rule="evenodd" clip-rule="evenodd" d="M28.5318 34.0907L33.4949 31.2252L33.6382 31.4734L28.6751 34.3388L28.5318 34.0907Z" fill="black" fill-opacity="0.5"/>
<path fill-rule="evenodd" clip-rule="evenodd" d="M34.4278 44.3024L39.3909 41.4369L39.5342 41.6851L34.5711 44.5505L34.4278 44.3024Z" fill="black" fill-opacity="0.5"/>
<path fill-rule="evenodd" clip-rule="evenodd" d="M23.2261 24.9003L28.1892 22.0348L28.3325 22.283L23.3694 25.1484L23.2261 24.9003Z" fill="black" fill-opacity="0.5"/>
<path fill-rule="evenodd" clip-rule="evenodd" d="M29.1217 35.1119L34.0848 32.2465L34.228 32.4946L29.2649 35.3601L29.1217 35.1119Z" fill="black" fill-opacity="0.5"/>
<path fill-rule="evenodd" clip-rule="evenodd" d="M35.0172 45.3236L39.9803 42.4581L40.1235 42.7063L35.1604 45.5717L35.0172 45.3236Z" fill="black" fill-opacity="0.5"/>
<path fill-rule="evenodd" clip-rule="evenodd" d="M23.8155 25.9215L28.7786 23.056L28.9219 23.3042L23.9588 26.1696L23.8155 25.9215Z" fill="black" fill-opacity="0.5"/>
<path fill-rule="evenodd" clip-rule="evenodd" d="M29.7115 36.1332L34.6746 33.2677L34.8179 33.5159L29.8548 36.3813L29.7115 36.1332Z" fill="black" fill-opacity="0.5"/>
<path fill-rule="evenodd" clip-rule="evenodd" d="M35.607 46.3446L40.5701 43.4791L40.7134 43.7273L35.7503 46.5927L35.607 46.3446Z" fill="black" fill-opacity="0.5"/>
<path fill-rule="evenodd" clip-rule="evenodd" d="M24.4053 26.9427L29.3684 24.0773L29.5117 24.3254L24.5486 27.1909L24.4053 26.9427Z" fill="black" fill-opacity="0.5"/>
<path fill-rule="evenodd" clip-rule="evenodd" d="M30.3008 37.1542L35.264 34.2887L35.4072 34.5369L30.4441 37.4023L30.3008 37.1542Z" fill="black" fill-opacity="0.5"/>
<path fill-rule="evenodd" clip-rule="evenodd" d="M24.9947 27.9637L29.9578 25.0983L30.1011 25.3464L25.138 28.2119L24.9947 27.9637Z" fill="black" fill-opacity="0.5"/>
<path fill-rule="evenodd" clip-rule="evenodd" d="M30.8902 38.1754L35.8533 35.3099L35.9966 35.5581L31.0335 38.4236L30.8902 38.1754Z" fill="black" fill-opacity="0.5"/>
<path d="M11.2098 27.1121C10.8987 27.2918 12.2234 25.0987 11.3192 23.5325C10.415 21.9663 7.8517 22.0143 8.16287 21.8346C8.47404 21.655 10.726 20.5429 12.1688 23.042C13.6117 25.5411 11.521 26.9325 11.2098 27.1121Z" fill="url(#paint3_linear_353_9337)"/>
<path fill-rule="evenodd" clip-rule="evenodd" d="M11.0778 23.6716C10.3746 22.4535 9.09795 22.0236 8.26975 22.5018C7.44156 22.9799 7.17556 24.3004 7.87884 25.5185C8.58211 26.7367 9.85872 27.1666 10.6869 26.6884C11.5151 26.2102 11.7811 24.8897 11.0778 23.6716ZM7.96042 21.966C9.19489 21.2532 10.8111 21.9723 11.6136 23.3623C12.4161 24.7523 12.2307 26.5115 10.9963 27.2242C9.76178 27.9369 8.14557 27.2179 7.34305 25.8279C6.54052 24.4379 6.72595 22.6787 7.96042 21.966Z" fill="url(#paint4_linear_353_9337)"/>
<path d="M11.1221 11.4693C10.6628 11.7344 10.2779 11.8597 9.96741 11.8451C9.65757 11.8317 9.4166 11.676 9.24451 11.3779C9.07941 11.092 9.06955 10.8077 9.21494 10.525C9.36154 10.2417 9.659 9.97057 10.1073 9.71173C10.5702 9.44449 10.9553 9.31826 11.2627 9.33303C11.5702 9.3478 11.8092 9.50301 11.9799 9.79866C12.1464 10.087 12.1558 10.3733 12.0079 10.6573C11.8608 10.9426 11.5655 11.2132 11.1221 11.4693ZM10.2836 10.0171C9.89709 10.2402 9.6416 10.4483 9.51716 10.6413C9.39394 10.8337 9.38969 11.0292 9.50442 11.2279C9.62055 11.429 9.79356 11.523 10.0234 11.5098C10.2552 11.4972 10.562 11.3807 10.9437 11.1603C11.3254 10.9399 11.5784 10.7333 11.7029 10.5402C11.8292 10.3477 11.8343 10.1509 11.7182 9.94977C11.6035 9.75105 11.432 9.65697 11.2038 9.66754C10.9769 9.6774 10.6702 9.79391 10.2836 10.0171Z" fill="black"/>
<path d="M15.2537 21.7027L15.0837 21.4083L16.9776 20.3148C17.1351 20.2239 17.2869 20.1427 17.4331 20.0712C17.3929 20.0605 17.3498 20.0474 17.3038 20.032C17.2577 20.0166 17.0563 19.9406 16.6996 19.804L16.8145 19.5245L17.764 19.9141L17.9109 20.1685L15.2537 21.7027Z" fill="black"/>
<path d="M21.5127 32.5431L20.5043 30.7964L20.7642 30.6464L21.8716 30.94C22.2104 31.0288 22.4454 31.0805 22.5767 31.0952C22.708 31.1098 22.827 31.109 22.9338 31.0925C23.0407 31.0761 23.1444 31.0388 23.2449 30.9808C23.3867 30.8989 23.474 30.7912 23.5067 30.6576C23.5406 30.5233 23.5135 30.3798 23.4254 30.2271C23.3617 30.1169 23.283 30.0225 23.1893 29.9442C23.0963 29.867 22.9669 29.7955 22.8013 29.7296L22.9143 29.4511C23.2592 29.5783 23.5149 29.7861 23.6814 30.0745C23.8255 30.3241 23.8742 30.5569 23.8276 30.7728C23.7823 30.988 23.6517 31.1579 23.4361 31.2824C23.2676 31.3796 23.0737 31.4286 22.8544 31.4292C22.635 31.4298 22.3245 31.3733 21.9227 31.2595L21.018 31.0063L21.0035 31.0147L21.7926 32.3815L21.5127 32.5431Z" fill="black"/>
<path d="M29.485 41.659C29.3154 41.757 29.149 41.7892 28.9859 41.7557C28.8235 41.7235 28.6737 41.6306 28.5367 41.4771L28.5221 41.4855C28.6186 41.7142 28.642 41.9115 28.5924 42.0774C28.5428 42.2434 28.4296 42.3774 28.2527 42.4796C27.9994 42.6258 27.7536 42.6506 27.5153 42.5539C27.2781 42.4566 27.0662 42.2461 26.8794 41.9226C26.7982 41.7821 26.7346 41.6467 26.6886 41.5166C26.642 41.3884 26.6136 41.2537 26.6032 41.1127L26.8904 40.9469C26.8999 41.0949 26.9269 41.2425 26.9715 41.3896C27.018 41.5372 27.0748 41.6692 27.142 41.7856C27.4071 42.2448 27.7196 42.3705 28.0795 42.1627C28.4018 41.9767 28.4167 41.6304 28.1243 41.1239L27.9732 40.8622L28.2331 40.7121L28.3863 40.9775C28.5059 41.1847 28.6462 41.3226 28.807 41.3913C28.969 41.4593 29.1313 41.4464 29.2936 41.3527C29.4233 41.2778 29.4992 41.1743 29.5213 41.0419C29.5442 40.9108 29.5115 40.7689 29.4234 40.6162C29.3562 40.4999 29.2771 40.3993 29.1862 40.3145C29.0952 40.2297 28.9692 40.1458 28.8081 40.0627L28.9235 39.7925C29.0725 39.8518 29.2122 39.9384 29.3425 40.0522C29.4747 40.1665 29.5863 40.3024 29.6773 40.4599C29.8263 40.718 29.8827 40.9528 29.8465 41.1644C29.8115 41.3752 29.691 41.5401 29.485 41.659Z" fill="black"/>
</g>
</g>
<defs>
<linearGradient id="paint0_linear_353_9337" x1="45.1064" y1="51.3361" x2="18.8607" y2="66.4891" gradientUnits="userSpaceOnUse">
<stop offset="0.878511" stop-color="#B8B8B8"/>
<stop offset="1" stop-color="#888888"/>
</linearGradient>
<linearGradient id="paint1_linear_353_9337" x1="28.0154" y1="61.0548" x2="22.6277" y2="64.1654" gradientUnits="userSpaceOnUse">
<stop stop-color="#C8C8C8" stop-opacity="0.45"/>
<stop offset="1" stop-color="#ABABAB" stop-opacity="0.45"/>
</linearGradient>
<linearGradient id="paint2_linear_353_9337" x1="50.2825" y1="111.271" x2="-5.68843" y2="14.3267" gradientUnits="userSpaceOnUse">
<stop stop-color="#888888" stop-opacity="0"/>
<stop offset="0.487573" stop-color="#4A4A4A"/>
<stop offset="1" stop-color="#888888" stop-opacity="0"/>
</linearGradient>
<linearGradient id="paint3_linear_353_9337" x1="12.168" y1="23.0406" x2="9.65261" y2="24.4929" gradientUnits="userSpaceOnUse">
<stop offset="0.878511" stop-color="#B8B8B8"/>
<stop offset="1" stop-color="#888888"/>
</linearGradient>
<linearGradient id="paint4_linear_353_9337" x1="6.44529" y1="27.0238" x2="16.3431" y2="20.7324" gradientUnits="userSpaceOnUse">
<stop stop-color="#888888" stop-opacity="0"/>
<stop offset="0.487573" stop-color="#7E7E7E"/>
<stop offset="1" stop-color="#888888" stop-opacity="0"/>
</linearGradient>
<clipPath id="clip0_353_9337">
<path d="M0.00244141 14C0.00244141 6.26801 6.27045 0 14.0024 0H30.0024C37.7344 0 44.0024 6.26801 44.0024 14V30C44.0024 37.732 37.7344 44 30.0024 44H14.0024C6.27045 44 0.00244141 37.732 0.00244141 30V14Z" fill="white"/>
</clipPath>
</defs>
</svg>
