<svg width="45" height="44" viewBox="0 0 45 44" fill="none" xmlns="http://www.w3.org/2000/svg">
<g clip-path="url(#clip0_353_8774)">
<path d="M0 14C0 6.26801 6.26801 0 14 0H30.0026C37.7346 0 44.0026 6.26801 44.0026 14V30C44.0026 37.732 37.7346 44 30.0026 44H14C6.26802 44 0 37.732 0 30V14Z" fill="url(#paint0_linear_353_8774)"/>
<mask id="mask0_353_8774" style="mask-type:alpha" maskUnits="userSpaceOnUse" x="-10" y="1" width="85" height="117">
<rect width="30.8202" height="117.257" rx="2.47471" transform="matrix(0.866039 -0.499976 0.500024 0.866011 -9.96826 16.4785)" fill="#EBB854"/>
</mask>
<g mask="url(#mask0_353_8774)">
<path fill-rule="evenodd" clip-rule="evenodd" d="M-7.82369 15.2411C-9.00734 15.9245 -9.41287 17.4379 -8.72947 18.6216L47.4269 115.881C48.1103 117.065 49.6239 117.47 50.8075 116.787L73.2126 103.852C74.3963 103.169 74.8018 101.655 74.1184 100.472L17.962 3.21223C17.2786 2.02862 15.765 1.62306 14.5814 2.3064L-7.82369 15.2411ZM7.90754 25.7437C8.67323 27.0698 10.1442 27.654 11.193 27.0485C12.2418 26.443 12.4714 24.8771 11.7057 23.551C10.94 22.2249 9.46901 21.6407 8.42019 22.2462C7.37136 22.8517 7.14184 24.4176 7.90754 25.7437Z" fill="url(#paint1_linear_353_8774)"/>
<path fill-rule="evenodd" clip-rule="evenodd" d="M-6.50573 14.4798C-7.68938 15.1631 -8.09491 16.6766 -7.4115 17.8602L48.7448 115.12C49.4283 116.303 50.9418 116.709 52.1255 116.025L73.2116 103.852C74.3953 103.169 74.8008 101.655 74.1174 100.472L17.9611 3.21226C17.2777 2.02864 15.7641 1.62309 14.5805 2.30643L-6.50573 14.4798ZM7.90625 25.744C8.67194 27.0701 10.1429 27.6543 11.1917 27.0488C12.2405 26.4433 12.4701 24.8774 11.7044 23.5513C10.9387 22.2251 9.46772 21.6409 8.41889 22.2464C7.37007 22.8519 7.14055 24.4178 7.90625 25.744Z" fill="#EBB854"/>
<path d="M0.881836 13.6191L56.4334 109.831L51.49 112.685C51.1941 112.856 50.8157 112.755 50.6449 112.459L-4.28796 17.3181C-4.45881 17.0222 -4.35742 16.6438 -4.06151 16.473L0.881836 13.6191Z" fill="url(#paint2_linear_353_8774)"/>
<path fill-rule="evenodd" clip-rule="evenodd" d="M12.7475 8.75192L19.0566 5.10959L19.4209 5.74048L13.1118 9.38281L12.7475 8.75192Z" fill="black"/>
<path fill-rule="evenodd" clip-rule="evenodd" d="M50.9878 112.975C50.8136 113.075 50.5908 113.016 50.4902 112.841L-4.69932 17.2558C-4.79991 17.0816 -4.74022 16.8588 -4.56599 16.7583C-4.39176 16.6577 -4.16898 16.7174 -4.06839 16.8916L51.1212 112.477C51.2218 112.651 51.1621 112.874 50.9878 112.975Z" fill="url(#paint3_linear_353_8774)"/>
<path fill-rule="evenodd" clip-rule="evenodd" d="M18.7436 19.1367L25.0527 15.4944L25.417 16.1252L19.1079 19.7676L18.7436 19.1367Z" fill="black"/>
<path fill-rule="evenodd" clip-rule="evenodd" d="M24.7388 29.5215L31.0478 25.8791L31.4121 26.51L25.103 30.1523L24.7388 29.5215Z" fill="black"/>
<path fill-rule="evenodd" clip-rule="evenodd" d="M30.7353 39.9057L37.0444 36.2634L37.4087 36.8943L31.0996 40.5366L30.7353 39.9057Z" fill="black"/>
<path fill-rule="evenodd" clip-rule="evenodd" d="M14.7929 9.38099L19.8401 6.46713L19.9858 6.71948L14.9386 9.63335L14.7929 9.38099Z" fill="black" fill-opacity="0.5"/>
<path fill-rule="evenodd" clip-rule="evenodd" d="M15.393 10.4196L20.4402 7.5057L20.5859 7.75806L15.5387 10.6719L15.393 10.4196Z" fill="black" fill-opacity="0.5"/>
<path fill-rule="evenodd" clip-rule="evenodd" d="M15.9921 11.4579L21.0394 8.54403L21.1851 8.79639L16.1378 11.7103L15.9921 11.4579Z" fill="black" fill-opacity="0.5"/>
<path fill-rule="evenodd" clip-rule="evenodd" d="M16.5917 12.4962L21.639 9.58236L21.7847 9.83472L16.7374 12.7486L16.5917 12.4962Z" fill="black" fill-opacity="0.5"/>
<path fill-rule="evenodd" clip-rule="evenodd" d="M17.1913 13.5348L22.2386 10.6209L22.3843 10.8733L17.337 13.7872L17.1913 13.5348Z" fill="black" fill-opacity="0.5"/>
<path fill-rule="evenodd" clip-rule="evenodd" d="M17.7909 14.5734L22.8382 11.6595L22.9839 11.9119L17.9366 14.8257L17.7909 14.5734Z" fill="black" fill-opacity="0.5"/>
<path fill-rule="evenodd" clip-rule="evenodd" d="M18.3905 15.6117L23.4378 12.6978L23.5835 12.9502L18.5362 15.8641L18.3905 15.6117Z" fill="black" fill-opacity="0.5"/>
<path fill-rule="evenodd" clip-rule="evenodd" d="M18.9906 16.6503L24.0379 13.7364L24.1836 13.9888L19.1363 16.9026L18.9906 16.6503Z" fill="black" fill-opacity="0.5"/>
<path fill-rule="evenodd" clip-rule="evenodd" d="M19.5902 17.6886L24.6375 14.7747L24.7832 15.0271L19.7359 17.941L19.5902 17.6886Z" fill="black" fill-opacity="0.5"/>
<path fill-rule="evenodd" clip-rule="evenodd" d="M20.7894 19.7655L25.8367 16.8516L25.9824 17.104L20.9352 20.0179L20.7894 19.7655Z" fill="black" fill-opacity="0.5"/>
<path fill-rule="evenodd" clip-rule="evenodd" d="M26.785 30.1503L31.8323 27.2364L31.978 27.4888L26.9308 30.4026L26.785 30.1503Z" fill="black" fill-opacity="0.5"/>
<path fill-rule="evenodd" clip-rule="evenodd" d="M32.7807 40.5346L37.8279 37.6207L37.9736 37.873L32.9264 40.7869L32.7807 40.5346Z" fill="black" fill-opacity="0.5"/>
<path fill-rule="evenodd" clip-rule="evenodd" d="M21.3886 20.8041L26.4358 17.8902L26.5815 18.1426L21.5343 21.0564L21.3886 20.8041Z" fill="black" fill-opacity="0.5"/>
<path fill-rule="evenodd" clip-rule="evenodd" d="M27.3851 31.1886L32.4324 28.2747L32.5781 28.5271L27.5309 31.441L27.3851 31.1886Z" fill="black" fill-opacity="0.5"/>
<path fill-rule="evenodd" clip-rule="evenodd" d="M33.3808 41.5731L38.428 38.6593L38.5737 38.9116L33.5265 41.8255L33.3808 41.5731Z" fill="black" fill-opacity="0.5"/>
<path fill-rule="evenodd" clip-rule="evenodd" d="M21.9887 21.8424L27.0359 18.9286L27.1816 19.1809L22.1344 22.0948L21.9887 21.8424Z" fill="black" fill-opacity="0.5"/>
<path fill-rule="evenodd" clip-rule="evenodd" d="M27.9843 32.2272L33.0315 29.3133L33.1772 29.5657L28.13 32.4795L27.9843 32.2272Z" fill="black" fill-opacity="0.5"/>
<path fill-rule="evenodd" clip-rule="evenodd" d="M33.9799 42.6117L39.0271 39.6978L39.1729 39.9502L34.1256 42.8641L33.9799 42.6117Z" fill="black" fill-opacity="0.5"/>
<path fill-rule="evenodd" clip-rule="evenodd" d="M22.5878 22.8807L27.6351 19.9669L27.7808 20.2192L22.7335 23.1331L22.5878 22.8807Z" fill="black" fill-opacity="0.5"/>
<path fill-rule="evenodd" clip-rule="evenodd" d="M28.5839 33.2655L33.6311 30.3516L33.7769 30.604L28.7296 33.5179L28.5839 33.2655Z" fill="black" fill-opacity="0.5"/>
<path fill-rule="evenodd" clip-rule="evenodd" d="M34.579 43.65L39.6263 40.7362L39.772 40.9885L34.7247 43.9024L34.579 43.65Z" fill="black" fill-opacity="0.5"/>
<path fill-rule="evenodd" clip-rule="evenodd" d="M23.1874 23.9193L28.2347 21.0055L28.3804 21.2578L23.3331 24.1717L23.1874 23.9193Z" fill="black" fill-opacity="0.5"/>
<path fill-rule="evenodd" clip-rule="evenodd" d="M29.183 34.3038L34.2303 31.39L34.376 31.6423L29.3287 34.5562L29.183 34.3038Z" fill="black" fill-opacity="0.5"/>
<path fill-rule="evenodd" clip-rule="evenodd" d="M35.1791 44.6886L40.2264 41.7747L40.3721 42.0271L35.3248 44.941L35.1791 44.6886Z" fill="black" fill-opacity="0.5"/>
<path fill-rule="evenodd" clip-rule="evenodd" d="M23.787 24.9579L28.8343 22.044L28.98 22.2964L23.9327 25.2102L23.787 24.9579Z" fill="black" fill-opacity="0.5"/>
<path fill-rule="evenodd" clip-rule="evenodd" d="M29.7831 35.3424L34.8304 32.4286L34.9761 32.6809L29.9288 35.5948L29.7831 35.3424Z" fill="black" fill-opacity="0.5"/>
<path fill-rule="evenodd" clip-rule="evenodd" d="M35.7787 45.7269L40.826 42.8131L40.9717 43.0654L35.9244 45.9793L35.7787 45.7269Z" fill="black" fill-opacity="0.5"/>
<path fill-rule="evenodd" clip-rule="evenodd" d="M24.3866 25.9962L29.4339 23.0824L29.5796 23.3347L24.5323 26.2486L24.3866 25.9962Z" fill="black" fill-opacity="0.5"/>
<path fill-rule="evenodd" clip-rule="evenodd" d="M30.3827 36.381L35.43 33.4671L35.5757 33.7195L30.5284 36.6333L30.3827 36.381Z" fill="black" fill-opacity="0.5"/>
<path fill-rule="evenodd" clip-rule="evenodd" d="M36.3788 46.7655L41.4261 43.8516L41.5718 44.104L36.5245 47.0179L36.3788 46.7655Z" fill="black" fill-opacity="0.5"/>
<path fill-rule="evenodd" clip-rule="evenodd" d="M24.9862 27.0348L30.0335 24.1209L30.1792 24.3733L25.1319 27.2872L24.9862 27.0348Z" fill="black" fill-opacity="0.5"/>
<path fill-rule="evenodd" clip-rule="evenodd" d="M30.9823 37.4191L36.0296 34.5052L36.1753 34.7576L31.128 37.6714L30.9823 37.4191Z" fill="black" fill-opacity="0.5"/>
<path fill-rule="evenodd" clip-rule="evenodd" d="M25.5858 28.0731L30.6331 25.1593L30.7788 25.4116L25.7315 28.3255L25.5858 28.0731Z" fill="black" fill-opacity="0.5"/>
<path fill-rule="evenodd" clip-rule="evenodd" d="M31.5814 38.4579L36.6287 35.544L36.7744 35.7964L31.7271 38.7103L31.5814 38.4579Z" fill="black" fill-opacity="0.5"/>
<path d="M11.5657 27.2071C11.2493 27.3898 12.5965 25.1596 11.6769 23.5669C10.7573 21.9742 8.15053 22.023 8.46698 21.8403C8.78342 21.6576 11.0735 20.5267 12.5409 23.0681C14.0083 25.6095 11.8822 27.0244 11.5657 27.2071Z" fill="url(#paint4_linear_353_8774)"/>
<ellipse rx="2.77269" ry="2.19281" transform="matrix(0.500025 0.866011 -0.86604 0.499975 9.80474 24.6477)" stroke="url(#paint5_linear_353_8774)" stroke-width="0.618677" stroke-linecap="round"/>
<path d="M11.477 11.2995C11.0099 11.5691 10.6185 11.6965 10.3027 11.6816C9.98763 11.668 9.74257 11.5097 9.56755 11.2066C9.39965 10.9158 9.38962 10.6266 9.53747 10.3392C9.68655 10.0511 9.98906 9.77538 10.445 9.51216C10.9157 9.24041 11.3074 9.11205 11.62 9.12708C11.9326 9.1421 12.1758 9.29994 12.3493 9.6006C12.5187 9.89386 12.5282 10.1849 12.3779 10.4738C12.2283 10.7639 11.928 11.0391 11.477 11.2995ZM10.6243 9.82268C10.2312 10.0496 9.97137 10.2612 9.84482 10.4575C9.71951 10.6531 9.71519 10.8519 9.83187 11.054C9.94997 11.2585 10.1259 11.3541 10.3597 11.3407C10.5954 11.3278 10.9074 11.2094 11.2955 10.9853C11.6837 10.7612 11.941 10.551 12.0676 10.3547C12.1961 10.159 12.2013 9.95881 12.0832 9.75426C11.9665 9.55218 11.7921 9.45651 11.5601 9.46724C11.3293 9.47727 11.0174 9.59575 10.6243 9.82268Z" fill="black"/>
<path d="M15.6785 21.706L15.5056 21.4066L17.4316 20.2947C17.5918 20.2022 17.7462 20.1196 17.8948 20.047C17.854 20.036 17.8102 20.0227 17.7633 20.007C17.7165 19.9914 17.5117 19.9141 17.1489 19.7752L17.2657 19.4909L18.2314 19.8872L18.3808 20.1459L15.6785 21.706Z" fill="black"/>
<path d="M22.0442 32.73L21.0186 30.9538L21.283 30.8012L22.4091 31.0999C22.7537 31.1901 22.9927 31.2427 23.1262 31.2576C23.2597 31.2726 23.3808 31.2717 23.4894 31.255C23.5981 31.2382 23.7035 31.2004 23.8058 31.1413C23.95 31.0581 24.0387 30.9485 24.072 30.8127C24.1065 30.6761 24.0789 30.5302 23.9893 30.3749C23.9245 30.2628 23.8445 30.1669 23.7492 30.0872C23.6546 30.0087 23.5231 29.936 23.3546 29.869L23.4695 29.5857C23.8202 29.7151 24.0803 29.9264 24.2496 30.2197C24.3962 30.4735 24.4458 30.7103 24.3984 30.9298C24.3522 31.1487 24.2195 31.3214 24.0002 31.4481C23.8289 31.5469 23.6317 31.5967 23.4086 31.5973C23.1855 31.598 22.8697 31.5404 22.4612 31.4247L21.5411 31.1673L21.5263 31.1758L22.3289 32.5657L22.0442 32.73Z" fill="black"/>
<path d="M30.1521 42.0004C29.9796 42.1 29.8104 42.1328 29.6446 42.0988C29.4794 42.066 29.3271 41.9715 29.1877 41.8154L29.1729 41.824C29.271 42.0565 29.2948 42.2571 29.2444 42.4259C29.194 42.5947 29.0788 42.731 28.8989 42.8348C28.6414 42.9835 28.3914 43.0087 28.149 42.9104C27.9078 42.8114 27.6923 42.5974 27.5023 42.2684C27.4198 42.1255 27.3551 41.9879 27.3083 41.8555C27.2609 41.7252 27.232 41.5883 27.2214 41.4448L27.5135 41.2762C27.5232 41.4267 27.5507 41.5768 27.596 41.7264C27.6432 41.8766 27.701 42.0108 27.7693 42.1291C28.039 42.5961 28.3568 42.7239 28.7227 42.5127C29.0505 42.3234 29.0657 41.9713 28.7683 41.4562L28.6147 41.1901L28.879 41.0375L29.0348 41.3073C29.1564 41.518 29.2991 41.6583 29.4626 41.7282C29.6274 41.7973 29.7924 41.7843 29.9575 41.6889C30.0893 41.6128 30.1665 41.5075 30.189 41.3729C30.2123 41.2395 30.1791 41.0952 30.0894 40.94C30.0211 40.8217 29.9407 40.7194 29.8482 40.6332C29.7557 40.5469 29.6275 40.4616 29.4637 40.377L29.5811 40.1023C29.7326 40.1627 29.8746 40.2507 30.0072 40.3664C30.1417 40.4827 30.2551 40.6209 30.3476 40.7811C30.4992 41.0435 30.5565 41.2823 30.5197 41.4974C30.4841 41.7118 30.3616 41.8795 30.1521 42.0004Z" fill="black"/>
</g>
</g>
<defs>
<linearGradient id="paint0_linear_353_8774" x1="44.0026" y1="0" x2="14.0163" y2="52.0715" gradientUnits="userSpaceOnUse">
<stop stop-color="#FAF1A7"/>
<stop offset="1" stop-color="#B2E04E"/>
</linearGradient>
<linearGradient id="paint1_linear_353_8774" x1="46.0402" y1="51.8419" x2="19.3496" y2="67.2527" gradientUnits="userSpaceOnUse">
<stop offset="0.878511" stop-color="#EBB854"/>
<stop offset="1" stop-color="#CC6C35"/>
</linearGradient>
<linearGradient id="paint2_linear_353_8774" x1="28.6576" y1="61.7253" x2="23.1786" y2="64.8887" gradientUnits="userSpaceOnUse">
<stop stop-color="#EBB854" stop-opacity="0.45"/>
<stop offset="1" stop-color="#CC6C35" stop-opacity="0.45"/>
</linearGradient>
<linearGradient id="paint3_linear_353_8774" x1="51.3033" y1="112.792" x2="-5.61424" y2="14.2026" gradientUnits="userSpaceOnUse">
<stop stop-color="#CC6C35" stop-opacity="0"/>
<stop offset="0.487573" stop-color="#CC6C35"/>
<stop offset="1" stop-color="#CC6C35" stop-opacity="0"/>
</linearGradient>
<linearGradient id="paint4_linear_353_8774" x1="13.9944" y1="22.2271" x2="11.4175" y2="23.715" gradientUnits="userSpaceOnUse">
<stop stop-color="#EBB854" stop-opacity="0.45"/>
<stop offset="1" stop-color="#CC6C35" stop-opacity="0.45"/>
</linearGradient>
<linearGradient id="paint5_linear_353_8774" x1="2.77177" y1="-0.579931" x2="2.77177" y2="5.94428" gradientUnits="userSpaceOnUse">
<stop stop-color="#CC6C35"/>
<stop offset="1" stop-color="#EBB854"/>
</linearGradient>
<clipPath id="clip0_353_8774">
<path d="M0 14C0 6.26801 6.26801 0 14 0H30.0026C37.7346 0 44.0026 6.26801 44.0026 14V30C44.0026 37.732 37.7346 44 30.0026 44H14C6.26802 44 0 37.732 0 30V14Z" fill="white"/>
</clipPath>
</defs>
</svg>
