<svg width="32" height="32" viewBox="0 0 32 32" fill="none" xmlns="http://www.w3.org/2000/svg">
<path d="M12.0125 6C11.6894 6 11.3845 6.1501 11.1875 6.40625L10 8H5C3.89543 8 3 8.89543 3 10V24C3 25.1046 3.89543 26 5 26H27C28.1046 26 29 25.1046 29 24V10C29 8.89543 28.1046 8 27 8H22L20.8125 6.40625C20.6155 6.1501 20.3106 6 19.9875 6H12.0125ZM12.2001 8.40252C12.3888 8.14923 12.6861 8 13.002 8H18.998C19.3139 8 19.6112 8.14923 19.7999 8.40252L20.6875 9.59375L20.6998 9.60971C20.8891 9.8558 21.1819 10 21.4924 10H26.5C26.7761 10 27 10.2239 27 10.5V23C27 23.5523 26.5523 24 26 24H6C5.44772 24 5 23.5523 5 23V11C5 10.4477 5.44772 10 6 10H10.5076C10.8181 10 11.1109 9.8558 11.3002 9.60971L11.3125 9.59375L12.2001 8.40252ZM8 11C7.44922 11 7 11.4492 7 12C7 12.5508 7.44922 13 8 13C8.55078 13 9 12.5508 9 12C9 11.4492 8.55078 11 8 11ZM16 11C12.6992 11 10 13.6992 10 17C10 20.3008 12.6992 23 16 23C19.3008 23 22 20.3008 22 17C22 13.6992 19.3008 11 16 11ZM16 13C18.2227 13 20 14.7773 20 17C20 19.2227 18.2227 21 16 21C13.7773 21 12 19.2227 12 17C12 14.7773 13.7773 13 16 13Z" fill="black"/>
</svg>
