<?xml version="1.0" encoding="UTF-8" standalone="no"?>
<svg
   width="24"
   height="25"
   viewBox="0 0 24 25"
   fill="none"
   version="1.1"
   id="svg22"
   sodipodi:docname="download.svg"
   inkscape:version="1.1.2 (b8e25be8, 2022-02-05)"
   xmlns:inkscape="http://www.inkscape.org/namespaces/inkscape"
   xmlns:sodipodi="http://sodipodi.sourceforge.net/DTD/sodipodi-0.dtd"
   xmlns="http://www.w3.org/2000/svg"
   xmlns:svg="http://www.w3.org/2000/svg">
  <sodipodi:namedview
     id="namedview24"
     pagecolor="#ffffff"
     bordercolor="#666666"
     borderopacity="1.0"
     inkscape:pageshadow="2"
     inkscape:pageopacity="0.0"
     inkscape:pagecheckerboard="0"
     showgrid="false"
     inkscape:zoom="22"
     inkscape:cx="11.977273"
     inkscape:cy="12.5"
     inkscape:window-width="1440"
     inkscape:window-height="772"
     inkscape:window-x="0"
     inkscape:window-y="25"
     inkscape:window-maximized="1"
     inkscape:current-layer="svg22" />
  <g
     clip-path="url(#clip0_486_23896)"
     id="g15">
    <path
       style="color:#000000;fill:#1c2629;stroke-linecap:round;stroke-linejoin:round;-inkscape-stroke:none"
       d="m 5.1425781,11 a 1,1 0 0 0 -1,1 v 6.857422 c 0,0.719504 0.2862046,1.411189 0.7949219,1.919922 0.508768,0.508784 1.2004535,0.794922 1.9199219,0.794922 H 17.142578 c 0.719448,0 1.411107,-0.286107 1.919922,-0.794922 a 1.0001,1.0001 0 0 0 0,-0.002 c 0.508498,-0.508657 0.794922,-1.198333 0.794922,-1.917969 V 12 a 1,1 0 0 0 -1,-1 1,1 0 0 0 -1,1 v 6.857422 c 0,0.189763 -0.07468,0.369563 -0.208985,0.503906 -0.134184,0.134185 -0.316107,0.210938 -0.505859,0.210938 H 6.8574219 c -0.1898307,0 -0.3716481,-0.07672 -0.5058594,-0.210938 C 6.2173004,19.227062 6.1425781,19.047317 6.1425781,18.857422 V 12 a 1,1 0 0 0 -1,-1 z"
       id="path9" />
    <path
       style="color:#000000;fill:#1c2629;stroke-linecap:round;stroke-linejoin:round;-inkscape-stroke:none"
       d="m 15.427734,10.142578 a 1,1 0 0 0 -0.707031,0.292969 L 12,13.15625 9.2792969,10.435547 a 1,1 0 0 0 -1.4160157,0 1,1 0 0 0 0,1.414062 l 3.4296878,3.429688 a 1.0001,1.0001 0 0 0 1.414062,0 l 3.427735,-3.429688 a 1,1 0 0 0 0,-1.414062 1,1 0 0 0 -0.707032,-0.292969 z"
       id="path11" />
    <path
       style="color:#000000;fill:#1c2629;stroke-linecap:round;stroke-linejoin:round;-inkscape-stroke:none"
       d="m 12,2.4277344 a 1,1 0 0 0 -1,1 V 14.572266 a 1,1 0 0 0 1,1 1,1 0 0 0 1,-1 V 3.4277344 a 1,1 0 0 0 -1,-1 z"
       id="path13" />
  </g>
  <defs
     id="defs20">
    <clipPath
       id="clip0_486_23896">
      <rect
         width="24"
         height="24"
         fill="white"
         transform="translate(24 0.00390625) rotate(90)"
         id="rect17" />
    </clipPath>
  </defs>
</svg>
