<?xml version="1.0" encoding="UTF-8" standalone="no"?>
<svg
   width="24"
   height="25"
   viewBox="0 0 24 25"
   fill="none"
   version="1.1"
   id="svg11"
   sodipodi:docname="edit.svg"
   inkscape:version="1.1.2 (b8e25be8, 2022-02-05)"
   xmlns:inkscape="http://www.inkscape.org/namespaces/inkscape"
   xmlns:sodipodi="http://sodipodi.sourceforge.net/DTD/sodipodi-0.dtd"
   xmlns="http://www.w3.org/2000/svg"
   xmlns:svg="http://www.w3.org/2000/svg">
  <defs
     id="defs15" />
  <sodipodi:namedview
     id="namedview13"
     pagecolor="#ffffff"
     bordercolor="#666666"
     borderopacity="1.0"
     inkscape:pageshadow="2"
     inkscape:pageopacity="0.0"
     inkscape:pagecheckerboard="0"
     showgrid="false"
     inkscape:zoom="22"
     inkscape:cx="11.977273"
     inkscape:cy="12.5"
     inkscape:window-width="1440"
     inkscape:window-height="772"
     inkscape:window-x="0"
     inkscape:window-y="25"
     inkscape:window-maximized="1"
     inkscape:current-layer="svg11" />
  <path
     style="color:#000000;fill:#1c2629;stroke-linecap:round;stroke-linejoin:round;-inkscape-stroke:none"
     d="m 19,1.1757812 c -0.502722,10e-8 -1.000366,0.098647 -1.464844,0.2910157 -0.464533,0.1923916 -0.886703,0.4745402 -1.242187,0.8300781 l -13.5000002,13.5 a 1.0001,1.0001 0 0 0 -0.2578125,0.443359 l -1.5000001,5.5 a 1.0001,1.0001 0 0 0 1.2285157,1.228516 l 5.5,-1.5 A 1.0001,1.0001 0 0 0 8.2070313,21.210937 L 21.707031,7.7109375 C 22.06239,7.3555245 22.344705,6.933391 22.537109,6.46875 c 0.19254,-0.464641 0.291016,-0.9622032 0.291016,-1.4648438 0,-0.5026341 -0.09848,-1.0002027 -0.291016,-1.4648437 C 22.344705,3.0744215 22.062378,2.6522891 21.707031,2.296875 21.351547,1.9413371 20.929377,1.6591885 20.464844,1.4667969 20.000366,1.2744283 19.502722,1.1757813 19,1.1757812 Z m 0,2.0000001 c 0.240077,0 0.477297,0.046761 0.699219,0.1386718 0.221866,0.091888 0.424034,0.2267429 0.59375,0.3964844 0.169853,0.1698854 0.304689,0.3720717 0.396484,0.59375 0.09186,0.2216784 0.138672,0.4589936 0.138672,0.6992187 0,0.2402387 -0.04681,0.4775404 -0.138672,0.6992188 -0.0918,0.2216783 -0.226644,0.4238835 -0.396484,0.59375 L 6.9804687,19.609375 3.4257813,20.578125 4.3945312,17.023437 17.707031,3.7109375 C 17.876747,3.541196 18.078915,3.4063412 18.300781,3.3144531 18.522703,3.222542 18.759923,3.1757813 19,3.1757813 Z"
     id="path9" />
</svg>
