<?xml version="1.0" encoding="UTF-8" standalone="no"?>
<svg
   width="24"
   height="25"
   viewBox="0 0 24 25"
   fill="none"
   version="1.1"
   id="svg15"
   sodipodi:docname="image.svg"
   inkscape:version="1.1.2 (b8e25be8, 2022-02-05)"
   xmlns:inkscape="http://www.inkscape.org/namespaces/inkscape"
   xmlns:sodipodi="http://sodipodi.sourceforge.net/DTD/sodipodi-0.dtd"
   xmlns="http://www.w3.org/2000/svg"
   xmlns:svg="http://www.w3.org/2000/svg">
  <defs
     id="defs19" />
  <sodipodi:namedview
     id="namedview17"
     pagecolor="#ffffff"
     bordercolor="#666666"
     borderopacity="1.0"
     inkscape:pageshadow="2"
     inkscape:pageopacity="0.0"
     inkscape:pagecheckerboard="0"
     showgrid="false"
     inkscape:zoom="22"
     inkscape:cx="11.977273"
     inkscape:cy="12.5"
     inkscape:window-width="1440"
     inkscape:window-height="772"
     inkscape:window-x="0"
     inkscape:window-y="25"
     inkscape:window-maximized="1"
     inkscape:current-layer="svg15" />
  <path
     style="color:#000000;fill:#1c2629;stroke-linecap:round;stroke-linejoin:round;-inkscape-stroke:none"
     d="m 5,2.0039063 c -1.6450079,-1e-7 -3,1.354992 -3,2.9999999 V 19.003906 c 0,1.645023 1.3550102,3 3,3 h 14 c 1.645005,0 3,-1.354995 3,-3 V 5.0039062 C 22,3.3589164 20.645023,2.0039063 19,2.0039063 Z m 0,1.9999999 h 14 c 0.564175,0 1,0.4358521 1,1 V 19.003906 c 0,0.564193 -0.435807,1 -1,1 H 5 c -0.564148,0 -1,-0.435825 -1,-1 V 5.0039062 c 0,-0.5641298 0.4358701,-1 1,-1 z"
     id="path9" />
  <path
     style="color:#000000;fill:#1c2629;stroke-linecap:round;stroke-linejoin:round;-inkscape-stroke:none"
     d="M 8.5,6.0039062 C 7.1311354,6.0039063 6,7.1350417 6,8.5039063 c 0,1.368861 1.1311354,2.4999997 2.5,2.4999997 1.3688646,0 2.5,-1.1311387 2.5,-2.4999997 C 11,7.1350417 9.8688646,6.0039062 8.5,6.0039062 Z m 0,2.0000001 c 0.2879938,0 0.5,0.2120062 0.5,0.5 0,0.2879772 -0.2120062,0.5 -0.5,0.5 -0.2879938,0 -0.5,-0.2120228 -0.5,-0.5 0,-0.2879938 0.2120062,-0.5000001 0.5,-0.5 z"
     id="path11" />
  <path
     style="color:#000000;fill:#1c2629;stroke-linecap:round;stroke-linejoin:round;-inkscape-stroke:none"
     d="m 15.292969,9.296875 -11.0000003,11 a 1,1 0 0 0 0,1.414062 1,1 0 0 0 1.4140625,0 L 16,11.417969 l 4.292969,4.292969 a 1,1 0 0 0 1.414062,0 1,1 0 0 0 0,-1.414063 l -5,-5 a 1.0001,1.0001 0 0 0 -1.414062,0 z"
     id="path13" />
</svg>
