<?xml version="1.0" encoding="UTF-8" standalone="no"?>
<svg
   width="24"
   height="25"
   viewBox="0 0 24 25"
   fill="none"
   version="1.1"
   id="svg15"
   sodipodi:docname="log_out.svg"
   inkscape:version="1.1.2 (b8e25be8, 2022-02-05)"
   xmlns:inkscape="http://www.inkscape.org/namespaces/inkscape"
   xmlns:sodipodi="http://sodipodi.sourceforge.net/DTD/sodipodi-0.dtd"
   xmlns="http://www.w3.org/2000/svg"
   xmlns:svg="http://www.w3.org/2000/svg">
  <defs
     id="defs19" />
  <sodipodi:namedview
     id="namedview17"
     pagecolor="#ffffff"
     bordercolor="#666666"
     borderopacity="1.0"
     inkscape:pageshadow="2"
     inkscape:pageopacity="0.0"
     inkscape:pagecheckerboard="0"
     showgrid="false"
     inkscape:zoom="22"
     inkscape:cx="11.977273"
     inkscape:cy="12.5"
     inkscape:window-width="1440"
     inkscape:window-height="772"
     inkscape:window-x="0"
     inkscape:window-y="25"
     inkscape:window-maximized="1"
     inkscape:current-layer="svg15" />
  <path
     style="color:#000000;fill:#1c2629;stroke-linecap:round;stroke-linejoin:round;-inkscape-stroke:none"
     d="M 5,2.0039063 C 4.2047416,2.0039062 3.4412455,2.3204733 2.8789063,2.8828125 2.3165683,3.4451504 2,4.2086429 2,5.0039062 V 19.003906 C 2,19.79915 2.3165904,20.562654 2.8789063,21.125 3.4412548,21.687394 4.2047542,22.003906 5,22.003906 h 4 a 1,1 0 0 0 1,-1 1,1 0 0 0 -1,-1 H 5 c -0.2656131,0 -0.5192406,-0.105163 -0.7070313,-0.292969 C 4.1051254,19.523084 4,19.269462 4,19.003906 V 5.0039062 C 4,4.7382907 4.1051474,4.4846963 4.2929687,4.296875 4.4807688,4.109075 4.7343994,4.0039063 5,4.0039062 h 4 a 1,1 0 0 0 1,-0.9999999 1,1 0 0 0 -1,-1 z"
     id="path9" />
  <path
     style="color:#000000;fill:#1c2629;stroke-linecap:round;stroke-linejoin:round;-inkscape-stroke:none"
     d="m 15.292969,6.296875 a 1,1 0 0 0 0,1.4140625 l 4.292968,4.2929685 -4.292968,4.292969 a 1,1 0 0 0 0,1.414062 1,1 0 0 0 1.414062,0 l 5,-4.999999 a 1.0001,1.0001 0 0 0 0,-1.414063 l -5,-5 a 1,1 0 0 0 -1.414062,0 z"
     id="path11" />
  <path
     style="color:#000000;fill:#1c2629;stroke-linecap:round;stroke-linejoin:round;-inkscape-stroke:none"
     d="m 9,11.003906 a 1,1 0 0 0 -1,1 1,1 0 0 0 1,1 h 12 a 1,1 0 0 0 1,-1 1,1 0 0 0 -1,-1 z"
     id="path13" />
</svg>
