<svg width="32" height="32" viewBox="0 0 32 32" fill="none" xmlns="http://www.w3.org/2000/svg">
<path d="M21.9455 5.00796C21.1644 4.22691 19.8981 4.22692 19.117 5.00796L5.00796 19.117C4.22691 19.8981 4.22692 21.1644 5.00796 21.9455L10.0545 26.992C10.8356 27.7731 12.1019 27.7731 12.883 26.992L26.992 12.883C27.7731 12.1019 27.7731 10.8356 26.992 10.0545L21.9455 5.00796ZM20.5312 6.4375L24.8554 10.7616C25.2459 11.1522 25.2459 11.7853 24.8554 12.1759L12.1759 24.8554C11.7853 25.2459 11.1522 25.2459 10.7616 24.8554L6.4375 20.5312L7.59375 19.375L9.75 21.5312L11.1875 20.125L9 17.9375L10.1875 16.7812L11.0625 17.6562L12.4688 16.2188L11.5938 15.375L12.7812 14.1875L14.9375 16.3438L16.3438 14.9375L14.1875 12.7812L15.375 11.5938L16.2188 12.4688L17.6562 11.0625L16.7812 10.1875L17.9375 9L20.125 11.1875L21.5312 9.75L19.375 7.59375L20.5312 6.4375Z" fill="black"/>
</svg>
